0
SECTION
2
HEADER
9
$ACADVER
1
AC1032
9
$ACADMAINTVER
70
0
9
$DWGCODEPAGE
3
ANSI_1252
9
$HANDSEED
5
143
9
$INSBASE
10
0
20
0
30
0
9
$EXTMIN
10
0
20
-0.0881944444
30
0
9
$EXTMAX
10
113.0652777778
20
84.7548611111
30
0
9
$LIMMIN
10
0
20
0
9
$LIMMAX
10
112.9770833333
20
84.7548611111
9
$INSUNITS
70
4
9
$MEASUREMENT
70
1
9
$LUNITS
70
2
9
$LUPREC
70
4
9
$AUNITS
70
0
9
$AUPREC
70
4
9
$TILEMODE
70
1
9
$LTSCALE
40
1
9
$PSLTSCALE
70
0
9
$FILLMODE
70
1
9
$CLAYER
8
0
0
ENDSEC
0
SECTION
2
CLASSES
0
CLASS
1
IMAGE
2
AcDbRasterImage
3
ISM
90
127
91
1
280
0
281
1
0
CLASS
1
IMAGEDEF
2
AcDbRasterImageDef
3
ISM
90
0
91
1
280
0
281
0
0
CLASS
1
IMAGEDEF_REACTOR
2
AcDbRasterImageDefReactor
3
ISM
90
0
91
1
280
0
281
0
0
CLASS
1
RASTERVARIABLES
2
AcDbRasterVariables
3
ISM
90
0
91
1
280
0
281
0
0
ENDSEC
0
SECTION
2
TABLES
0
TABLE
5
100
2
VPORT
100
AcDbSymbolTable
70
1
0
VPORT
5
12F
330
100
100
AcDbSymbolTableRecord
100
AcDbViewportTableRecord
2
*Active
70
0
10
0
20
0
11
1
21
1
12
56.4885416667
22
42.3774305556
13
0
23
0
14
10
24
10
15
10
25
10
16
0
26
0
36
1
17
0
27
0
37
0
40
84.7548611111
41
1.3329864724
42
50
43
0
44
0
50
0
51
0
71
0
72
100
73
1
74
3
75
0
76
0
77
0
78
0
0
ENDTAB
0
TABLE
5
101
2
LTYPE
100
AcDbSymbolTable
70
3
0
LTYPE
5
11C
330
101
100
AcDbSymbolTableRecord
100
AcDbLinetypeTableRecord
2
BYBLOCK
70
0
3

72
65
73
0
40
0
0
LTYPE
5
11D
330
101
100
AcDbSymbolTableRecord
100
AcDbLinetypeTableRecord
2
BYLAYER
70
0
3

72
65
73
0
40
0
0
LTYPE
5
11E
330
101
100
AcDbSymbolTableRecord
100
AcDbLinetypeTableRecord
2
CONTINUOUS
70
0
3

72
65
73
0
40
0
0
ENDTAB
0
TABLE
5
102
2
LAYER
100
AcDbSymbolTable
70
13
0
LAYER
5
11F
330
102
100
AcDbSymbolTableRecord
100
AcDbLayerTableRecord
2
0
70
0
62
-254
420
13819110
6
CONTINUOUS
290
1
370
-3
0
LAYER
5
120
330
102
100
AcDbSymbolTableRecord
100
AcDbLayerTableRecord
2
PDF_EDF0F5_35
70
0
62
-7
420
15593717
6
CONTINUOUS
290
1
370
-3
0
LAYER
5
121
330
102
100
AcDbSymbolTableRecord
100
AcDbLayerTableRecord
2
PDF_1A8CCC_35
70
0
62
-142
420
1739980
6
CONTINUOUS
290
1
370
-3
0
LAYER
5
122
330
102
100
AcDbSymbolTableRecord
100
AcDbLayerTableRecord
2
PDF_CC334C_35
70
0
62
-13
420
13382476
6
CONTINUOUS
290
1
370
-3
0
LAYER
5
123
330
102
100
AcDbSymbolTableRecord
100
AcDbLayerTableRecord
2
PDF_000000_35
70
0
62
-250
420
0
6
CONTINUOUS
290
1
370
-3
0
LAYER
5
124
330
102
100
AcDbSymbolTableRecord
100
AcDbLayerTableRecord
2
PDF_FFFFFF_35
70
0
62
-7
420
16777215
6
CONTINUOUS
290
1
370
-3
0
LAYER
5
125
330
102
100
AcDbSymbolTableRecord
100
AcDbLayerTableRecord
2
PDF_808080_35
70
0
62
-8
420
8421504
6
CONTINUOUS
290
1
370
-3
0
LAYER
5
126
330
102
100
AcDbSymbolTableRecord
100
AcDbLayerTableRecord
2
PDF_1AB266_35
70
0
62
-112
420
1749606
6
CONTINUOUS
290
1
370
-3
0
LAYER
5
127
330
102
100
AcDbSymbolTableRecord
100
AcDbLayerTableRecord
2
PDF_1A80CC_35
70
0
62
-142
420
1736908
6
CONTINUOUS
290
1
370
-3
0
LAYER
5
128
330
102
100
AcDbSymbolTableRecord
100
AcDbLayerTableRecord
2
PDF_FF4C1A_35
70
0
62
-20
420
16731162
6
CONTINUOUS
290
1
370
-3
0
LAYER
5
129
330
102
100
AcDbSymbolTableRecord
100
AcDbLayerTableRecord
2
PDF_0D33CC_35
70
0
62
-162
420
865228
6
CONTINUOUS
290
1
370
-3
0
LAYER
5
12A
330
102
100
AcDbSymbolTableRecord
100
AcDbLayerTableRecord
2
PDF_B200CC_53
70
0
62
-212
420
11665612
6
CONTINUOUS
290
1
370
-3
0
LAYER
5
12B
330
102
100
AcDbSymbolTableRecord
100
AcDbLayerTableRecord
2
REVECTOR_APPEARANCE
70
0
62
7
420
16777215
6
CONTINUOUS
290
1
370
-3
0
ENDTAB
0
TABLE
5
103
2
STYLE
100
AcDbSymbolTable
70
2
0
STYLE
5
11A
330
103
100
AcDbSymbolTableRecord
100
AcDbTextStyleTableRecord
2
STANDARD
70
0
40
0
41
1
50
0
71
0
42
2.5
3
txt
4

0
STYLE
5
11B
330
103
100
AcDbSymbolTableRecord
100
AcDbTextStyleTableRecord
2
RV_E81703FA
70
0
40
0
41
1
50
0
71
0
42
2.5
3
Type3.ttf
4

0
ENDTAB
0
TABLE
5
104
2
VIEW
100
AcDbSymbolTable
70
0
0
ENDTAB
0
TABLE
5
105
2
UCS
100
AcDbSymbolTable
70
0
0
ENDTAB
0
TABLE
5
106
2
APPID
100
AcDbSymbolTable
70
2
0
APPID
5
12C
330
106
100
AcDbSymbolTableRecord
100
AcDbRegAppTableRecord
2
ACAD
70
0
0
APPID
5
12D
330
106
100
AcDbSymbolTableRecord
100
AcDbRegAppTableRecord
2
REVECTOR
70
0
0
ENDTAB
0
TABLE
5
107
2
DIMSTYLE
100
AcDbSymbolTable
70
1
0
DIMSTYLE
105
12E
330
107
100
AcDbSymbolTableRecord
100
AcDbDimStyleTableRecord
2
STANDARD
70
0
40
1
41
2.5
42
0.625
43
3.75
44
1.25
140
2.5
147
0.625
340
11A
0
ENDTAB
0
TABLE
5
108
2
BLOCK_RECORD
100
AcDbSymbolTable
70
4
0
BLOCK_RECORD
5
10E
330
108
100
AcDbSymbolTableRecord
100
AcDbBlockTableRecord
2
*Model_Space
340
10C
70
4
280
1
281
0
0
BLOCK_RECORD
5
10F
330
108
100
AcDbSymbolTableRecord
100
AcDbBlockTableRecord
2
*Paper_Space
340
10D
70
4
280
1
281
0
0
BLOCK_RECORD
5
110
330
108
100
AcDbSymbolTableRecord
100
AcDbBlockTableRecord
2
PDF_FORM_53F38142_0
70
4
280
1
281
0
0
BLOCK_RECORD
5
111
330
108
100
AcDbSymbolTableRecord
100
AcDbBlockTableRecord
2
PDF_FORM_B2475DFD_1
70
4
280
1
281
0
0
ENDTAB
0
ENDSEC
0
SECTION
2
BLOCKS
0
BLOCK
5
112
330
10E
100
AcDbEntity
8
0
100
AcDbBlockBegin
2
*Model_Space
70
0
10
0
20
0
30
0
3
*Model_Space
1

0
ENDBLK
5
113
330
10E
100
AcDbEntity
8
0
100
AcDbBlockEnd
0
BLOCK
5
114
330
10F
100
AcDbEntity
8
0
100
AcDbBlockBegin
2
*Paper_Space
70
0
10
0
20
0
30
0
3
*Paper_Space
1

0
ENDBLK
5
115
330
10F
100
AcDbEntity
8
0
100
AcDbBlockEnd
0
BLOCK
5
116
330
110
100
AcDbEntity
8
0
100
AcDbBlockBegin
2
PDF_FORM_53F38142_0
70
0
10
0
20
0
30
0
3
PDF_FORM_53F38142_0
1

0
HATCH
5
13A
330
110
100
AcDbEntity
8
PDF_1A80CC_35
62
142
420
1736908
370
35
100
AcDbHatch
10
0
20
0
30
0
210
0
220
0
230
1
2
SOLID
70
1
71
0
91
1
92
2
72
0
73
1
93
4
10
0
20
0
10
40
20
0
10
40
20
70
10
0
20
70
97
0
75
0
76
1
98
0
1001
REVECTOR
1000
{"id":"b0_0","source":{"kind":"path","ids":["p1-10"],"page":1,"operator":45,"ref":"925fcb08"},"semantic":{"class":null,"confidence":1,"method":"source"}}
0
HATCH
5
13B
330
110
100
AcDbEntity
8
PDF_FF4C1A_35
62
20
420
16731162
370
35
440
33554585
100
AcDbHatch
10
0
20
0
30
0
210
0
220
0
230
1
2
SOLID
70
1
71
0
91
1
92
2
72
0
73
1
93
4
10
15
20
10
10
55
20
10
10
55
20
80
10
15
20
80
97
0
75
0
76
1
98
0
1001
REVECTOR
1000
{"id":"b0_1","source":{"kind":"path","ids":["p1-11"],"page":1,"operator":48,"ref":"938ac366"},"semantic":{"class":null,"confidence":1,"method":"source"}}
0
ENDBLK
5
117
330
110
100
AcDbEntity
8
0
100
AcDbBlockEnd
0
BLOCK
5
118
330
111
100
AcDbEntity
8
0
100
AcDbBlockBegin
2
PDF_FORM_B2475DFD_1
70
0
10
0
20
0
30
0
3
PDF_FORM_B2475DFD_1
1

0
HATCH
5
13C
330
111
100
AcDbEntity
8
PDF_000000_35
62
250
420
0
370
35
100
AcDbHatch
10
0
20
0
30
0
210
0
220
0
230
1
2
SOLID
70
1
71
0
91
1
92
2
72
0
73
1
93
4
10
0
20
0
10
320
20
0
10
320
20
240
10
0
20
240
97
0
75
0
76
1
98
0
1001
REVECTOR
1000
{"id":"b1_0","source":{"kind":"path","ids":["p1-5"],"page":1,"operator":21,"ref":"22bb2105"},"semantic":{"class":null,"confidence":1,"method":"source"}}
0
HATCH
5
13D
330
111
100
AcDbEntity
8
PDF_FFFFFF_35
62
7
420
16777215
370
35
100
AcDbHatch
10
0
20
0
30
0
210
0
220
0
230
1
2
SOLID
70
1
71
0
91
1
92
2
72
0
73
1
93
4
10
170
20
135
10
215
20
135
10
215
20
215
10
170
20
215
97
0
75
0
76
1
98
0
1001
REVECTOR
1000
{"id":"b1_1","source":{"kind":"path","ids":["p1-6"],"page":1,"operator":23,"ref":"4215662c"},"semantic":{"class":null,"confidence":1,"method":"source"}}
0
HATCH
5
13E
330
111
100
AcDbEntity
8
PDF_808080_35
62
8
420
8421504
370
35
100
AcDbHatch
10
0
20
0
30
0
210
0
220
0
230
1
2
SOLID
70
1
71
0
91
1
92
2
72
0
73
1
93
4
10
215
20
135
10
295
20
135
10
295
20
215
10
215
20
215
97
0
75
0
76
1
98
0
1001
REVECTOR
1000
{"id":"b1_2","source":{"kind":"path","ids":["p1-7"],"page":1,"operator":25,"ref":"2754f087"},"semantic":{"class":null,"confidence":1,"method":"source"}}
0
ENDBLK
5
119
330
111
100
AcDbEntity
8
0
100
AcDbBlockEnd
0
ENDSEC
0
SECTION
2
ENTITIES
0
HATCH
5
130
330
10E
100
AcDbEntity
8
PDF_EDF0F5_35
62
7
420
15593717
370
35
100
AcDbHatch
10
0
20
0
30
0
210
0
220
0
230
1
2
SOLID
70
1
71
0
91
1
92
2
72
0
73
1
93
4
10
0
20
0
10
112.8888888889
20
0
10
112.8888888889
20
84.6666666667
10
0
20
84.6666666667
97
0
75
0
76
1
98
0
1001
REVECTOR
1000
{"id":"e1","source":{"kind":"path","ids":["p1-1"],"page":1,"operator":2,"ref":"797a4405"},"semantic":{"class":null,"confidence":1,"method":"source"}}
0
HATCH
5
131
330
10E
100
AcDbEntity
8
PDF_1A8CCC_35
62
142
420
1739980
370
35
100
AcDbHatch
10
0
20
0
30
0
210
0
220
0
230
1
2
SOLID
70
1
71
0
91
1
92
2
72
0
73
1
93
4
10
5.2916666667
20
47.625
10
47.625
20
47.625
10
47.625
20
79.375
10
5.2916666667
20
79.375
97
0
75
0
76
1
98
0
1001
REVECTOR
1000
{"id":"e2","source":{"kind":"path","ids":["p1-2"],"page":1,"operator":6,"ref":"0fcac9e0"},"semantic":{"class":null,"confidence":1,"method":"source"}}
0
HATCH
5
132
330
10E
100
AcDbEntity
8
PDF_CC334C_35
62
13
420
13382476
370
35
440
33554611
100
AcDbHatch
10
0
20
0
30
0
210
0
220
0
230
1
2
SOLID
70
1
71
0
91
1
92
2
72
0
73
1
93
4
10
21.1666666667
20
54.6805555556
10
63.5
20
54.6805555556
10
63.5
20
72.3194444444
10
21.1666666667
20
72.3194444444
97
0
75
0
76
1
98
0
1001
REVECTOR
1000
{"id":"e3","source":{"kind":"path","ids":["p1-3"],"page":1,"operator":9,"ref":"e2e7b892"},"semantic":{"class":null,"confidence":1,"method":"source"}}
0
INSERT
5
133
330
10E
100
AcDbEntity
8
PDF_000000_35
62
250
420
0
370
35
100
AcDbBlockReference
2
PDF_FORM_B2475DFD_1
10
0
20
0
30
0
41
0.3527777778
42
0.3527777778
43
1
50
0
1001
REVECTOR
1000
{"id":"e14","source":{"ids":["p1-5","p1-6","p1-7"],"page":1,"form":"form-1-0","ref":"4a12df2b"},"semantic":{"class":"form-xobject","confidence":1,"method":"source"}}
0
HATCH
5
134
330
10E
100
AcDbEntity
8
PDF_1AB266_35
62
112
420
1749606
370
35
100
AcDbHatch
10
0
20
0
30
0
210
0
220
0
230
1
2
SOLID
70
1
71
0
91
1
92
2
72
0
73
1
93
4
10
54.6805555556
20
47.625
10
104.0694444444
20
47.625
10
104.0694444444
20
75.8472222222
10
54.6805555556
20
75.8472222222
97
0
75
0
76
1
98
0
1001
REVECTOR
1000
{"id":"e7","source":{"kind":"path","ids":["p1-8"],"page":1,"operator":31,"ref":"8397d55c"},"semantic":{"class":null,"confidence":1,"method":"source"}}
0
INSERT
5
135
330
10E
100
AcDbEntity
8
PDF_1A80CC_35
62
142
420
1736908
370
35
100
AcDbBlockReference
2
PDF_FORM_53F38142_0
10
81.1388888889
20
7.0555555556
30
0
41
0.3527777778
42
0.3527777778
43
1
50
0
1001
REVECTOR
1000
{"id":"e13","source":{"ids":["p1-10","p1-11"],"page":1,"form":"form-1-1","ref":"31d5556f"},"semantic":{"class":"form-xobject","confidence":1,"method":"source"}}
0
HATCH
5
136
330
10E
100
AcDbEntity
8
PDF_0D33CC_35
62
162
420
865228
370
35
100
AcDbHatch
10
0
20
0
30
0
210
0
220
0
230
1
2
SOLID
70
1
71
0
91
1
92
2
72
0
73
1
93
4
10
0
20
31.75
10
51.1527777778
20
31.75
10
51.1527777778
20
45.1555555556
10
0
20
45.1555555556
97
0
75
0
76
1
98
0
1001
REVECTOR
1000
{"id":"e10","source":{"kind":"path","ids":["p1-13"],"page":1,"operator":62,"ref":"add8a1ba"},"semantic":{"class":null,"confidence":1,"method":"source"}}
0
TEXT
5
137
330
10E
100
AcDbEntity
8
PDF_000000_35
62
250
420
0
370
35
100
AcDbText
10
98.7777777778
20
35.2777777778
30
0
40
7.4083333333
1
A
50
0
41
1
7
RV_E81703FA
71
0
72
5
11
106.1861111111
21
35.2777777778
31
0
100
AcDbText
73
0
1001
REVECTOR
1000
{"id":"e11","source":{"kind":"text","ids":["p1-14"],"page":1,"operator":69,"ref":"7d804e41"},"semantic":{"class":null,"confidence":1,"method":"source"},"font":"Type3"}
0
LINE
5
138
330
10E
100
AcDbEntity
8
PDF_B200CC_53
62
212
420
11665612
370
53
100
AcDbLine
10
3.5277777778
20
3.5277777778
30
0
11
109.3611111111
21
81.1388888889
31
0
1001
REVECTOR
1000
{"id":"e12","source":{"kind":"path","ids":["p1-16"],"page":1,"operator":81,"ref":"f55034e8"},"semantic":{"class":null,"confidence":1,"method":"source"}}
0
IMAGE
5
139
330
10E
100
AcDbEntity
8
REVECTOR_APPEARANCE
62
7
420
16777215
370
0
100
AcDbRasterImage
90
0
10
0
20
-0.0881944444
30
0
11
0.1763888889
21
0
31
0
12
0
22
0.1763888889
32
0
13
641
23
481
340
141
70
11
280
0
281
50
282
50
283
0
360
142
71
1
91
2
14
-0.5
24
-0.5
14
640.5
24
480.5
290
0
1001
REVECTOR
1000
{"id":"appearance-d2c1ca1aaedab08b844d1af880deee542a0da3fc55cf5b98d31355f7c996d294","source":{"kind":"page-composite","raster":{"interpolate":false},"ids":[],"page":1,"ref":"7f307c15"},"semantic":{"class":"page-appearance","method":"sampled
1000
-reference","confidence":1,"exact":false}}
0
ENDSEC
0
SECTION
2
OBJECTS
0
DICTIONARY
5
109
330
0
100
AcDbDictionary
281
1
3
ACAD_GROUP
350
10A
3
ACAD_LAYOUT
350
10B
3
ACAD_IMAGE_DICT
350
13F
3
ACAD_IMAGE_VARS
350
140
0
DICTIONARY
5
10A
330
109
100
AcDbDictionary
281
1
0
DICTIONARY
5
10B
330
109
100
AcDbDictionary
281
1
3
Model
350
10C
3
Layout1
350
10D
0
LAYOUT
5
10C
330
10B
100
AcDbPlotSettings
1

2

4

6

40
0
41
0
42
0
43
0
46
0
47
0
48
0
49
0
44
112.9770833333
45
84.7548611111
140
112.9770833333
141
84.7548611111
142
1
143
1
70
1024
72
1
73
0
74
5
7

75
16
76
0
77
2
78
300
147
1
148
0
149
0
100
AcDbLayout
1
Model
70
1
71
0
10
0
20
0
11
112.9770833333
21
84.7548611111
12
0
22
0
32
0
14
0
24
-0.0881944444
34
0
15
113.0652777778
25
84.7548611111
35
0
146
0
13
0
23
0
33
0
16
1
26
0
36
0
17
0
27
1
37
0
76
0
330
10E
0
LAYOUT
5
10D
330
10B
100
AcDbPlotSettings
1

2

4

6

40
0
41
0
42
0
43
0
46
0
47
0
48
0
49
0
44
112.9770833333
45
84.7548611111
140
112.9770833333
141
84.7548611111
142
1
143
1
70
0
72
1
73
0
74
5
7

75
16
76
0
77
2
78
300
147
1
148
0
149
0
100
AcDbLayout
1
Layout1
70
1
71
1
10
0
20
0
11
112.9770833333
21
84.7548611111
12
0
22
0
32
0
14
0
24
-0.0881944444
34
0
15
113.0652777778
25
84.7548611111
35
0
146
0
13
0
23
0
33
0
16
1
26
0
36
0
17
0
27
1
37
0
76
0
330
10F
0
DICTIONARY
5
13F
330
109
100
AcDbDictionary
281
1
3
APPEARANCE_d2c1ca1aaedab08b844d1af880deee542a0da3fc55cf5b98d31355f7c996d294
350
141
0
RASTERVARIABLES
5
140
330
109
100
AcDbRasterVariables
90
0
70
0
71
1
72
0
0
IMAGEDEF
5
141
102
{ACAD_REACTORS
330
13F
330
142
102
}
330
13F
100
AcDbRasterImageDef
90
0
1
images/d2c1ca1aaedab08b844d1af880deee542a0da3fc55cf5b98d31355f7c996d294.png
10
641
20
481
11
1
21
1
280
1
281
0
1001
REVECTOR
1000
{"id":"APPEARANCE_d2c1ca1aaedab08b844d1af880deee542a0da3fc55cf5b98d31355f7c996d294","source":{"kind":"pdf-page-appearance","ids":[],"ref":"047fd58c"},"semantic":{}}
0
IMAGEDEF_REACTOR
5
142
330
139
100
AcDbRasterImageDefReactor
90
2
330
139
0
ENDSEC
0
EOF
