0
SECTION
2
HEADER
9
$ACADVER
1
AC1027
9
$ACADMAINTVER
70
0
9
$DWGCODEPAGE
3
ANSI_1252
9
$HANDSEED
5
12D
9
$INSBASE
10
0
20
0
30
0
9
$EXTMIN
10
7.0104
20
7.0894222222
30
0
9
$EXTMAX
10
119.888
20
84.7118222222
30
0
9
$LIMMIN
10
0
20
0
9
$LIMMAX
10
127
20
91.7222222222
9
$INSUNITS
70
4
9
$MEASUREMENT
70
1
9
$LUNITS
70
2
9
$LUPREC
70
4
9
$AUNITS
70
0
9
$AUPREC
70
4
9
$TILEMODE
70
1
9
$LTSCALE
40
1
9
$PSLTSCALE
70
0
9
$FILLMODE
70
1
9
$CLAYER
8
0
0
ENDSEC
0
SECTION
2
TABLES
0
TABLE
5
100
2
VPORT
100
AcDbSymbolTable
70
1
0
VPORT
5
121
330
100
100
AcDbSymbolTableRecord
100
AcDbViewportTableRecord
2
*Active
70
0
10
0
20
0
11
1
21
1
12
63.5
22
45.8611111111
13
0
23
0
14
10
24
10
15
10
25
10
16
0
26
0
36
1
17
0
27
0
37
0
40
91.7222222222
41
1.3846153846
42
50
43
0
44
0
50
0
51
0
71
0
72
100
73
1
74
3
75
0
76
0
77
0
78
0
0
ENDTAB
0
TABLE
5
101
2
LTYPE
100
AcDbSymbolTable
70
3
0
LTYPE
5
117
330
101
100
AcDbSymbolTableRecord
100
AcDbLinetypeTableRecord
2
BYBLOCK
70
0
3

72
65
73
0
40
0
0
LTYPE
5
118
330
101
100
AcDbSymbolTableRecord
100
AcDbLinetypeTableRecord
2
BYLAYER
70
0
3

72
65
73
0
40
0
0
LTYPE
5
119
330
101
100
AcDbSymbolTableRecord
100
AcDbLinetypeTableRecord
2
CONTINUOUS
70
0
3

72
65
73
0
40
0
0
ENDTAB
0
TABLE
5
102
2
LAYER
100
AcDbSymbolTable
70
4
0
LAYER
5
11A
330
102
100
AcDbSymbolTableRecord
100
AcDbLayerTableRecord
2
0
70
0
62
254
420
13819110
6
CONTINUOUS
290
1
370
-3
0
LAYER
5
11B
330
102
100
AcDbSymbolTableRecord
100
AcDbLayerTableRecord
2
PDF_000000_35
70
0
62
250
420
0
6
CONTINUOUS
290
1
370
-3
0
LAYER
5
11C
330
102
100
AcDbSymbolTableRecord
100
AcDbLayerTableRecord
2
OCR_TEXT
70
0
62
156
420
1321030
6
CONTINUOUS
290
1
370
-3
0
LAYER
5
11D
330
102
100
AcDbSymbolTableRecord
100
AcDbLayerTableRecord
2
RASTER_LINE_HYPOTHESES
70
0
62
250
420
0
6
CONTINUOUS
290
1
370
-3
0
ENDTAB
0
TABLE
5
103
2
STYLE
100
AcDbSymbolTable
70
3
0
STYLE
5
114
330
103
100
AcDbSymbolTableRecord
100
AcDbTextStyleTableRecord
2
STANDARD
70
0
40
0
41
1
50
0
71
0
42
2.5
3
txt
4

0
STYLE
5
115
330
103
100
AcDbSymbolTableRecord
100
AcDbTextStyleTableRecord
2
RV_BDCF0158
70
0
40
0
41
1
50
0
71
0
42
2.5
3
arial.ttf
4

0
STYLE
5
116
330
103
100
AcDbSymbolTableRecord
100
AcDbTextStyleTableRecord
2
RV_D44C12BC
70
0
40
0
41
1
50
0
71
0
42
2.5
3
arial.ttf
4

0
ENDTAB
0
TABLE
5
104
2
VIEW
100
AcDbSymbolTable
70
0
0
ENDTAB
0
TABLE
5
105
2
UCS
100
AcDbSymbolTable
70
0
0
ENDTAB
0
TABLE
5
106
2
APPID
100
AcDbSymbolTable
70
2
0
APPID
5
11E
330
106
100
AcDbSymbolTableRecord
100
AcDbRegAppTableRecord
2
ACAD
70
0
0
APPID
5
11F
330
106
100
AcDbSymbolTableRecord
100
AcDbRegAppTableRecord
2
REVECTOR
70
0
0
ENDTAB
0
TABLE
5
107
2
DIMSTYLE
100
AcDbSymbolTable
70
1
0
DIMSTYLE
105
120
330
107
100
AcDbSymbolTableRecord
100
AcDbDimStyleTableRecord
2
STANDARD
70
0
40
1
41
2.5
42
0.625
43
3.75
44
1.25
140
2.5
147
0.625
340
114
0
ENDTAB
0
TABLE
5
108
2
BLOCK_RECORD
100
AcDbSymbolTable
70
2
0
BLOCK_RECORD
5
10E
330
108
100
AcDbSymbolTableRecord
100
AcDbBlockTableRecord
2
*Model_Space
340
10C
70
4
280
1
281
0
0
BLOCK_RECORD
5
10F
330
108
100
AcDbSymbolTableRecord
100
AcDbBlockTableRecord
2
*Paper_Space
340
10D
70
4
280
1
281
0
0
ENDTAB
0
ENDSEC
0
SECTION
2
BLOCKS
0
BLOCK
5
110
330
10E
100
AcDbEntity
8
0
100
AcDbBlockBegin
2
*Model_Space
70
0
10
0
20
0
30
0
3
*Model_Space
1

0
ENDBLK
5
111
330
10E
100
AcDbEntity
8
0
100
AcDbBlockEnd
0
BLOCK
5
112
330
10F
100
AcDbEntity
8
0
100
AcDbBlockBegin
2
*Paper_Space
70
0
10
0
20
0
30
0
3
*Paper_Space
1

0
ENDBLK
5
113
330
10F
100
AcDbEntity
8
0
100
AcDbBlockEnd
0
ENDSEC
0
SECTION
2
ENTITIES
0
TEXT
5
122
330
10E
100
AcDbEntity
8
PDF_000000_35
62
250
420
0
370
35
100
AcDbText
10
14.1111111111
20
26.4583333333
30
0
40
5.0658888889
1
NATIVE-42
50
0
41
1
7
RV_BDCF0158
71
0
72
5
11
49.7910555556
21
26.4583333333
31
0
100
AcDbText
73
0
1001
REVECTOR
1000
{"id":"e1","source":{"kind":"text","ids":["p1-2"],"page":1,"operator":10,"ref":"3b75ce3a"},"semantic":{"class":null,"confidence":1,"method":"source"},"font":"Helvetica"}
0
TEXT
5
123
330
10E
100
AcDbEntity
8
OCR_TEXT
62
156
420
1321030
370
0
100
AcDbText
10
31.3944
20
72.3166222222
30
0
40
4.2672
1
P-101
50
0
41
1
7
RV_D44C12BC
71
0
72
5
11
46.4312
21
72.3166222222
31
0
100
AcDbText
73
0
1001
REVECTOR
1000
{"id":"e2","source":{"kind":"ocr","ocr":{"engine":"tesseract.js","version":"7.0.0","confidence":0.91,"box":[309,149,457,192],"pixelToPdf":[0.288,0,0,-0.288,0,260],"imageIds":["p1-1"],"regionId":"0","geometry":"estimated text metrics","font"
1000
:"substituted","tile":0,"clippedEdges":[],"deskew":null},"ids":["ocr-1-236038c2"],"page":1,"operator":-1,"ref":"4c7cc347"},"semantic":{"class":"ocr-text","confidence":0.91,"method":"ocr"},"font":"Arial"}
0
TEXT
5
124
330
10E
100
AcDbEntity
8
OCR_TEXT
62
156
420
1321030
370
0
100
AcDbText
10
13.8176
20
72.3166222222
30
0
40
4.1656
1
PUMP
50
0
41
1
7
RV_D44C12BC
71
0
72
5
11
28.8544
21
72.3166222222
31
0
100
AcDbText
73
0
1001
REVECTOR
1000
{"id":"e3","source":{"kind":"ocr","ocr":{"engine":"tesseract.js","version":"7.0.0","confidence":0.93,"box":[136,150,284,192],"pixelToPdf":[0.288,0,0,-0.288,0,260],"imageIds":["p1-1"],"regionId":"0","geometry":"estimated text metrics","font"
1000
:"substituted","tile":0,"clippedEdges":[],"deskew":null},"ids":["ocr-1-f588708d"],"page":1,"operator":-1,"ref":"f9f50df6"},"semantic":{"class":"ocr-text","confidence":0.93,"method":"ocr"},"font":"Arial"}
0
TEXT
5
125
330
10E
100
AcDbEntity
8
OCR_TEXT
62
156
420
1321030
370
0
100
AcDbText
10
13.8176
20
58.1942222222
30
0
40
4.2672
1
FLOW
50
0
41
1
7
RV_D44C12BC
71
0
72
5
11
29.2608
21
58.1942222222
31
0
100
AcDbText
73
0
1001
REVECTOR
1000
{"id":"e4","source":{"kind":"ocr","ocr":{"engine":"tesseract.js","version":"7.0.0","confidence":0.96,"box":[136,288,288,331],"pixelToPdf":[0.288,0,0,-0.288,0,260],"imageIds":["p1-1"],"regionId":"0","geometry":"estimated text metrics","font"
1000
:"substituted","tile":0,"clippedEdges":[],"deskew":null},"ids":["ocr-1-cd8055b6"],"page":1,"operator":-1,"ref":"6a69e5d5"},"semantic":{"class":"ocr-text","confidence":0.96,"method":"ocr"},"font":"Arial"}
0
TEXT
5
126
330
10E
100
AcDbEntity
8
OCR_TEXT
62
156
420
1321030
370
0
100
AcDbText
10
31.8008
20
58.1942222222
30
0
40
4.2672
1
120
50
0
41
1
7
RV_D44C12BC
71
0
72
5
11
41.656
21
58.1942222222
31
0
100
AcDbText
73
0
1001
REVECTOR
1000
{"id":"e5","source":{"kind":"ocr","ocr":{"engine":"tesseract.js","version":"7.0.0","confidence":0.96,"box":[313,288,410,331],"pixelToPdf":[0.288,0,0,-0.288,0,260],"imageIds":["p1-1"],"regionId":"0","geometry":"estimated text metrics","font"
1000
:"substituted","tile":0,"clippedEdges":[],"deskew":null},"ids":["ocr-1-6a3d70c7"],"page":1,"operator":-1,"ref":"6a69f5ac"},"semantic":{"class":"ocr-text","confidence":0.96,"method":"ocr"},"font":"Arial"}
0
TEXT
5
127
330
10E
100
AcDbEntity
8
OCR_TEXT
62
156
420
1321030
370
0
100
AcDbText
10
44.3992
20
58.1942222222
30
0
40
4.1656
1
L/MIN
50
0
41
1
7
RV_D44C12BC
71
0
72
5
11
59.0296
21
58.1942222222
31
0
100
AcDbText
73
0
1001
REVECTOR
1000
{"id":"e6","source":{"kind":"ocr","ocr":{"engine":"tesseract.js","version":"7.0.0","confidence":0.95,"box":[437,289,581,335],"pixelToPdf":[0.288,0,0,-0.288,0,260],"imageIds":["p1-1"],"regionId":"0","geometry":"estimated text metrics","font"
1000
:"substituted","tile":0,"clippedEdges":[],"deskew":null},"ids":["ocr-1-910f28c0"],"page":1,"operator":-1,"ref":"0f26e342"},"semantic":{"class":"ocr-text","confidence":0.95,"method":"ocr"},"font":"Arial"}
0
LINE
5
128
330
10E
100
AcDbEntity
8
RASTER_LINE_HYPOTHESES
62
250
420
0
370
60
100
AcDbLine
10
7.0104
20
84.4578222222
30
0
11
119.888
21
84.4578222222
31
0
1001
REVECTOR
1000
{"id":"e7","source":{"kind":"path","rasterInference":{"method":"axis-runs","confidence":0.8},"ids":["raster-line-0-0"],"page":1,"operator":-1,"ref":"db812bdd"},"semantic":{"class":"raster-line","confidence":0.8,"method":"raster-inference"}}
0
LINE
5
129
330
10E
100
AcDbEntity
8
RASTER_LINE_HYPOTHESES
62
250
420
0
370
50
100
AcDbLine
10
7.0104
20
42.3446222222
30
0
11
119.888
21
42.3446222222
31
0
1001
REVECTOR
1000
{"id":"e8","source":{"kind":"path","rasterInference":{"method":"axis-runs","confidence":0.8},"ids":["raster-line-0-1"],"page":1,"operator":-1,"ref":"6f122ee0"},"semantic":{"class":"raster-line","confidence":0.8,"method":"raster-inference"}}
0
LINE
5
12A
330
10E
100
AcDbEntity
8
RASTER_LINE_HYPOTHESES
62
250
420
0
370
50
100
AcDbLine
10
7.0104
20
7.2926222222
30
0
11
119.888
21
7.2926222222
31
0
1001
REVECTOR
1000
{"id":"e9","source":{"kind":"path","rasterInference":{"method":"axis-runs","confidence":0.8},"ids":["raster-line-0-2"],"page":1,"operator":-1,"ref":"c75dc92f"},"semantic":{"class":"raster-line","confidence":0.8,"method":"raster-inference"}}
0
LINE
5
12B
330
10E
100
AcDbEntity
8
RASTER_LINE_HYPOTHESES
62
250
420
0
370
60
100
AcDbLine
10
7.2644
20
84.7118222222
30
0
11
7.2644
21
7.0894222222
31
0
1001
REVECTOR
1000
{"id":"e10","source":{"kind":"path","rasterInference":{"method":"axis-runs","confidence":0.8},"ids":["raster-line-0-3"],"page":1,"operator":-1,"ref":"2fcba542"},"semantic":{"class":"raster-line","confidence":0.8,"method":"raster-inference"}
1000
}
0
LINE
5
12C
330
10E
100
AcDbEntity
8
RASTER_LINE_HYPOTHESES
62
250
420
0
370
50
100
AcDbLine
10
119.6848
20
84.7118222222
30
0
11
119.6848
21
7.0894222222
31
0
1001
REVECTOR
1000
{"id":"e11","source":{"kind":"path","rasterInference":{"method":"axis-runs","confidence":0.8},"ids":["raster-line-0-4"],"page":1,"operator":-1,"ref":"21317009"},"semantic":{"class":"raster-line","confidence":0.8,"method":"raster-inference"}
1000
}
0
ENDSEC
0
SECTION
2
OBJECTS
0
DICTIONARY
5
109
330
0
100
AcDbDictionary
281
1
3
ACAD_GROUP
350
10A
3
ACAD_LAYOUT
350
10B
0
DICTIONARY
5
10A
330
109
100
AcDbDictionary
281
1
0
DICTIONARY
5
10B
330
109
100
AcDbDictionary
281
1
3
Model
350
10C
3
Layout1
350
10D
0
LAYOUT
5
10C
330
10B
100
AcDbPlotSettings
1

2

4

6

40
0
41
0
42
0
43
0
46
0
47
0
48
0
49
0
44
127
45
91.7222222222
140
127
141
91.7222222222
142
1
143
1
70
1024
72
1
73
0
74
5
7

75
16
76
0
77
2
78
300
147
1
148
0
149
0
100
AcDbLayout
1
Model
70
1
71
0
10
0
20
0
11
127
21
91.7222222222
12
0
22
0
32
0
14
7.0104
24
7.0894222222
34
0
15
119.888
25
84.7118222222
35
0
146
0
13
0
23
0
33
0
16
1
26
0
36
0
17
0
27
1
37
0
76
0
330
10E
0
LAYOUT
5
10D
330
10B
100
AcDbPlotSettings
1

2

4

6

40
0
41
0
42
0
43
0
46
0
47
0
48
0
49
0
44
127
45
91.7222222222
140
127
141
91.7222222222
142
1
143
1
70
0
72
1
73
0
74
5
7

75
16
76
0
77
2
78
300
147
1
148
0
149
0
100
AcDbLayout
1
Layout1
70
1
71
1
10
0
20
0
11
127
21
91.7222222222
12
0
22
0
32
0
14
7.0104
24
7.0894222222
34
0
15
119.888
25
84.7118222222
35
0
146
0
13
0
23
0
33
0
16
1
26
0
36
0
17
0
27
1
37
0
76
0
330
10F
0
ENDSEC
0
EOF
