0
SECTION
2
HEADER
9
$ACADVER
1
AC1032
9
$ACADMAINTVER
70
0
9
$DWGCODEPAGE
3
ANSI_1252
9
$HANDSEED
5
125
9
$INSBASE
10
0
20
0
30
0
9
$EXTMIN
10
38.7922008784
20
28.558441326
30
0
9
$EXTMAX
10
60.9198237579
20
52.4763990258
30
0
9
$LIMMIN
10
0
20
0
9
$LIMMAX
10
109.8902777778
20
69.1444444444
9
$INSUNITS
70
4
9
$MEASUREMENT
70
1
9
$LUNITS
70
2
9
$LUPREC
70
4
9
$AUNITS
70
0
9
$AUPREC
70
4
9
$TILEMODE
70
1
9
$LTSCALE
40
1
9
$PSLTSCALE
70
0
9
$FILLMODE
70
1
9
$CLAYER
8
0
0
ENDSEC
0
SECTION
2
TABLES
0
TABLE
5
100
2
VPORT
100
AcDbSymbolTable
70
1
0
VPORT
5
11E
330
100
100
AcDbSymbolTableRecord
100
AcDbViewportTableRecord
2
*Active
70
0
10
0
20
0
11
1
21
1
12
54.9451388889
22
34.5722222222
13
0
23
0
14
10
24
10
15
10
25
10
16
0
26
0
36
1
17
0
27
0
37
0
40
69.1444444444
41
1.5892857143
42
50
43
0
44
0
50
0
51
0
71
0
72
100
73
1
74
3
75
0
76
0
77
0
78
0
0
ENDTAB
0
TABLE
5
101
2
LTYPE
100
AcDbSymbolTable
70
3
0
LTYPE
5
116
330
101
100
AcDbSymbolTableRecord
100
AcDbLinetypeTableRecord
2
BYBLOCK
70
0
3

72
65
73
0
40
0
0
LTYPE
5
117
330
101
100
AcDbSymbolTableRecord
100
AcDbLinetypeTableRecord
2
BYLAYER
70
0
3

72
65
73
0
40
0
0
LTYPE
5
118
330
101
100
AcDbSymbolTableRecord
100
AcDbLinetypeTableRecord
2
CONTINUOUS
70
0
3

72
65
73
0
40
0
0
ENDTAB
0
TABLE
5
102
2
LAYER
100
AcDbSymbolTable
70
2
0
LAYER
5
119
330
102
100
AcDbSymbolTableRecord
100
AcDbLayerTableRecord
2
0
70
0
62
254
420
13819110
6
CONTINUOUS
290
1
370
-3
0
LAYER
5
11A
330
102
100
AcDbSymbolTableRecord
100
AcDbLayerTableRecord
2
OCR_TEXT
70
0
62
159
420
1386566
6
CONTINUOUS
290
1
370
-3
0
ENDTAB
0
TABLE
5
103
2
STYLE
100
AcDbSymbolTable
70
2
0
STYLE
5
114
330
103
100
AcDbSymbolTableRecord
100
AcDbTextStyleTableRecord
2
STANDARD
70
0
40
0
41
1
50
0
71
0
42
2.5
3
txt
4

0
STYLE
5
115
330
103
100
AcDbSymbolTableRecord
100
AcDbTextStyleTableRecord
2
RV_D44C12BC
70
0
40
0
41
1
50
0
71
0
42
2.5
3
arial.ttf
4

0
ENDTAB
0
TABLE
5
104
2
VIEW
100
AcDbSymbolTable
70
0
0
ENDTAB
0
TABLE
5
105
2
UCS
100
AcDbSymbolTable
70
0
0
ENDTAB
0
TABLE
5
106
2
APPID
100
AcDbSymbolTable
70
2
0
APPID
5
11B
330
106
100
AcDbSymbolTableRecord
100
AcDbRegAppTableRecord
2
ACAD
70
0
0
APPID
5
11C
330
106
100
AcDbSymbolTableRecord
100
AcDbRegAppTableRecord
2
REVECTOR
70
0
0
ENDTAB
0
TABLE
5
107
2
DIMSTYLE
100
AcDbSymbolTable
70
1
0
DIMSTYLE
105
11D
330
107
100
AcDbSymbolTableRecord
100
AcDbDimStyleTableRecord
2
STANDARD
70
0
40
1
41
2.5
42
0.625
43
3.75
44
1.25
140
2.5
147
0.625
340
114
0
ENDTAB
0
TABLE
5
108
2
BLOCK_RECORD
100
AcDbSymbolTable
70
2
0
BLOCK_RECORD
5
10E
330
108
100
AcDbSymbolTableRecord
100
AcDbBlockTableRecord
2
*Model_Space
340
10C
70
4
280
1
281
0
0
BLOCK_RECORD
5
10F
330
108
100
AcDbSymbolTableRecord
100
AcDbBlockTableRecord
2
*Paper_Space
340
10D
70
4
280
1
281
0
0
ENDTAB
0
ENDSEC
0
SECTION
2
BLOCKS
0
BLOCK
5
110
330
10E
100
AcDbEntity
8
0
100
AcDbBlockBegin
2
*Model_Space
70
0
10
0
20
0
30
0
3
*Model_Space
1

0
ENDBLK
5
111
330
10E
100
AcDbEntity
8
0
100
AcDbBlockEnd
0
BLOCK
5
112
330
10F
100
AcDbEntity
8
0
100
AcDbBlockBegin
2
*Paper_Space
70
0
10
0
20
0
30
0
3
*Paper_Space
1

0
ENDBLK
5
113
330
10F
100
AcDbEntity
8
0
100
AcDbBlockEnd
0
ENDSEC
0
SECTION
2
ENTITIES
0
TEXT
5
11F
330
10E
100
AcDbEntity
8
OCR_TEXT
62
159
420
1386566
370
0
100
AcDbText
10
51.4129043002
20
49.1748615687
30
0
40
2.6458333333
1
P-101
50
-3.9
41
1
7
RV_D44C12BC
71
0
72
5
11
60.7398666347
21
48.5390130667
31
0
100
AcDbText
73
0
1001
REVECTOR
1000
{"id":"e1","source":{"kind":"ocr","ocr":{"engine":"tesseract.js","version":"7.0.0","confidence":0.92,"box":[597,241,703,272],"pixelToPdf":[0.24942106970890132,-0.017003822666312042,-0.017003822666312042,-0.24942106970890132,1.44102384657265
1000
77,217.13770040664292],"imageIds":["p1-1"],"regionId":"0","geometry":"estimated text metrics","font":"substituted","tile":1,"clippedEdges":[],"deskew":{"region":0,"angle":3.9,"confidence":0.21423589479671712,"samples":5966,"reason":"project
1000
ion-peak","scale":1}},"ids":["ocr-1-94b8b16b"],"page":1,"operator":-1,"ref":"a5fd3a19"},"semantic":{"class":"ocr-text","confidence":0.92,"method":"ocr"},"font":"Arial"}
0
TEXT
5
120
330
10E
100
AcDbEntity
8
OCR_TEXT
62
156
420
1321030
370
0
100
AcDbText
10
40.4141279623
20
49.9246829155
30
0
40
2.5576388889
1
PUMP
50
-3.9
41
1
7
RV_D44C12BC
71
0
72
5
11
49.8290805075
21
49.2828358426
31
0
100
AcDbText
73
0
1001
REVECTOR
1000
{"id":"e2","source":{"kind":"ocr","ocr":{"engine":"tesseract.js","version":"7.0.0","confidence":0.91,"box":[472,242,579,271],"pixelToPdf":[0.24942106970890132,-0.017003822666312042,-0.017003822666312042,-0.24942106970890132,1.44102384657265
1000
77,217.13770040664292],"imageIds":["p1-1"],"regionId":"0","geometry":"estimated text metrics","font":"substituted","tile":0,"clippedEdges":[],"deskew":{"region":0,"angle":3.9,"confidence":0.21423589479671712,"samples":5966,"reason":"project
1000
ion-peak","scale":1}},"ids":["ocr-1-e0c5128b"],"page":1,"operator":-1,"ref":"0947114f"},"semantic":{"class":"ocr-text","confidence":0.91,"method":"ocr"},"font":"Arial"}
0
TEXT
5
121
330
10E
100
AcDbEntity
8
OCR_TEXT
62
156
420
1321030
370
0
100
AcDbText
10
39.7542851772
20
40.2457597381
30
0
40
2.6458333333
1
FLOW
50
-3.9
41
1
7
RV_D44C12BC
71
0
72
5
11
49.4332083545
21
39.585916953
31
0
100
AcDbText
73
0
1001
REVECTOR
1000
{"id":"e3","source":{"kind":"ocr","ocr":{"engine":"tesseract.js","version":"7.0.0","confidence":0.96,"box":[472,351,582,382],"pixelToPdf":[0.24942106970890132,-0.017003822666312042,-0.017003822666312042,-0.24942106970890132,1.44102384657265
1000
77,217.13770040664292],"imageIds":["p1-1"],"regionId":"0","geometry":"estimated text metrics","font":"substituted","tile":0,"clippedEdges":[],"deskew":{"region":0,"angle":3.9,"confidence":0.21423589479671712,"samples":5966,"reason":"project
1000
ion-peak","scale":1}},"ids":["ocr-1-afef35c1"],"page":1,"operator":-1,"ref":"58c94161"},"semantic":{"class":"ocr-text","confidence":0.96,"method":"ocr"},"font":"Arial"}
0
TEXT
5
122
330
10E
100
AcDbEntity
8
OCR_TEXT
62
166
420
465466
370
0
100
AcDbText
10
51.1050223579
20
39.4719441083
30
0
40
2.6458333333
1
120
50
-3.9
41
1
7
RV_D44C12BC
71
0
72
5
11
57.1763468964
21
39.0580427249
31
0
100
AcDbText
73
0
1001
REVECTOR
1000
{"id":"e4","source":{"kind":"ocr","ocr":{"engine":"tesseract.js","version":"7.0.0","confidence":0.95,"box":[601,351,670,382],"pixelToPdf":[0.24942106970890132,-0.017003822666312042,-0.017003822666312042,-0.24942106970890132,1.44102384657265
1000
77,217.13770040664292],"imageIds":["p1-1"],"regionId":"0","geometry":"estimated text metrics","font":"substituted","tile":1,"clippedEdges":[],"deskew":{"region":0,"angle":3.9,"confidence":0.21423589479671712,"samples":5966,"reason":"project
1000
ion-peak","scale":1}},"ids":["ocr-1-f94c87c4"],"page":1,"operator":-1,"ref":"cd77d2bf"},"semantic":{"class":"ocr-text","confidence":0.95,"method":"ocr"},"font":"Arial"}
0
TEXT
5
123
330
10E
100
AcDbEntity
8
OCR_TEXT
62
156
420
1321030
370
0
100
AcDbText
10
50.7971404155
20
29.7690266479
30
0
40
2.6458333333
1
OPEN
50
-3.9
41
1
7
RV_D44C12BC
71
0
72
5
11
60.0361125393
21
29.1391767166
31
0
100
AcDbText
73
0
1001
REVECTOR
1000
{"id":"e5","source":{"kind":"ocr","ocr":{"engine":"tesseract.js","version":"7.0.0","confidence":0.96,"box":[605,461,710,492],"pixelToPdf":[0.24942106970890132,-0.017003822666312042,-0.017003822666312042,-0.24942106970890132,1.44102384657265
1000
77,217.13770040664292],"imageIds":["p1-1"],"regionId":"0","geometry":"estimated text metrics","font":"substituted","tile":1,"clippedEdges":[],"deskew":{"region":0,"angle":3.9,"confidence":0.21423589479671712,"samples":5966,"reason":"project
1000
ion-peak","scale":1}},"ids":["ocr-1-88ecef48"],"page":1,"operator":-1,"ref":"630a5228"},"semantic":{"class":"ocr-text","confidence":0.96,"method":"ocr"},"font":"Arial"}
0
TEXT
5
124
330
10E
100
AcDbEntity
8
OCR_TEXT
62
156
420
1321030
370
0
100
AcDbText
10
38.83047176
20
30.5848322731
30
0
40
2.5576388889
1
VALVE
50
-3.9
41
1
7
RV_D44C12BC
71
0
72
5
11
49.3013068336
21
29.871002351
31
0
100
AcDbText
73
0
1001
REVECTOR
1000
{"id":"e6","source":{"kind":"ocr","ocr":{"engine":"tesseract.js","version":"7.0.0","confidence":0.95,"box":[469,462,588,492],"pixelToPdf":[0.24942106970890132,-0.017003822666312042,-0.017003822666312042,-0.24942106970890132,1.44102384657265
1000
77,217.13770040664292],"imageIds":["p1-1"],"regionId":"0","geometry":"estimated text metrics","font":"substituted","tile":0,"clippedEdges":[],"deskew":{"region":0,"angle":3.9,"confidence":0.21423589479671712,"samples":5966,"reason":"project
1000
ion-peak","scale":1}},"ids":["ocr-1-5d617c62"],"page":1,"operator":-1,"ref":"2ec33fe3"},"semantic":{"class":"ocr-text","confidence":0.95,"method":"ocr"},"font":"Arial"}
0
ENDSEC
0
SECTION
2
OBJECTS
0
DICTIONARY
5
109
330
0
100
AcDbDictionary
281
1
3
ACAD_GROUP
350
10A
3
ACAD_LAYOUT
350
10B
0
DICTIONARY
5
10A
330
109
100
AcDbDictionary
281
1
0
DICTIONARY
5
10B
330
109
100
AcDbDictionary
281
1
3
Model
350
10C
3
Layout1
350
10D
0
LAYOUT
5
10C
330
10B
100
AcDbPlotSettings
1

2

4

6

40
0
41
0
42
0
43
0
46
0
47
0
48
0
49
0
44
109.8902777778
45
69.1444444444
140
109.8902777778
141
69.1444444444
142
1
143
1
70
1024
72
1
73
0
74
5
7

75
16
76
0
77
2
78
300
147
1
148
0
149
0
100
AcDbLayout
1
Model
70
1
71
0
10
0
20
0
11
109.8902777778
21
69.1444444444
12
0
22
0
32
0
14
38.7922008784
24
28.558441326
34
0
15
60.9198237579
25
52.4763990258
35
0
146
0
13
0
23
0
33
0
16
1
26
0
36
0
17
0
27
1
37
0
76
0
330
10E
0
LAYOUT
5
10D
330
10B
100
AcDbPlotSettings
1

2

4

6

40
0
41
0
42
0
43
0
46
0
47
0
48
0
49
0
44
109.8902777778
45
69.1444444444
140
109.8902777778
141
69.1444444444
142
1
143
1
70
0
72
1
73
0
74
5
7

75
16
76
0
77
2
78
300
147
1
148
0
149
0
100
AcDbLayout
1
Layout1
70
1
71
1
10
0
20
0
11
109.8902777778
21
69.1444444444
12
0
22
0
32
0
14
38.7922008784
24
28.558441326
34
0
15
60.9198237579
25
52.4763990258
35
0
146
0
13
0
23
0
33
0
16
1
26
0
36
0
17
0
27
1
37
0
76
0
330
10F
0
ENDSEC
0
EOF
