0
SECTION
2
HEADER
9
$ACADVER
1
AC1015
9
$ACADMAINTVER
70
0
9
$DWGCODEPAGE
3
ANSI_1252
9
$HANDSEED
5
13B
9
$INSBASE
10
0
20
0
30
0
9
$EXTMIN
10
0
20
0
30
0
9
$EXTMAX
10
440
20
600
30
0
9
$LIMMIN
10
0
20
0
9
$LIMMAX
10
440
20
600
9
$INSUNITS
70
0
9
$MEASUREMENT
70
1
9
$LUNITS
70
2
9
$LUPREC
70
4
9
$AUNITS
70
0
9
$AUPREC
70
4
9
$TILEMODE
70
1
9
$LTSCALE
40
1
9
$PSLTSCALE
70
0
9
$FILLMODE
70
1
9
$CLAYER
8
0
0
ENDSEC
0
SECTION
2
CLASSES
0
CLASS
1
IMAGE
2
AcDbRasterImage
3
ISM
90
127
91
1
280
0
281
1
0
CLASS
1
IMAGEDEF
2
AcDbRasterImageDef
3
ISM
90
0
91
1
280
0
281
0
0
CLASS
1
IMAGEDEF_REACTOR
2
AcDbRasterImageDefReactor
3
ISM
90
0
91
1
280
0
281
0
0
CLASS
1
RASTERVARIABLES
2
AcDbRasterVariables
3
ISM
90
0
91
1
280
0
281
0
0
ENDSEC
0
SECTION
2
TABLES
0
TABLE
5
100
2
VPORT
100
AcDbSymbolTable
70
1
0
VPORT
5
129
330
100
100
AcDbSymbolTableRecord
100
AcDbViewportTableRecord
2
*Active
70
0
10
0
20
0
11
1
21
1
12
220
22
300
13
0
23
0
14
10
24
10
15
10
25
10
16
0
26
0
36
1
17
0
27
0
37
0
40
600
41
0.7333333333
42
50
43
0
44
0
50
0
51
0
71
0
72
100
73
1
74
3
75
0
76
0
77
0
78
0
0
ENDTAB
0
TABLE
5
101
2
LTYPE
100
AcDbSymbolTable
70
3
0
LTYPE
5
116
330
101
100
AcDbSymbolTableRecord
100
AcDbLinetypeTableRecord
2
BYBLOCK
70
0
3

72
65
73
0
40
0
0
LTYPE
5
117
330
101
100
AcDbSymbolTableRecord
100
AcDbLinetypeTableRecord
2
BYLAYER
70
0
3

72
65
73
0
40
0
0
LTYPE
5
118
330
101
100
AcDbSymbolTableRecord
100
AcDbLinetypeTableRecord
2
CONTINUOUS
70
0
3

72
65
73
0
40
0
0
ENDTAB
0
TABLE
5
102
2
LAYER
100
AcDbSymbolTable
70
13
0
LAYER
5
119
330
102
100
AcDbSymbolTableRecord
100
AcDbLayerTableRecord
2
0
70
0
62
-254
6
CONTINUOUS
290
1
370
-3
0
LAYER
5
11A
330
102
100
AcDbSymbolTableRecord
100
AcDbLayerTableRecord
2
PDF_EDF0F5_100
70
0
62
-7
6
CONTINUOUS
290
1
370
-3
0
LAYER
5
11B
330
102
100
AcDbSymbolTableRecord
100
AcDbLayerTableRecord
2
PDF_1A8CCC_100
70
0
62
-142
6
CONTINUOUS
290
1
370
-3
0
LAYER
5
11C
330
102
100
AcDbSymbolTableRecord
100
AcDbLayerTableRecord
2
PDF_CC334C_100
70
0
62
-13
6
CONTINUOUS
290
1
370
-3
0
LAYER
5
11D
330
102
100
AcDbSymbolTableRecord
100
AcDbLayerTableRecord
2
PDF_000000_100
70
0
62
-250
6
CONTINUOUS
290
1
370
-3
0
LAYER
5
11E
330
102
100
AcDbSymbolTableRecord
100
AcDbLayerTableRecord
2
PDF_FFFFFF_100
70
0
62
-7
6
CONTINUOUS
290
1
370
-3
0
LAYER
5
11F
330
102
100
AcDbSymbolTableRecord
100
AcDbLayerTableRecord
2
PDF_808080_100
70
0
62
-8
6
CONTINUOUS
290
1
370
-3
0
LAYER
5
120
330
102
100
AcDbSymbolTableRecord
100
AcDbLayerTableRecord
2
PDF_1AB266_100
70
0
62
-112
6
CONTINUOUS
290
1
370
-3
0
LAYER
5
121
330
102
100
AcDbSymbolTableRecord
100
AcDbLayerTableRecord
2
PDF_1A80CC_100
70
0
62
-142
6
CONTINUOUS
290
1
370
-3
0
LAYER
5
122
330
102
100
AcDbSymbolTableRecord
100
AcDbLayerTableRecord
2
PDF_FF4C1A_100
70
0
62
-20
6
CONTINUOUS
290
1
370
-3
0
LAYER
5
123
330
102
100
AcDbSymbolTableRecord
100
AcDbLayerTableRecord
2
PDF_0D33CC_100
70
0
62
-162
6
CONTINUOUS
290
1
370
-3
0
LAYER
5
124
330
102
100
AcDbSymbolTableRecord
100
AcDbLayerTableRecord
2
PDF_B200CC_150
70
0
62
-212
6
CONTINUOUS
290
1
370
-3
0
LAYER
5
125
330
102
100
AcDbSymbolTableRecord
100
AcDbLayerTableRecord
2
REVECTOR_APPEARANCE
70
0
62
7
6
CONTINUOUS
290
1
370
-3
0
ENDTAB
0
TABLE
5
103
2
STYLE
100
AcDbSymbolTable
70
2
0
STYLE
5
114
330
103
100
AcDbSymbolTableRecord
100
AcDbTextStyleTableRecord
2
STANDARD
70
0
40
0
41
1
50
0
71
0
42
2.5
3
txt
4

0
STYLE
5
115
330
103
100
AcDbSymbolTableRecord
100
AcDbTextStyleTableRecord
2
RV_E81703FA
70
0
40
0
41
1
50
0
71
0
42
2.5
3
Type3.ttf
4

0
ENDTAB
0
TABLE
5
104
2
VIEW
100
AcDbSymbolTable
70
0
0
ENDTAB
0
TABLE
5
105
2
UCS
100
AcDbSymbolTable
70
0
0
ENDTAB
0
TABLE
5
106
2
APPID
100
AcDbSymbolTable
70
2
0
APPID
5
126
330
106
100
AcDbSymbolTableRecord
100
AcDbRegAppTableRecord
2
ACAD
70
0
0
APPID
5
127
330
106
100
AcDbSymbolTableRecord
100
AcDbRegAppTableRecord
2
REVECTOR
70
0
0
ENDTAB
0
TABLE
5
107
2
DIMSTYLE
100
AcDbSymbolTable
70
1
0
DIMSTYLE
105
128
330
107
100
AcDbSymbolTableRecord
100
AcDbDimStyleTableRecord
2
STANDARD
70
0
40
1
41
2.5
42
0.625
43
3.75
44
1.25
140
2.5
147
0.625
340
114
0
ENDTAB
0
TABLE
5
108
2
BLOCK_RECORD
100
AcDbSymbolTable
70
2
0
BLOCK_RECORD
5
10E
330
108
100
AcDbSymbolTableRecord
100
AcDbBlockTableRecord
2
*Model_Space
340
10C
70
0
280
1
281
0
0
BLOCK_RECORD
5
10F
330
108
100
AcDbSymbolTableRecord
100
AcDbBlockTableRecord
2
*Paper_Space
340
10D
70
0
280
1
281
0
0
ENDTAB
0
ENDSEC
0
SECTION
2
BLOCKS
0
BLOCK
5
110
330
10E
100
AcDbEntity
8
0
100
AcDbBlockBegin
2
*Model_Space
70
0
10
0
20
0
30
0
3
*Model_Space
1

0
ENDBLK
5
111
330
10E
100
AcDbEntity
8
0
100
AcDbBlockEnd
0
BLOCK
5
112
330
10F
100
AcDbEntity
8
0
100
AcDbBlockBegin
2
*Paper_Space
70
0
10
0
20
0
30
0
3
*Paper_Space
1

0
ENDBLK
5
113
330
10F
100
AcDbEntity
8
0
100
AcDbBlockEnd
0
ENDSEC
0
SECTION
2
ENTITIES
0
HATCH
5
12A
330
10E
100
AcDbEntity
8
PDF_EDF0F5_100
62
7
370
70
100
AcDbHatch
10
0
20
0
30
0
210
0
220
0
230
1
2
SOLID
70
1
71
0
91
1
92
2
72
0
73
1
93
4
10
0
20
0
10
440
20
0
10
440
20
600
10
0
20
600
97
0
75
0
76
1
98
0
1001
REVECTOR
1000
{"id":"e1","source":{"kind":"path","ids":["p2-1"],"page":2,"operator":2,"ref":"6b91280b"},"semantic":{"class":null,"confidence":1,"method":"source"}}
0
HATCH
5
12B
330
10E
100
AcDbEntity
8
PDF_1A8CCC_100
62
142
370
70
100
AcDbHatch
10
0
20
0
30
0
210
0
220
0
230
1
2
SOLID
70
1
71
0
91
1
92
2
72
0
73
1
93
4
10
249.5
20
590.5
10
249.5
20
350.5
10
429.5
20
350.5
10
429.5
20
590.5
97
0
75
0
76
1
98
0
1001
REVECTOR
1000
{"id":"e2","source":{"kind":"path","ids":["p2-2"],"page":2,"operator":6,"ref":"51cf9ae6"},"semantic":{"class":null,"confidence":1,"method":"source"}}
0
HATCH
5
12C
330
10E
100
AcDbEntity
8
PDF_CC334C_100
62
13
370
70
100
AcDbHatch
10
0
20
0
30
0
210
0
220
0
230
1
2
SOLID
70
1
71
0
91
1
92
2
72
0
73
1
93
4
10
289.5
20
500.5
10
289.5
20
260.5
10
389.5
20
260.5
10
389.5
20
500.5
97
0
75
0
76
1
98
0
1001
REVECTOR
1000
{"id":"e3","source":{"kind":"path","ids":["p2-3"],"page":2,"operator":9,"ref":"50ecfdf4"},"semantic":{"class":null,"confidence":1,"method":"source"}}
0
HATCH
5
12D
330
10E
100
AcDbEntity
8
PDF_000000_100
62
250
370
70
100
AcDbHatch
10
0
20
0
30
0
210
0
220
0
230
1
2
SOLID
70
1
71
0
91
1
92
2
72
0
73
1
93
4
10
0
20
0
10
440
20
0
10
440
20
600
10
0
20
600
97
0
75
0
76
1
98
0
1001
REVECTOR
1000
{"id":"e4","source":{"kind":"path","ids":["p2-5"],"page":2,"operator":21,"ref":"1222be36"},"semantic":{"class":null,"confidence":1,"method":"source"}}
0
HATCH
5
12E
330
10E
100
AcDbEntity
8
PDF_FFFFFF_100
62
7
370
70
100
AcDbHatch
10
0
20
0
30
0
210
0
220
0
230
1
2
SOLID
70
1
71
0
91
1
92
2
72
0
73
1
93
4
10
249.5
20
280.5
10
249.5
20
190.5
10
409.5
20
190.5
10
409.5
20
280.5
97
0
75
0
76
1
98
0
1001
REVECTOR
1000
{"id":"e5","source":{"kind":"path","ids":["p2-6"],"page":2,"operator":23,"ref":"5a34bdd3"},"semantic":{"class":null,"confidence":1,"method":"source"}}
0
HATCH
5
12F
330
10E
100
AcDbEntity
8
PDF_808080_100
62
8
370
70
100
AcDbHatch
10
0
20
0
30
0
210
0
220
0
230
1
2
SOLID
70
1
71
0
91
1
92
2
72
0
73
1
93
4
10
249.5
20
190.5
10
249.5
20
30.5
10
409.5
20
30.5
10
409.5
20
190.5
97
0
75
0
76
1
98
0
1001
REVECTOR
1000
{"id":"e6","source":{"kind":"path","ids":["p2-7"],"page":2,"operator":25,"ref":"288abf24"},"semantic":{"class":null,"confidence":1,"method":"source"}}
0
HATCH
5
130
330
10E
100
AcDbEntity
8
PDF_1AB266_100
62
112
370
70
100
AcDbHatch
10
0
20
0
30
0
210
0
220
0
230
1
2
SOLID
70
1
71
0
91
1
92
2
72
0
73
1
93
4
10
249.5
20
310.5
10
249.5
20
30.5
10
409.5
20
30.5
10
409.5
20
310.5
97
0
75
0
76
1
98
0
1001
REVECTOR
1000
{"id":"e7","source":{"kind":"path","ids":["p2-8"],"page":2,"operator":31,"ref":"7e71b006"},"semantic":{"class":null,"confidence":1,"method":"source"}}
0
HATCH
5
131
330
10E
100
AcDbEntity
8
PDF_1A80CC_100
62
142
370
70
100
AcDbHatch
10
0
20
0
30
0
210
0
220
0
230
1
2
SOLID
70
1
71
0
91
1
92
2
72
0
73
1
93
4
10
19.5
20
160.5
10
19.5
20
80.5
10
159.5
20
80.5
10
159.5
20
160.5
97
0
75
0
76
1
98
0
1001
REVECTOR
1000
{"id":"e8","source":{"kind":"path","ids":["p2-10"],"page":2,"operator":45,"ref":"3ab76079"},"semantic":{"class":null,"confidence":1,"method":"source"}}
0
HATCH
5
132
330
10E
100
AcDbEntity
8
PDF_FF4C1A_100
62
20
370
70
100
AcDbHatch
10
0
20
0
30
0
210
0
220
0
230
1
2
SOLID
70
1
71
0
91
1
92
2
72
0
73
1
93
4
10
39.5
20
130.5
10
39.5
20
50.5
10
179.5
20
50.5
10
179.5
20
130.5
97
0
75
0
76
1
98
0
1001
REVECTOR
1000
{"id":"e9","source":{"kind":"path","ids":["p2-11"],"page":2,"operator":48,"ref":"6f3ded7b"},"semantic":{"class":null,"confidence":1,"method":"source"}}
0
HATCH
5
133
330
10E
100
AcDbEntity
8
PDF_0D33CC_100
62
162
370
70
100
AcDbHatch
10
0
20
0
30
0
210
0
220
0
230
1
2
SOLID
70
1
71
0
91
1
92
2
72
0
73
1
93
4
10
159.5
20
600
10
159.5
20
330.5
10
235.5
20
330.5
10
235.5
20
600
97
0
75
0
76
1
98
0
1001
REVECTOR
1000
{"id":"e10","source":{"kind":"path","ids":["p2-13"],"page":2,"operator":62,"ref":"e5a4a4f6"},"semantic":{"class":null,"confidence":1,"method":"source"}}
0
TEXT
5
134
330
10E
100
AcDbEntity
8
PDF_000000_100
62
250
370
70
100
AcDbText
10
179.5
20
60.5
30
0
40
42
1
A
50
-90
41
1
7
RV_E81703FA
71
0
72
5
11
179.5
21
18.5
31
0
100
AcDbText
73
0
1001
REVECTOR
1000
{"id":"e11","source":{"kind":"text","ids":["p2-14"],"page":2,"operator":69,"ref":"73b8f19c"},"semantic":{"class":null,"confidence":1,"method":"source"},"font":"Type3"}
0
LINE
5
135
330
10E
100
AcDbEntity
8
PDF_B200CC_150
62
212
370
106
100
AcDbLine
10
0
20
599.8181818182
30
0
11
439.5
21
0.5
31
0
1001
REVECTOR
1000
{"id":"e12","source":{"kind":"path","ids":["p2-16"],"page":2,"operator":81,"ref":"f1a0c0e4"},"semantic":{"class":null,"confidence":1,"method":"source"}}
0
IMAGE
5
136
330
10E
100
AcDbEntity
8
REVECTOR_APPEARANCE
62
7
370
0
100
AcDbRasterImage
90
0
10
0
20
0
30
0
11
0.5
21
0
31
0
12
0
22
0.5
32
0
13
880
23
1200
340
139
70
11
280
0
281
50
282
50
283
0
360
13A
71
1
91
2
14
-0.5
24
-0.5
14
879.5
24
1199.5
1001
REVECTOR
1000
{"id":"appearance-3ce32eff05a59fc819630793cabbbf052d69f4393143b9d1f316fe5b4bb179eb","source":{"kind":"page-composite","raster":{"interpolate":false},"ids":[],"page":2,"ref":"20be296c"},"semantic":{"class":"page-appearance","method":"sampled
1000
-reference","confidence":1,"exact":false}}
0
ENDSEC
0
SECTION
2
OBJECTS
0
DICTIONARY
5
109
330
0
100
AcDbDictionary
281
1
3
ACAD_GROUP
350
10A
3
ACAD_LAYOUT
350
10B
3
ACAD_IMAGE_DICT
350
137
3
ACAD_IMAGE_VARS
350
138
0
DICTIONARY
5
10A
330
109
100
AcDbDictionary
281
1
0
DICTIONARY
5
10B
330
109
100
AcDbDictionary
281
1
3
Model
350
10C
3
Layout1
350
10D
0
LAYOUT
5
10C
330
10B
100
AcDbPlotSettings
1

2

4

6

40
0
41
0
42
0
43
0
46
0
47
0
48
0
49
0
44
440
45
600
140
440
141
600
142
1
143
1
70
1024
72
1
73
0
74
5
7

75
16
76
0
77
2
78
300
147
1
148
0
149
0
100
AcDbLayout
1
Model
70
1
71
0
10
0
20
0
11
440
21
600
12
0
22
0
32
0
14
0
24
0
34
0
15
440
25
600
35
0
146
0
13
0
23
0
33
0
16
1
26
0
36
0
17
0
27
1
37
0
76
0
330
10E
0
LAYOUT
5
10D
330
10B
100
AcDbPlotSettings
1

2

4

6

40
0
41
0
42
0
43
0
46
0
47
0
48
0
49
0
44
440
45
600
140
440
141
600
142
1
143
1
70
0
72
1
73
0
74
5
7

75
16
76
0
77
2
78
300
147
1
148
0
149
0
100
AcDbLayout
1
Layout1
70
1
71
1
10
0
20
0
11
440
21
600
12
0
22
0
32
0
14
0
24
0
34
0
15
440
25
600
35
0
146
0
13
0
23
0
33
0
16
1
26
0
36
0
17
0
27
1
37
0
76
0
330
10F
0
DICTIONARY
5
137
330
109
100
AcDbDictionary
281
1
3
APPEARANCE_3ce32eff05a59fc819630793cabbbf052d69f4393143b9d1f316fe5b4bb179eb
350
139
0
RASTERVARIABLES
5
138
330
109
100
AcDbRasterVariables
90
0
70
0
71
1
72
0
0
IMAGEDEF
5
139
102
{ACAD_REACTORS
330
137
330
13A
102
}
330
137
100
AcDbRasterImageDef
90
0
1
images/3ce32eff05a59fc819630793cabbbf052d69f4393143b9d1f316fe5b4bb179eb.png
10
880
20
1200
11
1
21
1
280
1
281
0
1001
REVECTOR
1000
{"id":"APPEARANCE_3ce32eff05a59fc819630793cabbbf052d69f4393143b9d1f316fe5b4bb179eb","source":{"kind":"pdf-page-appearance","ids":[],"ref":"047fd58c"},"semantic":{}}
0
IMAGEDEF_REACTOR
5
13A
330
136
100
AcDbRasterImageDefReactor
90
2
330
136
0
ENDSEC
0
EOF
