0
SECTION
2
HEADER
9
$ACADVER
1
AC1032
9
$ACADMAINTVER
70
0
9
$DWGCODEPAGE
3
ANSI_1252
9
$HANDSEED
5
126
9
$INSBASE
10
0
20
0
30
0
9
$EXTMIN
10
10
20
10
30
0
9
$EXTMAX
10
111.5
20
72.5
30
0
9
$LIMMIN
10
0
20
0
9
$LIMMAX
10
120
20
90
9
$INSUNITS
70
0
9
$MEASUREMENT
70
1
9
$LUNITS
70
2
9
$LUPREC
70
4
9
$AUNITS
70
0
9
$AUPREC
70
4
9
$TILEMODE
70
1
9
$LTSCALE
40
1
9
$PSLTSCALE
70
0
9
$FILLMODE
70
1
9
$CLAYER
8
0
0
ENDSEC
0
SECTION
2
TABLES
0
TABLE
5
100
2
VPORT
100
AcDbSymbolTable
70
1
0
VPORT
5
11E
330
100
100
AcDbSymbolTableRecord
100
AcDbViewportTableRecord
2
*Active
70
0
10
0
20
0
11
1
21
1
12
60
22
45
13
0
23
0
14
10
24
10
15
10
25
10
16
0
26
0
36
1
17
0
27
0
37
0
40
90
41
1.3333333333
42
50
43
0
44
0
50
0
51
0
71
0
72
100
73
1
74
3
75
0
76
0
77
0
78
0
0
ENDTAB
0
TABLE
5
101
2
LTYPE
100
AcDbSymbolTable
70
3
0
LTYPE
5
115
330
101
100
AcDbSymbolTableRecord
100
AcDbLinetypeTableRecord
2
BYBLOCK
70
0
3

72
65
73
0
40
0
0
LTYPE
5
116
330
101
100
AcDbSymbolTableRecord
100
AcDbLinetypeTableRecord
2
BYLAYER
70
0
3

72
65
73
0
40
0
0
LTYPE
5
117
330
101
100
AcDbSymbolTableRecord
100
AcDbLinetypeTableRecord
2
CONTINUOUS
70
0
3

72
65
73
0
40
0
0
ENDTAB
0
TABLE
5
102
2
LAYER
100
AcDbSymbolTable
70
3
0
LAYER
5
118
330
102
100
AcDbSymbolTableRecord
100
AcDbLayerTableRecord
2
0
70
0
62
254
420
13819110
6
CONTINUOUS
290
1
370
-3
0
LAYER
5
119
330
102
100
AcDbSymbolTableRecord
100
AcDbLayerTableRecord
2
PDF_142846_300
70
0
62
156
420
1321030
6
CONTINUOUS
290
1
370
-3
0
LAYER
5
11A
330
102
100
AcDbSymbolTableRecord
100
AcDbLayerTableRecord
2
INFERRED_PATHS
70
0
62
156
420
1321030
6
CONTINUOUS
290
1
370
-3
0
ENDTAB
0
TABLE
5
103
2
STYLE
100
AcDbSymbolTable
70
1
0
STYLE
5
114
330
103
100
AcDbSymbolTableRecord
100
AcDbTextStyleTableRecord
2
STANDARD
70
0
40
0
41
1
50
0
71
0
42
2.5
3
txt
4

0
ENDTAB
0
TABLE
5
104
2
VIEW
100
AcDbSymbolTable
70
0
0
ENDTAB
0
TABLE
5
105
2
UCS
100
AcDbSymbolTable
70
0
0
ENDTAB
0
TABLE
5
106
2
APPID
100
AcDbSymbolTable
70
2
0
APPID
5
11B
330
106
100
AcDbSymbolTableRecord
100
AcDbRegAppTableRecord
2
ACAD
70
0
0
APPID
5
11C
330
106
100
AcDbSymbolTableRecord
100
AcDbRegAppTableRecord
2
REVECTOR
70
0
0
ENDTAB
0
TABLE
5
107
2
DIMSTYLE
100
AcDbSymbolTable
70
1
0
DIMSTYLE
105
11D
330
107
100
AcDbSymbolTableRecord
100
AcDbDimStyleTableRecord
2
STANDARD
70
0
40
1
41
2.5
42
0.625
43
3.75
44
1.25
140
2.5
147
0.625
340
114
0
ENDTAB
0
TABLE
5
108
2
BLOCK_RECORD
100
AcDbSymbolTable
70
2
0
BLOCK_RECORD
5
10E
330
108
100
AcDbSymbolTableRecord
100
AcDbBlockTableRecord
2
*Model_Space
340
10C
70
0
280
1
281
0
0
BLOCK_RECORD
5
10F
330
108
100
AcDbSymbolTableRecord
100
AcDbBlockTableRecord
2
*Paper_Space
340
10D
70
0
280
1
281
0
0
ENDTAB
0
ENDSEC
0
SECTION
2
BLOCKS
0
BLOCK
5
110
330
10E
100
AcDbEntity
8
0
100
AcDbBlockBegin
2
*Model_Space
70
0
10
0
20
0
30
0
3
*Model_Space
1

0
ENDBLK
5
111
330
10E
100
AcDbEntity
8
0
100
AcDbBlockEnd
0
BLOCK
5
112
330
10F
100
AcDbEntity
8
0
100
AcDbBlockBegin
2
*Paper_Space
70
0
10
0
20
0
30
0
3
*Paper_Space
1

0
ENDBLK
5
113
330
10F
100
AcDbEntity
8
0
100
AcDbBlockEnd
0
ENDSEC
0
SECTION
2
ENTITIES
0
LINE
5
11F
330
10E
100
AcDbEntity
8
PDF_142846_300
62
156
420
1321030
370
106
100
AcDbLine
10
10
20
10
30
0
11
110
21
10
31
0
1001
REVECTOR
1000
{"id":"e1","source":{"kind":"path","ids":["native"],"page":1,"ref":"7896caad"},"semantic":{"class":null,"confidence":1,"method":"source"}}
0
LINE
5
120
330
10E
100
AcDbEntity
8
INFERRED_PATHS
62
156
420
1321030
370
0
100
AcDbLine
10
69.5
20
72.5
30
0
11
69.5
21
58.5
31
0
1001
REVECTOR
1000
{"id":"e2","source":{"kind":"path","rasterInference":{"method":"zhang-suen/pixel-graph/rdp","confidence":0.65,"geometry":"estimated centerline","color":"median skeleton samples","imageIds":["source-image"],"regionId":"0","pixelToPdf":[1,0,0
1000
,-1,0,90],"maxDeviationPixels":0.65,"samples":15,"startDegree":1,"endDegree":4,"touchesBorder":false},"ids":["raster-path-0-0"],"page":1,"operator":-1,"ref":"47e7959e"},"semantic":{"class":"raster-line","confidence":0.65,"method":"raster-in
1000
ference"}}
0
LINE
5
121
330
10E
100
AcDbEntity
8
INFERRED_PATHS
62
156
420
1321030
370
0
100
AcDbLine
10
38.5
20
58.5
30
0
11
11.5
21
31.5
31
0
1001
REVECTOR
1000
{"id":"e3","source":{"kind":"path","rasterInference":{"method":"zhang-suen/pixel-graph/rdp","confidence":0.65,"geometry":"estimated centerline","color":"median skeleton samples","imageIds":["source-image"],"regionId":"0","pixelToPdf":[1,0,0
1000
,-1,0,90],"maxDeviationPixels":0.65,"samples":28,"startDegree":1,"endDegree":1,"touchesBorder":false},"ids":["raster-path-0-1"],"page":1,"operator":-1,"ref":"181bf16e"},"semantic":{"class":"raster-line","confidence":0.65,"method":"raster-in
1000
ference"}}
0
LINE
5
122
330
10E
100
AcDbEntity
8
INFERRED_PATHS
62
156
420
1321030
370
0
100
AcDbLine
10
54.5
20
58.5
30
0
11
69.5
21
58.5
31
0
1001
REVECTOR
1000
{"id":"e4","source":{"kind":"path","rasterInference":{"method":"zhang-suen/pixel-graph/rdp","confidence":0.65,"geometry":"estimated centerline","color":"median skeleton samples","imageIds":["source-image"],"regionId":"0","pixelToPdf":[1,0,0
1000
,-1,0,90],"maxDeviationPixels":0.65,"samples":16,"startDegree":1,"endDegree":4,"touchesBorder":false},"ids":["raster-path-0-2"],"page":1,"operator":-1,"ref":"18b21fdd"},"semantic":{"class":"raster-line","confidence":0.65,"method":"raster-in
1000
ference"}}
0
LINE
5
123
330
10E
100
AcDbEntity
8
INFERRED_PATHS
62
156
420
1321030
370
0
100
AcDbLine
10
69.5
20
58.5
30
0
11
85.5
21
58.5
31
0
1001
REVECTOR
1000
{"id":"e5","source":{"kind":"path","rasterInference":{"method":"zhang-suen/pixel-graph/rdp","confidence":0.65,"geometry":"estimated centerline","color":"median skeleton samples","imageIds":["source-image"],"regionId":"0","pixelToPdf":[1,0,0
1000
,-1,0,90],"maxDeviationPixels":0.65,"samples":17,"startDegree":4,"endDegree":1,"touchesBorder":false},"ids":["raster-path-0-3"],"page":1,"operator":-1,"ref":"68a95995"},"semantic":{"class":"raster-line","confidence":0.65,"method":"raster-in
1000
ference"}}
0
LINE
5
124
330
10E
100
AcDbEntity
8
INFERRED_PATHS
62
156
420
1321030
370
0
100
AcDbLine
10
69.5
20
58.5
30
0
11
69.5
21
42.5
31
0
1001
REVECTOR
1000
{"id":"e6","source":{"kind":"path","rasterInference":{"method":"zhang-suen/pixel-graph/rdp","confidence":0.65,"geometry":"estimated centerline","color":"median skeleton samples","imageIds":["source-image"],"regionId":"0","pixelToPdf":[1,0,0
1000
,-1,0,90],"maxDeviationPixels":0.65,"samples":17,"startDegree":4,"endDegree":1,"touchesBorder":false},"ids":["raster-path-0-4"],"page":1,"operator":-1,"ref":"9cf572bc"},"semantic":{"class":"raster-line","confidence":0.65,"method":"raster-in
1000
ference"}}
0
LWPOLYLINE
5
125
330
10E
100
AcDbEntity
8
INFERRED_PATHS
62
156
420
1321030
370
0
100
AcDbPolyline
90
12
70
1
10
95.5
20
41.5
10
104.5
20
41.5
10
109.5
20
37.5
10
111.5
20
33.5
10
111.5
20
26.5
10
109.5
20
22.5
10
103.5
20
18.5
10
96.5
20
18.5
10
92.5
20
20.5
10
88.5
20
25.5
10
88.5
20
34.5
10
89.5
20
36.5
1001
REVECTOR
1000
{"id":"e7","source":{"kind":"path","rasterInference":{"method":"zhang-suen/pixel-graph/rdp","confidence":0.65,"geometry":"estimated centerline","color":"median skeleton samples","imageIds":["source-image"],"regionId":"0","pixelToPdf":[1,0,0
1000
,-1,0,90],"maxDeviationPixels":0.65,"samples":77,"startDegree":2,"endDegree":2,"touchesBorder":false},"ids":["raster-path-0-5"],"page":1,"operator":-1,"ref":"bb7a886a"},"semantic":{"class":"raster-line","confidence":0.65,"method":"raster-in
1000
ference"}}
0
ENDSEC
0
SECTION
2
OBJECTS
0
DICTIONARY
5
109
330
0
100
AcDbDictionary
281
1
3
ACAD_GROUP
350
10A
3
ACAD_LAYOUT
350
10B
0
DICTIONARY
5
10A
330
109
100
AcDbDictionary
281
1
0
DICTIONARY
5
10B
330
109
100
AcDbDictionary
281
1
3
Model
350
10C
3
Layout1
350
10D
0
LAYOUT
5
10C
330
10B
100
AcDbPlotSettings
1

2

4

6

40
0
41
0
42
0
43
0
46
0
47
0
48
0
49
0
44
120
45
90
140
120
141
90
142
1
143
1
70
1024
72
1
73
0
74
5
7

75
16
76
0
77
2
78
300
147
1
148
0
149
0
100
AcDbLayout
1
Model
70
1
71
0
10
0
20
0
11
120
21
90
12
0
22
0
32
0
14
10
24
10
34
0
15
111.5
25
72.5
35
0
146
0
13
0
23
0
33
0
16
1
26
0
36
0
17
0
27
1
37
0
76
0
330
10E
0
LAYOUT
5
10D
330
10B
100
AcDbPlotSettings
1

2

4

6

40
0
41
0
42
0
43
0
46
0
47
0
48
0
49
0
44
120
45
90
140
120
141
90
142
1
143
1
70
0
72
1
73
0
74
5
7

75
16
76
0
77
2
78
300
147
1
148
0
149
0
100
AcDbLayout
1
Layout1
70
1
71
1
10
0
20
0
11
120
21
90
12
0
22
0
32
0
14
10
24
10
34
0
15
111.5
25
72.5
35
0
146
0
13
0
23
0
33
0
16
1
26
0
36
0
17
0
27
1
37
0
76
0
330
10F
0
ENDSEC
0
EOF
