0
SECTION
2
HEADER
9
$ACADVER
1
AC1015
9
$ACADMAINTVER
70
0
9
$DWGCODEPAGE
3
ANSI_1252
9
$HANDSEED
5
12C
9
$INSBASE
10
0
20
0
30
0
9
$EXTMIN
10
7.0555555556
20
7.0555555556
30
0
9
$EXTMAX
10
118.1805555556
20
82.9027777778
30
0
9
$LIMMIN
10
0
20
0
9
$LIMMAX
10
127
20
91.7222222222
9
$INSUNITS
70
4
9
$MEASUREMENT
70
1
9
$LUNITS
70
2
9
$LUPREC
70
4
9
$AUNITS
70
0
9
$AUPREC
70
4
9
$TILEMODE
70
1
9
$LTSCALE
40
1
9
$PSLTSCALE
70
0
9
$FILLMODE
70
1
9
$CLAYER
8
0
0
ENDSEC
0
SECTION
2
CLASSES
0
CLASS
1
IMAGE
2
AcDbRasterImage
3
ISM
90
127
91
4
280
0
281
1
0
CLASS
1
IMAGEDEF
2
AcDbRasterImageDef
3
ISM
90
0
91
2
280
0
281
0
0
CLASS
1
IMAGEDEF_REACTOR
2
AcDbRasterImageDefReactor
3
ISM
90
0
91
4
280
0
281
0
0
CLASS
1
RASTERVARIABLES
2
AcDbRasterVariables
3
ISM
90
0
91
1
280
0
281
0
0
ENDSEC
0
SECTION
2
TABLES
0
TABLE
5
100
2
VPORT
100
AcDbSymbolTable
70
1
0
VPORT
5
11E
330
100
100
AcDbSymbolTableRecord
100
AcDbViewportTableRecord
2
*Active
70
0
10
0
20
0
11
1
21
1
12
63.5
22
45.8611111111
13
0
23
0
14
10
24
10
15
10
25
10
16
0
26
0
36
1
17
0
27
0
37
0
40
91.7222222222
41
1.3846153846
42
50
43
0
44
0
50
0
51
0
71
0
72
100
73
1
74
3
75
0
76
0
77
0
78
0
0
ENDTAB
0
TABLE
5
101
2
LTYPE
100
AcDbSymbolTable
70
3
0
LTYPE
5
115
330
101
100
AcDbSymbolTableRecord
100
AcDbLinetypeTableRecord
2
BYBLOCK
70
0
3

72
65
73
0
40
0
0
LTYPE
5
116
330
101
100
AcDbSymbolTableRecord
100
AcDbLinetypeTableRecord
2
BYLAYER
70
0
3

72
65
73
0
40
0
0
LTYPE
5
117
330
101
100
AcDbSymbolTableRecord
100
AcDbLinetypeTableRecord
2
CONTINUOUS
70
0
3

72
65
73
0
40
0
0
ENDTAB
0
TABLE
5
102
2
LAYER
100
AcDbSymbolTable
70
3
0
LAYER
5
118
330
102
100
AcDbSymbolTableRecord
100
AcDbLayerTableRecord
2
0
70
0
62
254
6
CONTINUOUS
290
1
370
-3
0
LAYER
5
119
330
102
100
AcDbSymbolTableRecord
100
AcDbLayerTableRecord
2
PDF_000000_35
70
0
62
250
6
CONTINUOUS
290
1
370
-3
0
LAYER
5
11A
330
102
100
AcDbSymbolTableRecord
100
AcDbLayerTableRecord
2
PDF_FF00FF_106
70
0
62
6
6
CONTINUOUS
290
1
370
-3
0
ENDTAB
0
TABLE
5
103
2
STYLE
100
AcDbSymbolTable
70
1
0
STYLE
5
114
330
103
100
AcDbSymbolTableRecord
100
AcDbTextStyleTableRecord
2
STANDARD
70
0
40
0
41
1
50
0
71
0
42
2.5
3
txt
4

0
ENDTAB
0
TABLE
5
104
2
VIEW
100
AcDbSymbolTable
70
0
0
ENDTAB
0
TABLE
5
105
2
UCS
100
AcDbSymbolTable
70
0
0
ENDTAB
0
TABLE
5
106
2
APPID
100
AcDbSymbolTable
70
2
0
APPID
5
11B
330
106
100
AcDbSymbolTableRecord
100
AcDbRegAppTableRecord
2
ACAD
70
0
0
APPID
5
11C
330
106
100
AcDbSymbolTableRecord
100
AcDbRegAppTableRecord
2
REVECTOR
70
0
0
ENDTAB
0
TABLE
5
107
2
DIMSTYLE
100
AcDbSymbolTable
70
1
0
DIMSTYLE
105
11D
330
107
100
AcDbSymbolTableRecord
100
AcDbDimStyleTableRecord
2
STANDARD
70
0
40
1
41
2.5
42
0.625
43
3.75
44
1.25
140
2.5
147
0.625
340
114
0
ENDTAB
0
TABLE
5
108
2
BLOCK_RECORD
100
AcDbSymbolTable
70
2
0
BLOCK_RECORD
5
10E
330
108
100
AcDbSymbolTableRecord
100
AcDbBlockTableRecord
2
*Model_Space
340
10C
70
4
280
1
281
0
0
BLOCK_RECORD
5
10F
330
108
100
AcDbSymbolTableRecord
100
AcDbBlockTableRecord
2
*Paper_Space
340
10D
70
4
280
1
281
0
0
ENDTAB
0
ENDSEC
0
SECTION
2
BLOCKS
0
BLOCK
5
110
330
10E
100
AcDbEntity
8
0
100
AcDbBlockBegin
2
*Model_Space
70
0
10
0
20
0
30
0
3
*Model_Space
1

0
ENDBLK
5
111
330
10E
100
AcDbEntity
8
0
100
AcDbBlockEnd
0
BLOCK
5
112
330
10F
100
AcDbEntity
8
0
100
AcDbBlockBegin
2
*Paper_Space
70
0
10
0
20
0
30
0
3
*Paper_Space
1

0
ENDBLK
5
113
330
10F
100
AcDbEntity
8
0
100
AcDbBlockEnd
0
ENDSEC
0
SECTION
2
ENTITIES
0
IMAGE
5
11F
330
10E
100
AcDbEntity
8
PDF_000000_35
62
7
370
35
100
AcDbRasterImage
90
0
10
7.0555555556
20
52.9166666667
30
0
11
1.7638888889
21
0
31
0
12
0
22
1.7638888889
32
0
13
16
23
16
340
126
70
11
280
0
281
50
282
50
283
0
360
128
71
1
91
2
14
-0.5
24
-0.5
14
15.5
24
15.5
1001
REVECTOR
1000
{"id":"e1","source":{"kind":"image","raster":{"kind":"pdf-raster","colorEngine":"PDF.js","colorSpace":"sRGB","pixelResolution":"native","clipBaked":true,"constantAlpha":1,"losslessSourceEncoding":false,"interpolate":false},"ids":["p1-1"],"p
1000
age":1,"operator":5,"ref":"721134cf"},"semantic":{"class":"raster-image","confidence":1,"method":"source"}}
0
IMAGE
5
120
330
10E
100
AcDbEntity
8
PDF_000000_35
62
7
370
35
100
AcDbRasterImage
90
0
10
70.5555555556
20
52.9166666667
30
0
11
-1.7638888889
21
0
31
0
12
0
22
1.7638888889
32
0
13
16
23
16
340
126
70
11
280
0
281
50
282
50
283
0
360
129
71
1
91
2
14
-0.5
24
-0.5
14
15.5
24
15.5
1001
REVECTOR
1000
{"id":"e2","source":{"kind":"image","raster":{"kind":"pdf-raster","colorEngine":"PDF.js","colorSpace":"sRGB","pixelResolution":"native","clipBaked":true,"constantAlpha":1,"losslessSourceEncoding":false,"interpolate":false},"ids":["p1-2"],"p
1000
age":1,"operator":12,"ref":"3ac6f648"},"semantic":{"class":"raster-image","confidence":1,"method":"source"}}
0
IMAGE
5
121
330
10E
100
AcDbEntity
8
PDF_000000_35
62
7
370
35
100
AcDbRasterImage
90
0
10
86.4305555556
20
52.9166666667
30
0
11
1.5434027778
21
0.3307291667
31
0
12
0.4409722222
22
1.5434027778
32
0
13
16
23
16
340
126
70
11
280
0
281
50
282
50
283
0
360
12A
71
1
91
2
14
-0.5
24
-0.5
14
15.5
24
15.5
1001
REVECTOR
1000
{"id":"e3","source":{"kind":"image","raster":{"kind":"pdf-raster","colorEngine":"PDF.js","colorSpace":"sRGB","pixelResolution":"native","clipBaked":true,"constantAlpha":1,"losslessSourceEncoding":false,"interpolate":false},"ids":["p1-3"],"p
1000
age":1,"operator":19,"ref":"2ad38124"},"semantic":{"class":"raster-image","confidence":1,"method":"source"}}
0
IMAGE
5
122
330
10E
100
AcDbEntity
8
PDF_000000_35
62
7
370
35
100
AcDbRasterImage
90
0
10
7.0555555556
20
7.0555555556
30
0
11
1.7638888889
21
0
31
0
12
0
22
1.7638888889
32
0
13
16
23
16
340
127
70
11
280
0
281
50
282
50
283
0
360
12B
71
1
91
2
14
-0.5
24
-0.5
14
15.5
24
15.5
1001
REVECTOR
1000
{"id":"e4","source":{"kind":"image","raster":{"kind":"pdf-raster","colorEngine":"PDF.js","colorSpace":"sRGB","pixelResolution":"native","clipBaked":true,"constantAlpha":0.5,"losslessSourceEncoding":false,"interpolate":false},"ids":["p1-4"],
1000
"page":1,"operator":29,"ref":"c22d1c2e"},"semantic":{"class":"raster-image","confidence":1,"method":"source"}}
0
LINE
5
123
330
10E
100
AcDbEntity
8
PDF_FF00FF_106
62
6
370
106
100
AcDbLine
10
7.0555555556
20
63.5
30
0
11
35.2777777778
21
63.5
31
0
1001
REVECTOR
1000
{"id":"e5","source":{"kind":"path","ids":["p1-5"],"page":1,"operator":35,"ref":"4de844c5"},"semantic":{"class":null,"confidence":1,"method":"source"}}
0
ENDSEC
0
SECTION
2
OBJECTS
0
DICTIONARY
5
109
330
0
100
AcDbDictionary
281
1
3
ACAD_GROUP
350
10A
3
ACAD_LAYOUT
350
10B
3
ACAD_IMAGE_DICT
350
124
3
ACAD_IMAGE_VARS
350
125
0
DICTIONARY
5
10A
330
109
100
AcDbDictionary
281
1
0
DICTIONARY
5
10B
330
109
100
AcDbDictionary
281
1
3
Model
350
10C
3
Layout1
350
10D
0
LAYOUT
5
10C
330
10B
100
AcDbPlotSettings
1

2

4

6

40
0
41
0
42
0
43
0
46
0
47
0
48
0
49
0
44
127
45
91.7222222222
140
127
141
91.7222222222
142
1
143
1
70
1024
72
1
73
0
74
5
7

75
16
76
0
77
2
78
300
147
1
148
0
149
0
100
AcDbLayout
1
Model
70
1
71
0
10
0
20
0
11
127
21
91.7222222222
12
0
22
0
32
0
14
7.0555555556
24
7.0555555556
34
0
15
118.1805555556
25
82.9027777778
35
0
146
0
13
0
23
0
33
0
16
1
26
0
36
0
17
0
27
1
37
0
76
0
330
10E
0
LAYOUT
5
10D
330
10B
100
AcDbPlotSettings
1

2

4

6

40
0
41
0
42
0
43
0
46
0
47
0
48
0
49
0
44
127
45
91.7222222222
140
127
141
91.7222222222
142
1
143
1
70
0
72
1
73
0
74
5
7

75
16
76
0
77
2
78
300
147
1
148
0
149
0
100
AcDbLayout
1
Layout1
70
1
71
1
10
0
20
0
11
127
21
91.7222222222
12
0
22
0
32
0
14
7.0555555556
24
7.0555555556
34
0
15
118.1805555556
25
82.9027777778
35
0
146
0
13
0
23
0
33
0
16
1
26
0
36
0
17
0
27
1
37
0
76
0
330
10F
0
DICTIONARY
5
124
330
109
100
AcDbDictionary
281
1
3
IMG_3561edd6cae01d2f975e7802251c7c80f6356ec334e0f44fc92dd94acbe0b47a
350
126
3
IMG_5c8b6fea615a7c0ec030205bfe345eb5a3989afe02ce5339cd17305ddee7e29f
350
127
0
RASTERVARIABLES
5
125
330
109
100
AcDbRasterVariables
90
0
70
0
71
1
72
0
0
IMAGEDEF
5
126
102
{ACAD_REACTORS
330
124
330
128
330
129
330
12A
102
}
330
124
100
AcDbRasterImageDef
90
0
1
images/3561edd6cae01d2f975e7802251c7c80f6356ec334e0f44fc92dd94acbe0b47a.png
10
16
20
16
11
1
21
1
280
1
281
0
1001
REVECTOR
1000
{"id":"IMG_3561edd6cae01d2f975e7802251c7c80f6356ec334e0f44fc92dd94acbe0b47a","source":{"kind":"pdf-raster","ids":[],"ref":"684bd0b6"},"semantic":{}}
0
IMAGEDEF
5
127
102
{ACAD_REACTORS
330
124
330
12B
102
}
330
124
100
AcDbRasterImageDef
90
0
1
images/5c8b6fea615a7c0ec030205bfe345eb5a3989afe02ce5339cd17305ddee7e29f.png
10
16
20
16
11
1
21
1
280
1
281
0
1001
REVECTOR
1000
{"id":"IMG_5c8b6fea615a7c0ec030205bfe345eb5a3989afe02ce5339cd17305ddee7e29f","source":{"kind":"pdf-raster","ids":[],"ref":"d19e0e00"},"semantic":{}}
0
IMAGEDEF_REACTOR
5
128
330
11F
100
AcDbRasterImageDefReactor
90
2
330
11F
0
IMAGEDEF_REACTOR
5
129
330
120
100
AcDbRasterImageDefReactor
90
2
330
120
0
IMAGEDEF_REACTOR
5
12A
330
121
100
AcDbRasterImageDefReactor
90
2
330
121
0
IMAGEDEF_REACTOR
5
12B
330
122
100
AcDbRasterImageDefReactor
90
2
330
122
0
ENDSEC
0
EOF
