0
SECTION
2
HEADER
9
$ACADVER
1
AC1021
9
$ACADMAINTVER
70
0
9
$DWGCODEPAGE
3
ANSI_1252
9
$HANDSEED
5
1B6
9
$INSBASE
10
0
20
0
30
0
9
$EXTMIN
10
8.4666666667
20
8.4666666667
30
0
9
$EXTMAX
10
288.5722222222
20
201.4361111111
30
0
9
$LIMMIN
10
0
20
0
9
$LIMMAX
10
297.0388888889
20
209.9027777778
9
$INSUNITS
70
4
9
$MEASUREMENT
70
1
9
$LUNITS
70
2
9
$LUPREC
70
4
9
$AUNITS
70
0
9
$AUPREC
70
4
9
$TILEMODE
70
1
9
$LTSCALE
40
1
9
$PSLTSCALE
70
0
9
$FILLMODE
70
1
9
$CLAYER
8
0
0
ENDSEC
0
SECTION
2
TABLES
0
TABLE
5
100
2
VPORT
100
AcDbSymbolTable
70
1
0
VPORT
5
129
330
100
100
AcDbSymbolTableRecord
100
AcDbViewportTableRecord
2
*Active
70
0
10
0
20
0
11
1
21
1
12
148.5194444444
22
104.9513888889
13
0
23
0
14
10
24
10
15
10
25
10
16
0
26
0
36
1
17
0
27
0
37
0
40
209.9027777778
41
1.4151260504
42
50
43
0
44
0
50
0
51
0
71
0
72
100
73
1
74
3
75
0
76
0
77
0
78
0
0
ENDTAB
0
TABLE
5
101
2
LTYPE
100
AcDbSymbolTable
70
5
0
LTYPE
5
11A
330
101
100
AcDbSymbolTableRecord
100
AcDbLinetypeTableRecord
2
BYBLOCK
70
0
3

72
65
73
0
40
0
0
LTYPE
5
11B
330
101
100
AcDbSymbolTableRecord
100
AcDbLinetypeTableRecord
2
BYLAYER
70
0
3

72
65
73
0
40
0
0
LTYPE
5
11C
330
101
100
AcDbSymbolTableRecord
100
AcDbLinetypeTableRecord
2
CONTINUOUS
70
0
3

72
65
73
0
40
0
0
LTYPE
5
11D
330
101
100
AcDbSymbolTableRecord
100
AcDbLinetypeTableRecord
2
RV_DASH_F9F191B4
70
0
3
Recovered PDF stroke pattern
72
65
73
4
40
3.5277777778
49
1.7638888889
74
0
49
-0.7055555556
74
0
49
0.3527777778
74
0
49
-0.7055555556
74
0
0
LTYPE
5
11E
330
101
100
AcDbSymbolTableRecord
100
AcDbLinetypeTableRecord
2
RV_DASH_11BE837B
70
0
3
Recovered PDF stroke pattern
72
65
73
2
40
1.7638888889
49
1.0583333333
74
0
49
-0.7055555556
74
0
0
ENDTAB
0
TABLE
5
102
2
LAYER
100
AcDbSymbolTable
70
7
0
LAYER
5
11F
330
102
100
AcDbSymbolTableRecord
100
AcDbLayerTableRecord
2
0
70
0
62
254
420
13819110
6
CONTINUOUS
290
1
370
-3
0
LAYER
5
120
330
102
100
AcDbSymbolTableRecord
100
AcDbLayerTableRecord
2
A-SHEET
70
0
62
117
420
1977660
6
CONTINUOUS
290
1
370
-3
0
LAYER
5
121
330
102
100
AcDbSymbolTableRecord
100
AcDbLayerTableRecord
2
P-EQUIPMENT
70
0
62
137
420
1786969
6
CONTINUOUS
290
1
370
-3
0
LAYER
5
122
330
102
100
AcDbSymbolTableRecord
100
AcDbLayerTableRecord
2
P-PIPEWORK
70
0
62
144
420
1861500
6
CONTINUOUS
290
1
370
-3
0
LAYER
5
123
330
102
100
AcDbSymbolTableRecord
100
AcDbLayerTableRecord
2
I-INSTRUMENTS
70
0
62
35
420
9263924
6
CONTINUOUS
290
1
370
-3
0
LAYER
5
124
330
102
100
AcDbSymbolTableRecord
100
AcDbLayerTableRecord
2
A-ANNOTATION
70
0
62
127
420
2766144
6
CONTINUOUS
290
1
370
-3
0
LAYER
5
125
330
102
100
AcDbSymbolTableRecord
100
AcDbLayerTableRecord
2
H-HATCH
70
0
62
8
420
6913925
6
CONTINUOUS
290
1
370
-3
0
ENDTAB
0
TABLE
5
103
2
STYLE
100
AcDbSymbolTable
70
3
0
STYLE
5
117
330
103
100
AcDbSymbolTableRecord
100
AcDbTextStyleTableRecord
2
STANDARD
70
0
40
0
41
1
50
0
71
0
42
2.5
3
txt
4

0
STYLE
5
118
330
103
100
AcDbSymbolTableRecord
100
AcDbTextStyleTableRecord
2
RV_3291BAF8
70
0
40
0
41
1
50
0
71
0
42
2.5
3
arialbd.ttf
4

0
STYLE
5
119
330
103
100
AcDbSymbolTableRecord
100
AcDbTextStyleTableRecord
2
RV_BDCF0158
70
0
40
0
41
1
50
0
71
0
42
2.5
3
arial.ttf
4

0
ENDTAB
0
TABLE
5
104
2
VIEW
100
AcDbSymbolTable
70
0
0
ENDTAB
0
TABLE
5
105
2
UCS
100
AcDbSymbolTable
70
0
0
ENDTAB
0
TABLE
5
106
2
APPID
100
AcDbSymbolTable
70
2
0
APPID
5
126
330
106
100
AcDbSymbolTableRecord
100
AcDbRegAppTableRecord
2
ACAD
70
0
0
APPID
5
127
330
106
100
AcDbSymbolTableRecord
100
AcDbRegAppTableRecord
2
REVECTOR
70
0
0
ENDTAB
0
TABLE
5
107
2
DIMSTYLE
100
AcDbSymbolTable
70
1
0
DIMSTYLE
105
128
330
107
100
AcDbSymbolTableRecord
100
AcDbDimStyleTableRecord
2
STANDARD
70
0
40
1
41
2.5
42
0.625
43
3.75
44
1.25
140
2.5
147
0.625
340
117
0
ENDTAB
0
TABLE
5
108
2
BLOCK_RECORD
100
AcDbSymbolTable
70
3
0
BLOCK_RECORD
5
10E
330
108
100
AcDbSymbolTableRecord
100
AcDbBlockTableRecord
2
*Model_Space
340
10C
70
4
280
1
281
0
0
BLOCK_RECORD
5
10F
330
108
100
AcDbSymbolTableRecord
100
AcDbBlockTableRecord
2
*Paper_Space
340
10D
70
4
280
1
281
0
0
BLOCK_RECORD
5
110
330
108
100
AcDbSymbolTableRecord
100
AcDbBlockTableRecord
2
PDF_FORM_4FBBE2D5_0
70
4
280
1
281
0
0
ENDTAB
0
ENDSEC
0
SECTION
2
BLOCKS
0
BLOCK
5
111
330
10E
100
AcDbEntity
8
0
100
AcDbBlockBegin
2
*Model_Space
70
0
10
0
20
0
30
0
3
*Model_Space
1

0
ENDBLK
5
112
330
10E
100
AcDbEntity
8
0
100
AcDbBlockEnd
0
BLOCK
5
113
330
10F
100
AcDbEntity
8
0
100
AcDbBlockBegin
2
*Paper_Space
70
0
10
0
20
0
30
0
3
*Paper_Space
1

0
ENDBLK
5
114
330
10F
100
AcDbEntity
8
0
100
AcDbBlockEnd
0
BLOCK
5
115
330
110
100
AcDbEntity
8
0
100
AcDbBlockBegin
2
PDF_FORM_4FBBE2D5_0
70
0
10
0
20
0
30
0
3
PDF_FORM_4FBBE2D5_0
1

0
LWPOLYLINE
5
1B3
330
110
100
AcDbEntity
8
P-PIPEWORK
62
144
420
1861500
370
30
100
AcDbPolyline
90
4
70
1
10
-8
20
-5
10
8
20
5
10
8
20
-5
10
-8
20
5
1001
REVECTOR
1000
{"id":"b0_0","source":{"kind":"path","ids":["p1-64"],"page":1,"operator":177,"ref":"00fc9d69"},"semantic":{"class":null,"confidence":1,"method":"source"}}
0
LINE
5
1B4
330
110
100
AcDbEntity
8
P-PIPEWORK
62
144
420
1861500
370
30
100
AcDbLine
10
0
20
0
30
0
11
0
21
10
31
0
1001
REVECTOR
1000
{"id":"b0_1","source":{"kind":"path","ids":["p1-65"],"page":1,"operator":178,"ref":"0436e24b"},"semantic":{"class":null,"confidence":1,"method":"source"}}
0
LINE
5
1B5
330
110
100
AcDbEntity
8
P-PIPEWORK
62
144
420
1861500
370
30
100
AcDbLine
10
-4
20
10
30
0
11
4
21
10
31
0
1001
REVECTOR
1000
{"id":"b0_2","source":{"kind":"path","ids":["p1-66"],"page":1,"operator":179,"ref":"4f481f51"},"semantic":{"class":null,"confidence":1,"method":"source"}}
0
ENDBLK
5
116
330
110
100
AcDbEntity
8
0
100
AcDbBlockEnd
0
ENDSEC
0
SECTION
2
ENTITIES
0
LWPOLYLINE
5
12A
330
10E
100
AcDbEntity
8
A-SHEET
62
117
420
1977660
370
20
100
AcDbPolyline
90
4
70
1
10
8.4666666667
20
8.4666666667
10
288.5722222222
20
8.4666666667
10
288.5722222222
20
201.4361111111
10
8.4666666667
20
201.4361111111
1001
REVECTOR
1000
{"id":"e1","source":{"kind":"path","ids":["p1-1"],"page":1,"operator":4,"ref":"edcf59e7"},"semantic":{"class":null,"confidence":1,"method":"source"}}
0
LINE
5
12B
330
10E
100
AcDbEntity
8
A-SHEET
62
117
420
1977660
370
20
100
AcDbLine
10
8.4666666667
20
183.4444444444
30
0
11
288.5722222222
21
183.4444444444
31
0
1001
REVECTOR
1000
{"id":"e2","source":{"kind":"path","ids":["p1-2"],"page":1,"operator":5,"ref":"84b41a41"},"semantic":{"class":null,"confidence":1,"method":"source"}}
0
TEXT
5
12C
330
10E
100
AcDbEntity
8
A-SHEET
62
117
420
1977660
370
20
100
AcDbText
10
14.8166666667
20
192.6166666667
30
0
40
2.7862388889
1
NORTHLINE  /  PROCESS ENGINEERING
50
0
41
1
7
RV_3291BAF8
71
0
72
5
11
90.0684
21
192.6166666667
31
0
100
AcDbText
73
0
1001
REVECTOR
1000
{"id":"e3","source":{"kind":"text","ids":["p1-3"],"page":1,"operator":10,"ref":"479793eb"},"semantic":{"class":null,"confidence":1,"method":"source"},"font":"Helvetica-Bold"}
0
TEXT
5
12D
330
10E
100
AcDbEntity
8
A-SHEET
62
117
420
1977660
370
20
100
AcDbText
10
14.8166666667
20
187.325
30
0
40
1.8997083333
1
COOLING WATER DISTRIBUTION  -  PROCESS & INSTRUMENTATION DIAGRAM
50
0
41
1
7
RV_BDCF0158
71
0
72
5
11
115.2233958333
21
187.325
31
0
100
AcDbText
73
0
1001
REVECTOR
1000
{"id":"e4","source":{"kind":"text","ids":["p1-4"],"page":1,"operator":16,"ref":"1d8ec567"},"semantic":{"class":null,"confidence":1,"method":"source"},"font":"Helvetica"}
0
TEXT
5
12E
330
10E
100
AcDbEntity
8
A-SHEET
62
117
420
1977660
370
20
100
AcDbText
10
242.7111111111
20
192.6166666667
30
0
40
2.5329444444
1
P&ID  /  CW-104
50
0
41
1
7
RV_3291BAF8
71
0
72
5
11
268.9789444444
21
192.6166666667
31
0
100
AcDbText
73
0
1001
REVECTOR
1000
{"id":"e5","source":{"kind":"text","ids":["p1-5"],"page":1,"operator":21,"ref":"0baa2838"},"semantic":{"class":null,"confidence":1,"method":"source"},"font":"Helvetica-Bold"}
0
TEXT
5
12F
330
10E
100
AcDbEntity
8
A-SHEET
62
117
420
1977660
370
20
100
AcDbText
10
246.2388888889
20
187.325
30
0
40
1.7730611111
1
ISSUE FOR REVIEW     REV C
50
0
41
1
7
RV_BDCF0158
71
0
72
5
11
280.9568083333
21
187.325
31
0
100
AcDbText
73
0
1001
REVECTOR
1000
{"id":"e6","source":{"kind":"text","ids":["p1-6"],"page":1,"operator":26,"ref":"9dd29631"},"semantic":{"class":null,"confidence":1,"method":"source"},"font":"Helvetica"}
0
LINE
5
130
330
10E
100
AcDbEntity
8
A-SHEET
62
117
420
1977660
370
20
100
AcDbLine
10
8.4666666667
20
36.3361111111
30
0
11
288.5722222222
21
36.3361111111
31
0
1001
REVECTOR
1000
{"id":"e7","source":{"kind":"path","ids":["p1-7"],"page":1,"operator":28,"ref":"7296fe85"},"semantic":{"class":null,"confidence":1,"method":"source"}}
0
LINE
5
131
330
10E
100
AcDbEntity
8
A-SHEET
62
117
420
1977660
370
20
100
AcDbLine
10
194.0277777778
20
8.4666666667
30
0
11
194.0277777778
21
36.3361111111
31
0
1001
REVECTOR
1000
{"id":"e8","source":{"kind":"path","ids":["p1-8"],"page":1,"operator":29,"ref":"a31c51bd"},"semantic":{"class":null,"confidence":1,"method":"source"}}
0
LINE
5
132
330
10E
100
AcDbEntity
8
A-SHEET
62
117
420
1977660
370
20
100
AcDbLine
10
238.4777777778
20
8.4666666667
30
0
11
238.4777777778
21
36.3361111111
31
0
1001
REVECTOR
1000
{"id":"e9","source":{"kind":"path","ids":["p1-9"],"page":1,"operator":30,"ref":"f3dce9be"},"semantic":{"class":null,"confidence":1,"method":"source"}}
0
LINE
5
133
330
10E
100
AcDbEntity
8
A-SHEET
62
117
420
1977660
370
20
100
AcDbLine
10
194.0277777778
20
22.225
30
0
11
288.5722222222
21
22.225
31
0
1001
REVECTOR
1000
{"id":"e10","source":{"kind":"path","ids":["p1-10"],"page":1,"operator":31,"ref":"1b3cd415"},"semantic":{"class":null,"confidence":1,"method":"source"}}
0
TEXT
5
134
330
10E
100
AcDbEntity
8
A-SHEET
62
117
420
1977660
370
20
100
AcDbText
10
14.8166666667
20
28.9277777778
30
0
40
2.0263555556
1
DRAWING NOTES
50
0
41
1
7
RV_3291BAF8
71
0
72
5
11
39.1188222222
21
28.9277777778
31
0
100
AcDbText
73
0
1001
REVECTOR
1000
{"id":"e11","source":{"kind":"text","ids":["p1-11"],"page":1,"operator":35,"ref":"511359cf"},"semantic":{"class":null,"confidence":1,"method":"source"},"font":"Helvetica-Bold"}
0
TEXT
5
135
330
10E
100
AcDbEntity
8
A-SHEET
62
117
420
1977660
370
20
100
AcDbText
10
14.8166666667
20
23.9888888889
30
0
40
1.7730611111
1
1. All dimensions in millimetres unless noted otherwise.
50
0
41
1
7
RV_BDCF0158
71
0
72
5
11
75.1995222222
21
23.9888888889
31
0
100
AcDbText
73
0
1001
REVECTOR
1000
{"id":"e12","source":{"kind":"text","ids":["p1-12"],"page":1,"operator":40,"ref":"a66c8850"},"semantic":{"class":null,"confidence":1,"method":"source"},"font":"Helvetica"}
0
TEXT
5
136
330
10E
100
AcDbEntity
8
A-SHEET
62
117
420
1977660
370
20
100
AcDbText
10
14.8166666667
20
19.7555555556
30
0
40
1.7730611111
1
2. Verify equipment and line tags against the approved schedule.
50
0
41
1
7
RV_BDCF0158
71
0
72
5
11
85.7835611111
21
19.7555555556
31
0
100
AcDbText
73
0
1001
REVECTOR
1000
{"id":"e13","source":{"kind":"text","ids":["p1-13"],"page":1,"operator":45,"ref":"e1f82e20"},"semantic":{"class":null,"confidence":1,"method":"source"},"font":"Helvetica"}
0
TEXT
5
137
330
10E
100
AcDbEntity
8
A-SHEET
62
117
420
1977660
370
20
100
AcDbText
10
14.8166666667
20
15.5222222222
30
0
40
1.7730611111
1
3. Vector source fixture: layers, reusable forms, text and cubic paths.
50
0
41
1
7
RV_BDCF0158
71
0
72
5
11
89.8927166667
21
15.5222222222
31
0
100
AcDbText
73
0
1001
REVECTOR
1000
{"id":"e14","source":{"kind":"text","ids":["p1-14"],"page":1,"operator":50,"ref":"be71b2b2"},"semantic":{"class":null,"confidence":1,"method":"source"},"font":"Helvetica"}
0
TEXT
5
138
330
10E
100
AcDbEntity
8
A-SHEET
62
117
420
1977660
370
20
100
AcDbText
10
197.9083333333
20
30.3388888889
30
0
40
1.5197666667
1
DRAWING NUMBER
50
0
41
1
7
RV_BDCF0158
71
0
72
5
11
217.8981333333
21
30.3388888889
31
0
100
AcDbText
73
0
1001
REVECTOR
1000
{"id":"e15","source":{"kind":"text","ids":["p1-15"],"page":1,"operator":55,"ref":"5edc3061"},"semantic":{"class":null,"confidence":1,"method":"source"},"font":"Helvetica"}
0
TEXT
5
139
330
10E
100
AcDbEntity
8
A-SHEET
62
117
420
1977660
370
20
100
AcDbText
10
197.9083333333
20
25.4
30
0
40
2.7862388889
1
NL-CW-104-PID
50
0
41
1
7
RV_3291BAF8
71
0
72
5
11
226.3644472222
21
25.4
31
0
100
AcDbText
73
0
1001
REVECTOR
1000
{"id":"e16","source":{"kind":"text","ids":["p1-16"],"page":1,"operator":60,"ref":"f7df3821"},"semantic":{"class":null,"confidence":1,"method":"source"},"font":"Helvetica-Bold"}
0
TEXT
5
13A
330
10E
100
AcDbEntity
8
A-SHEET
62
117
420
1977660
370
20
100
AcDbText
10
197.9083333333
20
17.2861111111
30
0
40
1.5197666667
1
SCALE
50
0
41
1
7
RV_BDCF0158
71
0
72
5
11
204.8488833333
21
17.2861111111
31
0
100
AcDbText
73
0
1001
REVECTOR
1000
{"id":"e17","source":{"kind":"text","ids":["p1-17"],"page":1,"operator":65,"ref":"e4d7b535"},"semantic":{"class":null,"confidence":1,"method":"source"},"font":"Helvetica"}
0
TEXT
5
13B
330
10E
100
AcDbEntity
8
A-SHEET
62
117
420
1977660
370
20
100
AcDbText
10
197.9083333333
20
12.3472222222
30
0
40
2.27965
1
NTS
50
0
41
1
7
RV_3291BAF8
71
0
72
5
11
204.2583333333
21
12.3472222222
31
0
100
AcDbText
73
0
1001
REVECTOR
1000
{"id":"e18","source":{"kind":"text","ids":["p1-18"],"page":1,"operator":70,"ref":"3162b5df"},"semantic":{"class":null,"confidence":1,"method":"source"},"font":"Helvetica-Bold"}
0
TEXT
5
13C
330
10E
100
AcDbEntity
8
A-SHEET
62
117
420
1977660
370
20
100
AcDbText
10
242.7111111111
20
30.3388888889
30
0
40
1.5197666667
1
REVISION
50
0
41
1
7
RV_BDCF0158
71
0
72
5
11
252.8266611111
21
30.3388888889
31
0
100
AcDbText
73
0
1001
REVECTOR
1000
{"id":"e19","source":{"kind":"text","ids":["p1-19"],"page":1,"operator":75,"ref":"adb7a645"},"semantic":{"class":null,"confidence":1,"method":"source"},"font":"Helvetica"}
0
TEXT
5
13D
330
10E
100
AcDbEntity
8
A-SHEET
62
117
420
1977660
370
20
100
AcDbText
10
242.7111111111
20
25.4
30
0
40
2.5329444444
1
C  /  18 SEP 2026
50
0
41
1
7
RV_3291BAF8
71
0
72
5
11
270.9509722222
21
25.4
31
0
100
AcDbText
73
0
1001
REVECTOR
1000
{"id":"e20","source":{"kind":"text","ids":["p1-20"],"page":1,"operator":80,"ref":"cd53fbc0"},"semantic":{"class":null,"confidence":1,"method":"source"},"font":"Helvetica-Bold"}
0
TEXT
5
13E
330
10E
100
AcDbEntity
8
A-SHEET
62
117
420
1977660
370
20
100
AcDbText
10
242.7111111111
20
17.2861111111
30
0
40
1.5197666667
1
SHEET
50
0
41
1
7
RV_BDCF0158
71
0
72
5
11
249.7680777778
21
17.2861111111
31
0
100
AcDbText
73
0
1001
REVECTOR
1000
{"id":"e21","source":{"kind":"text","ids":["p1-21"],"page":1,"operator":85,"ref":"ed025397"},"semantic":{"class":null,"confidence":1,"method":"source"},"font":"Helvetica"}
0
TEXT
5
13F
330
10E
100
AcDbEntity
8
A-SHEET
62
117
420
1977660
370
20
100
AcDbText
10
242.7111111111
20
12.3472222222
30
0
40
2.27965
1
01 OF 02
50
0
41
1
7
RV_3291BAF8
71
0
72
5
11
255.9476861111
21
12.3472222222
31
0
100
AcDbText
73
0
1001
REVECTOR
1000
{"id":"e22","source":{"kind":"text","ids":["p1-22"],"page":1,"operator":90,"ref":"c2873cbf"},"semantic":{"class":null,"confidence":1,"method":"source"},"font":"Helvetica-Bold"}
0
SPLINE
5
140
330
10E
100
AcDbEntity
8
P-EQUIPMENT
62
137
420
1786969
370
50
100
AcDbSpline
210
0
220
0
230
1
70
8
71
3
72
8
73
4
74
0
42
1e-7
43
1e-7
44
1e-10
40
0
40
0
40
0
40
0
40
1
40
1
40
1
40
1
10
36.6888888889
20
79.0222222222
30
0
10
36.6888888889
20
73.025
30
0
10
75.4944444444
20
73.025
30
0
10
75.4944444444
20
79.0222222222
30
0
1001
REVECTOR
1000
{"id":"e23","source":{"kind":"path","ids":["p1-23"],"page":1,"operator":97,"ref":"e8b31f92"},"semantic":{"class":null,"confidence":1,"method":"source"}}
0
LINE
5
141
330
10E
100
AcDbEntity
8
P-EQUIPMENT
62
137
420
1786969
370
50
100
AcDbLine
10
75.4944444444
20
79.0222222222
30
0
11
75.4944444444
21
129.4694444444
31
0
1001
REVECTOR
1000
{"id":"e24","source":{"kind":"path","ids":["p1-23"],"page":1,"operator":97,"ref":"e8b31f92"},"semantic":{"class":null,"confidence":1,"method":"source"}}
0
SPLINE
5
142
330
10E
100
AcDbEntity
8
P-EQUIPMENT
62
137
420
1786969
370
50
100
AcDbSpline
210
0
220
0
230
1
70
8
71
3
72
8
73
4
74
0
42
1e-7
43
1e-7
44
1e-10
40
0
40
0
40
0
40
0
40
1
40
1
40
1
40
1
10
75.4944444444
20
129.4694444444
30
0
10
75.4944444444
20
135.4666666667
30
0
10
36.6888888889
20
135.4666666667
30
0
10
36.6888888889
20
129.4694444444
30
0
1001
REVECTOR
1000
{"id":"e25","source":{"kind":"path","ids":["p1-23"],"page":1,"operator":97,"ref":"e8b31f92"},"semantic":{"class":null,"confidence":1,"method":"source"}}
0
LINE
5
143
330
10E
100
AcDbEntity
8
P-EQUIPMENT
62
137
420
1786969
370
50
100
AcDbLine
10
36.6888888889
20
129.4694444444
30
0
11
36.6888888889
21
79.0222222222
31
0
1001
REVECTOR
1000
{"id":"e26","source":{"kind":"path","ids":["p1-23"],"page":1,"operator":97,"ref":"e8b31f92"},"semantic":{"class":null,"confidence":1,"method":"source"}}
0
LINE
5
144
330
10E
100
AcDbEntity
8
P-EQUIPMENT
62
137
420
1786969
370
50
100
AcDbLine
10
40.9222222222
20
73.3777777778
30
0
11
38.8055555556
21
66.3222222222
31
0
1001
REVECTOR
1000
{"id":"e27","source":{"kind":"path","ids":["p1-24"],"page":1,"operator":98,"ref":"74f4f2b0"},"semantic":{"class":null,"confidence":1,"method":"source"}}
0
LINE
5
145
330
10E
100
AcDbEntity
8
P-EQUIPMENT
62
137
420
1786969
370
50
100
AcDbLine
10
71.6138888889
20
73.3777777778
30
0
11
73.7305555556
21
66.3222222222
31
0
1001
REVECTOR
1000
{"id":"e28","source":{"kind":"path","ids":["p1-25"],"page":1,"operator":99,"ref":"f961fb46"},"semantic":{"class":null,"confidence":1,"method":"source"}}
0
LINE
5
146
330
10E
100
AcDbEntity
8
P-EQUIPMENT
62
137
420
1786969
370
50
100
AcDbLine
10
35.6305555556
20
66.3222222222
30
0
11
76.9055555556
21
66.3222222222
31
0
1001
REVECTOR
1000
{"id":"e29","source":{"kind":"path","ids":["p1-26"],"page":1,"operator":100,"ref":"1ff5b298"},"semantic":{"class":null,"confidence":1,"method":"source"}}
0
SPLINE
5
147
330
10E
100
AcDbEntity
8
P-EQUIPMENT
62
137
420
1786969
370
50
100
AcDbSpline
210
0
220
0
230
1
70
8
71
3
72
8
73
4
74
0
42
1e-7
43
1e-7
44
1e-10
40
0
40
0
40
0
40
0
40
1
40
1
40
1
40
1
10
132.2916666667
20
103.0111111111
30
0
10
132.2916666667
20
107.1026249356
30
0
10
128.9748471578
20
110.4194444444
30
0
10
124.8833333333
20
110.4194444444
30
0
1001
REVECTOR
1000
{"id":"e30","source":{"kind":"path","ids":["p1-27"],"page":1,"operator":101,"ref":"6aefa76c"},"semantic":{"class":null,"confidence":1,"method":"source"}}
0
SPLINE
5
148
330
10E
100
AcDbEntity
8
P-EQUIPMENT
62
137
420
1786969
370
50
100
AcDbSpline
210
0
220
0
230
1
70
8
71
3
72
8
73
4
74
0
42
1e-7
43
1e-7
44
1e-10
40
0
40
0
40
0
40
0
40
1
40
1
40
1
40
1
10
124.8833333333
20
110.4194444444
30
0
10
120.7918195089
20
110.4194444444
30
0
10
117.475
20
107.1026249356
30
0
10
117.475
20
103.0111111111
30
0
1001
REVECTOR
1000
{"id":"e31","source":{"kind":"path","ids":["p1-27"],"page":1,"operator":101,"ref":"6aefa76c"},"semantic":{"class":null,"confidence":1,"method":"source"}}
0
SPLINE
5
149
330
10E
100
AcDbEntity
8
P-EQUIPMENT
62
137
420
1786969
370
50
100
AcDbSpline
210
0
220
0
230
1
70
8
71
3
72
8
73
4
74
0
42
1e-7
43
1e-7
44
1e-10
40
0
40
0
40
0
40
0
40
1
40
1
40
1
40
1
10
117.475
20
103.0111111111
30
0
10
117.475
20
98.9195972866
30
0
10
120.7918195089
20
95.6027777778
30
0
10
124.8833333333
20
95.6027777778
30
0
1001
REVECTOR
1000
{"id":"e32","source":{"kind":"path","ids":["p1-27"],"page":1,"operator":101,"ref":"6aefa76c"},"semantic":{"class":null,"confidence":1,"method":"source"}}
0
SPLINE
5
14A
330
10E
100
AcDbEntity
8
P-EQUIPMENT
62
137
420
1786969
370
50
100
AcDbSpline
210
0
220
0
230
1
70
8
71
3
72
8
73
4
74
0
42
1e-7
43
1e-7
44
1e-10
40
0
40
0
40
0
40
0
40
1
40
1
40
1
40
1
10
124.8833333333
20
95.6027777778
30
0
10
128.9748471578
20
95.6027777778
30
0
10
132.2916666667
20
98.9195972866
30
0
10
132.2916666667
20
103.0111111111
30
0
1001
REVECTOR
1000
{"id":"e33","source":{"kind":"path","ids":["p1-27"],"page":1,"operator":101,"ref":"6aefa76c"},"semantic":{"class":null,"confidence":1,"method":"source"}}
0
LWPOLYLINE
5
14B
330
10E
100
AcDbEntity
8
P-EQUIPMENT
62
137
420
1786969
370
50
100
AcDbPolyline
90
3
70
1
10
120.2972222222
20
97.7194444444
10
130.5277777778
20
103.0111111111
10
120.2972222222
20
108.3027777778
1001
REVECTOR
1000
{"id":"e34","source":{"kind":"path","ids":["p1-28"],"page":1,"operator":102,"ref":"7e591664"},"semantic":{"class":null,"confidence":1,"method":"source"}}
0
LINE
5
14C
330
10E
100
AcDbEntity
8
P-EQUIPMENT
62
137
420
1786969
370
50
100
AcDbLine
10
120.65
20
96.3083333333
30
0
11
119.2388888889
21
91.7222222222
31
0
1001
REVECTOR
1000
{"id":"e35","source":{"kind":"path","ids":["p1-29"],"page":1,"operator":103,"ref":"2b530c78"},"semantic":{"class":null,"confidence":1,"method":"source"}}
0
LINE
5
14D
330
10E
100
AcDbEntity
8
P-EQUIPMENT
62
137
420
1786969
370
50
100
AcDbLine
10
129.1166666667
20
96.3083333333
30
0
11
130.5277777778
21
91.7222222222
31
0
1001
REVECTOR
1000
{"id":"e36","source":{"kind":"path","ids":["p1-30"],"page":1,"operator":104,"ref":"9e66c91f"},"semantic":{"class":null,"confidence":1,"method":"source"}}
0
LINE
5
14E
330
10E
100
AcDbEntity
8
P-EQUIPMENT
62
137
420
1786969
370
50
100
AcDbLine
10
116.7694444444
20
91.7222222222
30
0
11
132.9972222222
21
91.7222222222
31
0
1001
REVECTOR
1000
{"id":"e37","source":{"kind":"path","ids":["p1-31"],"page":1,"operator":105,"ref":"5102a103"},"semantic":{"class":null,"confidence":1,"method":"source"}}
0
SPLINE
5
14F
330
10E
100
AcDbEntity
8
P-EQUIPMENT
62
137
420
1786969
370
50
100
AcDbSpline
210
0
220
0
230
1
70
8
71
3
72
8
73
4
74
0
42
1e-7
43
1e-7
44
1e-10
40
0
40
0
40
0
40
0
40
1
40
1
40
1
40
1
10
132.2916666667
20
71.2611111111
30
0
10
132.2916666667
20
75.3526195526
30
0
10
128.9748471578
20
78.6694444444
30
0
10
124.8833333333
20
78.6694444444
30
0
1001
REVECTOR
1000
{"id":"e38","source":{"kind":"path","ids":["p1-32"],"page":1,"operator":106,"ref":"4b9603ff"},"semantic":{"class":null,"confidence":1,"method":"source"}}
0
SPLINE
5
150
330
10E
100
AcDbEntity
8
P-EQUIPMENT
62
137
420
1786969
370
50
100
AcDbSpline
210
0
220
0
230
1
70
8
71
3
72
8
73
4
74
0
42
1e-7
43
1e-7
44
1e-10
40
0
40
0
40
0
40
0
40
1
40
1
40
1
40
1
10
124.8833333333
20
78.6694444444
30
0
10
120.7918195089
20
78.6694444444
30
0
10
117.475
20
75.3526195526
30
0
10
117.475
20
71.2611111111
30
0
1001
REVECTOR
1000
{"id":"e39","source":{"kind":"path","ids":["p1-32"],"page":1,"operator":106,"ref":"4b9603ff"},"semantic":{"class":null,"confidence":1,"method":"source"}}
0
SPLINE
5
151
330
10E
100
AcDbEntity
8
P-EQUIPMENT
62
137
420
1786969
370
50
100
AcDbSpline
210
0
220
0
230
1
70
8
71
3
72
8
73
4
74
0
42
1e-7
43
1e-7
44
1e-10
40
0
40
0
40
0
40
0
40
1
40
1
40
1
40
1
10
117.475
20
71.2611111111
30
0
10
117.475
20
67.1696026696
30
0
10
120.7918195089
20
63.8527777778
30
0
10
124.8833333333
20
63.8527777778
30
0
1001
REVECTOR
1000
{"id":"e40","source":{"kind":"path","ids":["p1-32"],"page":1,"operator":106,"ref":"4b9603ff"},"semantic":{"class":null,"confidence":1,"method":"source"}}
0
SPLINE
5
152
330
10E
100
AcDbEntity
8
P-EQUIPMENT
62
137
420
1786969
370
50
100
AcDbSpline
210
0
220
0
230
1
70
8
71
3
72
8
73
4
74
0
42
1e-7
43
1e-7
44
1e-10
40
0
40
0
40
0
40
0
40
1
40
1
40
1
40
1
10
124.8833333333
20
63.8527777778
30
0
10
128.9748471578
20
63.8527777778
30
0
10
132.2916666667
20
67.1696026696
30
0
10
132.2916666667
20
71.2611111111
30
0
1001
REVECTOR
1000
{"id":"e41","source":{"kind":"path","ids":["p1-32"],"page":1,"operator":106,"ref":"4b9603ff"},"semantic":{"class":null,"confidence":1,"method":"source"}}
0
LWPOLYLINE
5
153
330
10E
100
AcDbEntity
8
P-EQUIPMENT
62
137
420
1786969
370
50
100
AcDbPolyline
90
3
70
1
10
120.2972222222
20
65.9694444444
10
130.5277777778
20
71.2611111111
10
120.2972222222
20
76.5527777778
1001
REVECTOR
1000
{"id":"e42","source":{"kind":"path","ids":["p1-33"],"page":1,"operator":107,"ref":"f4fe7503"},"semantic":{"class":null,"confidence":1,"method":"source"}}
0
LINE
5
154
330
10E
100
AcDbEntity
8
P-EQUIPMENT
62
137
420
1786969
370
50
100
AcDbLine
10
120.65
20
64.5583333333
30
0
11
119.2388888889
21
59.9722222222
31
0
1001
REVECTOR
1000
{"id":"e43","source":{"kind":"path","ids":["p1-34"],"page":1,"operator":108,"ref":"dcadff37"},"semantic":{"class":null,"confidence":1,"method":"source"}}
0
LINE
5
155
330
10E
100
AcDbEntity
8
P-EQUIPMENT
62
137
420
1786969
370
50
100
AcDbLine
10
129.1166666667
20
64.5583333333
30
0
11
130.5277777778
21
59.9722222222
31
0
1001
REVECTOR
1000
{"id":"e44","source":{"kind":"path","ids":["p1-35"],"page":1,"operator":109,"ref":"9bf4cbe3"},"semantic":{"class":null,"confidence":1,"method":"source"}}
0
LINE
5
156
330
10E
100
AcDbEntity
8
P-EQUIPMENT
62
137
420
1786969
370
50
100
AcDbLine
10
116.7694444444
20
59.9722222222
30
0
11
132.9972222222
21
59.9722222222
31
0
1001
REVECTOR
1000
{"id":"e45","source":{"kind":"path","ids":["p1-36"],"page":1,"operator":110,"ref":"3dbcc210"},"semantic":{"class":null,"confidence":1,"method":"source"}}
0
LWPOLYLINE
5
157
330
10E
100
AcDbEntity
8
P-EQUIPMENT
62
137
420
1786969
370
50
100
AcDbPolyline
90
4
70
1
10
214.1361111111
20
84.6666666667
10
237.4194444444
20
84.6666666667
10
237.4194444444
20
132.2916666667
10
214.1361111111
20
132.2916666667
1001
REVECTOR
1000
{"id":"e46","source":{"kind":"path","ids":["p1-37"],"page":1,"operator":111,"ref":"bb443ce8"},"semantic":{"class":null,"confidence":1,"method":"source"}}
0
SPLINE
5
158
330
10E
100
AcDbEntity
8
P-EQUIPMENT
62
137
420
1786969
370
50
100
AcDbSpline
210
0
220
0
230
1
70
8
71
3
72
8
73
4
74
0
42
1e-7
43
1e-7
44
1e-10
40
0
40
0
40
0
40
0
40
1
40
1
40
1
40
1
10
233.1861111111
20
108.3027777778
30
0
10
233.1861111111
20
112.3942916022
30
0
10
229.8692808363
20
115.7111111111
30
0
10
225.7777777778
20
115.7111111111
30
0
1001
REVECTOR
1000
{"id":"e47","source":{"kind":"path","ids":["p1-38"],"page":1,"operator":112,"ref":"1338d478"},"semantic":{"class":null,"confidence":1,"method":"source"}}
0
SPLINE
5
159
330
10E
100
AcDbEntity
8
P-EQUIPMENT
62
137
420
1786969
370
50
100
AcDbSpline
210
0
220
0
230
1
70
8
71
3
72
8
73
4
74
0
42
1e-7
43
1e-7
44
1e-10
40
0
40
0
40
0
40
0
40
1
40
1
40
1
40
1
10
225.7777777778
20
115.7111111111
30
0
10
221.6862747192
20
115.7111111111
30
0
10
218.3694444444
20
112.3942916022
30
0
10
218.3694444444
20
108.3027777778
30
0
1001
REVECTOR
1000
{"id":"e48","source":{"kind":"path","ids":["p1-38"],"page":1,"operator":112,"ref":"1338d478"},"semantic":{"class":null,"confidence":1,"method":"source"}}
0
SPLINE
5
15A
330
10E
100
AcDbEntity
8
P-EQUIPMENT
62
137
420
1786969
370
50
100
AcDbSpline
210
0
220
0
230
1
70
8
71
3
72
8
73
4
74
0
42
1e-7
43
1e-7
44
1e-10
40
0
40
0
40
0
40
0
40
1
40
1
40
1
40
1
10
218.3694444444
20
108.3027777778
30
0
10
218.3694444444
20
104.2112639533
30
0
10
221.6862747192
20
100.8944444444
30
0
10
225.7777777778
20
100.8944444444
30
0
1001
REVECTOR
1000
{"id":"e49","source":{"kind":"path","ids":["p1-38"],"page":1,"operator":112,"ref":"1338d478"},"semantic":{"class":null,"confidence":1,"method":"source"}}
0
SPLINE
5
15B
330
10E
100
AcDbEntity
8
P-EQUIPMENT
62
137
420
1786969
370
50
100
AcDbSpline
210
0
220
0
230
1
70
8
71
3
72
8
73
4
74
0
42
1e-7
43
1e-7
44
1e-10
40
0
40
0
40
0
40
0
40
1
40
1
40
1
40
1
10
225.7777777778
20
100.8944444444
30
0
10
229.8692808363
20
100.8944444444
30
0
10
233.1861111111
20
104.2112639533
30
0
10
233.1861111111
20
108.3027777778
30
0
1001
REVECTOR
1000
{"id":"e50","source":{"kind":"path","ids":["p1-38"],"page":1,"operator":112,"ref":"1338d478"},"semantic":{"class":null,"confidence":1,"method":"source"}}
0
SPLINE
5
15C
330
10E
100
AcDbEntity
8
P-EQUIPMENT
62
137
420
1786969
370
50
100
AcDbSpline
210
0
220
0
230
1
70
8
71
3
72
8
73
4
74
0
42
1e-7
43
1e-7
44
1e-10
40
0
40
0
40
0
40
0
40
1
40
1
40
1
40
1
10
216.9583333333
20
105.4805555556
30
0
10
220.4861111111
20
116.7694444444
30
0
10
231.0694444444
20
99.4833333333
30
0
10
234.5972222222
20
110.7722222222
30
0
1001
REVECTOR
1000
{"id":"e51","source":{"kind":"path","ids":["p1-39"],"page":1,"operator":113,"ref":"f9f152e0"},"semantic":{"class":null,"confidence":1,"method":"source"}}
0
LINE
5
15D
330
10E
100
AcDbEntity
8
P-EQUIPMENT
62
137
420
1786969
370
50
100
AcDbLine
10
217.6638888889
20
84.6666666667
30
0
11
217.6638888889
21
77.6111111111
31
0
1001
REVECTOR
1000
{"id":"e52","source":{"kind":"path","ids":["p1-40"],"page":1,"operator":114,"ref":"70dfb3c1"},"semantic":{"class":null,"confidence":1,"method":"source"}}
0
LINE
5
15E
330
10E
100
AcDbEntity
8
P-EQUIPMENT
62
137
420
1786969
370
50
100
AcDbLine
10
233.8916666667
20
84.6666666667
30
0
11
233.8916666667
21
77.6111111111
31
0
1001
REVECTOR
1000
{"id":"e53","source":{"kind":"path","ids":["p1-41"],"page":1,"operator":115,"ref":"be38fc19"},"semantic":{"class":null,"confidence":1,"method":"source"}}
0
LINE
5
15F
330
10E
100
AcDbEntity
8
P-EQUIPMENT
62
137
420
1786969
370
50
100
AcDbLine
10
213.4305555556
20
77.6111111111
30
0
11
238.125
21
77.6111111111
31
0
1001
REVECTOR
1000
{"id":"e54","source":{"kind":"path","ids":["p1-42"],"page":1,"operator":116,"ref":"69047cbd"},"semantic":{"class":null,"confidence":1,"method":"source"}}
0
LINE
5
160
330
10E
100
AcDbEntity
8
P-PIPEWORK
62
144
420
1861500
370
53
100
AcDbLine
10
19.4027777778
20
127
30
0
11
36.6888888889
21
127
31
0
1001
REVECTOR
1000
{"id":"e55","source":{"kind":"path","ids":["p1-43"],"page":1,"operator":122,"ref":"6f7f5f22"},"semantic":{"class":null,"confidence":1,"method":"source"}}
0
LWPOLYLINE
5
161
330
10E
100
AcDbEntity
8
P-PIPEWORK
62
144
420
1861500
370
53
100
AcDbPolyline
90
4
70
0
10
75.4944444444
20
102.3055555556
10
93.8388888889
20
102.3055555556
10
93.8388888889
20
103.0111111111
10
117.475
20
103.0111111111
1001
REVECTOR
1000
{"id":"e56","source":{"kind":"path","ids":["p1-44"],"page":1,"operator":123,"ref":"70a36b18"},"semantic":{"class":null,"confidence":1,"method":"source"}}
0
LWPOLYLINE
5
162
330
10E
100
AcDbEntity
8
P-PIPEWORK
62
144
420
1861500
370
53
100
AcDbPolyline
90
3
70
0
10
93.8388888889
20
102.3055555556
10
93.8388888889
20
71.2611111111
10
117.475
20
71.2611111111
1001
REVECTOR
1000
{"id":"e57","source":{"kind":"path","ids":["p1-45"],"page":1,"operator":124,"ref":"c7eb5f22"},"semantic":{"class":null,"confidence":1,"method":"source"}}
0
LWPOLYLINE
5
163
330
10E
100
AcDbEntity
8
P-PIPEWORK
62
144
420
1861500
370
53
100
AcDbPolyline
90
4
70
0
10
132.2916666667
20
103.0111111111
10
167.5694444444
20
103.0111111111
10
167.5694444444
20
108.3027777778
10
214.1361111111
20
108.3027777778
1001
REVECTOR
1000
{"id":"e58","source":{"kind":"path","ids":["p1-46"],"page":1,"operator":125,"ref":"8b686b5c"},"semantic":{"class":null,"confidence":1,"method":"source"}}
0
LWPOLYLINE
5
164
330
10E
100
AcDbEntity
8
P-PIPEWORK
62
144
420
1861500
370
53
100
AcDbPolyline
90
3
70
0
10
132.2916666667
20
71.2611111111
10
167.5694444444
20
71.2611111111
10
167.5694444444
20
103.0111111111
1001
REVECTOR
1000
{"id":"e59","source":{"kind":"path","ids":["p1-47"],"page":1,"operator":126,"ref":"4e23927a"},"semantic":{"class":null,"confidence":1,"method":"source"}}
0
LWPOLYLINE
5
165
330
10E
100
AcDbEntity
8
P-PIPEWORK
62
144
420
1861500
370
53
100
AcDbPolyline
90
5
70
0
10
237.4194444444
20
108.3027777778
10
267.4055555556
20
108.3027777778
10
267.4055555556
20
149.225
10
58.5611111111
20
149.225
10
58.5611111111
20
135.4666666667
1001
REVECTOR
1000
{"id":"e60","source":{"kind":"path","ids":["p1-48"],"page":1,"operator":127,"ref":"30ed45f8"},"semantic":{"class":null,"confidence":1,"method":"source"}}
0
INSERT
5
166
330
10E
100
AcDbEntity
8
P-PIPEWORK
62
144
420
1861500
370
30
100
AcDbBlockReference
2
PDF_FORM_4FBBE2D5_0
10
103.3638888889
20
103.0111111111
30
0
41
0.3527777778
42
0.3527777778
43
1
50
0
1001
REVECTOR
1000
{"id":"e155","source":{"ids":["p1-49","p1-50","p1-51"],"page":1,"form":"form-1-0","ref":"b196e0d1"},"semantic":{"class":"form-xobject","confidence":1,"method":"source"}}
0
INSERT
5
167
330
10E
100
AcDbEntity
8
P-PIPEWORK
62
144
420
1861500
370
30
100
AcDbBlockReference
2
PDF_FORM_4FBBE2D5_0
10
146.05
20
103.0111111111
30
0
41
0.3527777778
42
0.3527777778
43
1
50
0
1001
REVECTOR
1000
{"id":"e154","source":{"ids":["p1-52","p1-53","p1-54"],"page":1,"form":"form-1-1","ref":"3506f358"},"semantic":{"class":"form-xobject","confidence":1,"method":"source"}}
0
INSERT
5
168
330
10E
100
AcDbEntity
8
P-PIPEWORK
62
144
420
1861500
370
30
100
AcDbBlockReference
2
PDF_FORM_4FBBE2D5_0
10
103.3638888889
20
71.2611111111
30
0
41
0.3527777778
42
0.3527777778
43
1
50
0
1001
REVECTOR
1000
{"id":"e153","source":{"ids":["p1-55","p1-56","p1-57"],"page":1,"form":"form-1-2","ref":"06edc9ce"},"semantic":{"class":"form-xobject","confidence":1,"method":"source"}}
0
INSERT
5
169
330
10E
100
AcDbEntity
8
P-PIPEWORK
62
144
420
1861500
370
30
100
AcDbBlockReference
2
PDF_FORM_4FBBE2D5_0
10
146.05
20
71.2611111111
30
0
41
0.3527777778
42
0.3527777778
43
1
50
0
1001
REVECTOR
1000
{"id":"e152","source":{"ids":["p1-58","p1-59","p1-60"],"page":1,"form":"form-1-3","ref":"3e13c0f1"},"semantic":{"class":"form-xobject","confidence":1,"method":"source"}}
0
INSERT
5
16A
330
10E
100
AcDbEntity
8
P-PIPEWORK
62
144
420
1861500
370
30
100
AcDbBlockReference
2
PDF_FORM_4FBBE2D5_0
10
197.5555555556
20
108.3027777778
30
0
41
0.3527777778
42
0.3527777778
43
1
50
0
1001
REVECTOR
1000
{"id":"e151","source":{"ids":["p1-61","p1-62","p1-63"],"page":1,"form":"form-1-4","ref":"669340cb"},"semantic":{"class":"form-xobject","confidence":1,"method":"source"}}
0
INSERT
5
16B
330
10E
100
AcDbEntity
8
P-PIPEWORK
62
144
420
1861500
370
30
100
AcDbBlockReference
2
PDF_FORM_4FBBE2D5_0
10
251.8833333333
20
108.3027777778
30
0
41
0.3527777778
42
0.3527777778
43
1
50
0
1001
REVECTOR
1000
{"id":"e150","source":{"ids":["p1-64","p1-65","p1-66"],"page":1,"form":"form-1-5","ref":"3edcedc9"},"semantic":{"class":"form-xobject","confidence":1,"method":"source"}}
0
HATCH
5
16C
330
10E
100
AcDbEntity
8
P-PIPEWORK
62
144
420
1861500
370
53
100
AcDbHatch
10
0
20
0
30
0
210
0
220
0
230
1
2
SOLID
70
1
71
0
91
1
92
2
72
0
73
1
93
3
10
25.4
20
125.9416666667
10
27.8694444444
20
127
10
25.4
20
128.0583333333
97
0
75
0
76
1
98
0
1001
REVECTOR
1000
{"id":"e79","source":{"kind":"path","ids":["p1-67"],"page":1,"operator":182,"ref":"a1beb59a"},"semantic":{"class":null,"confidence":1,"method":"source"}}
0
HATCH
5
16D
330
10E
100
AcDbEntity
8
P-PIPEWORK
62
144
420
1861500
370
53
100
AcDbHatch
10
0
20
0
30
0
210
0
220
0
230
1
2
SOLID
70
1
71
0
91
1
92
2
72
0
73
1
93
3
10
184.15
20
107.2444444444
10
186.6194444444
20
108.3027777778
10
184.15
20
109.3611111111
97
0
75
0
76
1
98
0
1001
REVECTOR
1000
{"id":"e80","source":{"kind":"path","ids":["p1-68"],"page":1,"operator":183,"ref":"4b48bd54"},"semantic":{"class":null,"confidence":1,"method":"source"}}
0
HATCH
5
16E
330
10E
100
AcDbEntity
8
P-PIPEWORK
62
144
420
1861500
370
53
100
AcDbHatch
10
0
20
0
30
0
210
0
220
0
230
1
2
SOLID
70
1
71
0
91
1
92
2
72
0
73
1
93
3
10
248.3555555556
20
148.1666666667
10
250.825
20
149.225
10
248.3555555556
20
150.2833333333
97
0
75
0
76
1
98
0
1001
REVECTOR
1000
{"id":"e81","source":{"kind":"path","ids":["p1-69"],"page":1,"operator":184,"ref":"dc3bb472"},"semantic":{"class":null,"confidence":1,"method":"source"}}
0
LINE
5
16F
330
10E
100
AcDbEntity
8
I-INSTRUMENTS
62
35
420
9263924
6
RV_DASH_F9F191B4
370
25
100
AcDbLine
10
56.0916666667
20
74.4361111111
30
0
11
56.0916666667
21
136.8777777778
31
0
1001
REVECTOR
1000
{"id":"e82","source":{"kind":"path","ids":["p1-70"],"page":1,"operator":191,"ref":"68e4e8f7"},"semantic":{"class":null,"confidence":1,"method":"source"}}
0
LINE
5
170
330
10E
100
AcDbEntity
8
I-INSTRUMENTS
62
35
420
9263924
6
RV_DASH_F9F191B4
370
25
100
AcDbLine
10
33.1611111111
20
104.4222222222
30
0
11
79.0222222222
21
104.4222222222
31
0
1001
REVECTOR
1000
{"id":"e83","source":{"kind":"path","ids":["p1-71"],"page":1,"operator":192,"ref":"888fd2a5"},"semantic":{"class":null,"confidence":1,"method":"source"}}
0
SPLINE
5
171
330
10E
100
AcDbEntity
8
I-INSTRUMENTS
62
35
420
9263924
370
25
100
AcDbSpline
210
0
220
0
230
1
70
8
71
3
72
8
73
4
74
0
42
1e-7
43
1e-7
44
1e-10
40
0
40
0
40
0
40
0
40
1
40
1
40
1
40
1
10
87.4888888889
20
124.8833333333
30
0
10
87.4888888889
20
127.4161675347
30
0
10
85.4356173621
20
129.4694444444
30
0
10
82.9027777778
20
129.4694444444
30
0
1001
REVECTOR
1000
{"id":"e84","source":{"kind":"path","ids":["p1-72"],"page":1,"operator":194,"ref":"358d75e2"},"semantic":{"class":null,"confidence":1,"method":"source"}}
0
SPLINE
5
172
330
10E
100
AcDbEntity
8
I-INSTRUMENTS
62
35
420
9263924
370
25
100
AcDbSpline
210
0
220
0
230
1
70
8
71
3
72
8
73
4
74
0
42
1e-7
43
1e-7
44
1e-10
40
0
40
0
40
0
40
0
40
1
40
1
40
1
40
1
10
82.9027777778
20
129.4694444444
30
0
10
80.3699381934
20
129.4694444444
30
0
10
78.3166666667
20
127.4161675347
30
0
10
78.3166666667
20
124.8833333333
30
0
1001
REVECTOR
1000
{"id":"e85","source":{"kind":"path","ids":["p1-72"],"page":1,"operator":194,"ref":"358d75e2"},"semantic":{"class":null,"confidence":1,"method":"source"}}
0
SPLINE
5
173
330
10E
100
AcDbEntity
8
I-INSTRUMENTS
62
35
420
9263924
370
25
100
AcDbSpline
210
0
220
0
230
1
70
8
71
3
72
8
73
4
74
0
42
1e-7
43
1e-7
44
1e-10
40
0
40
0
40
0
40
0
40
1
40
1
40
1
40
1
10
78.3166666667
20
124.8833333333
30
0
10
78.3166666667
20
122.3504991319
30
0
10
80.3699381934
20
120.2972222222
30
0
10
82.9027777778
20
120.2972222222
30
0
1001
REVECTOR
1000
{"id":"e86","source":{"kind":"path","ids":["p1-72"],"page":1,"operator":194,"ref":"358d75e2"},"semantic":{"class":null,"confidence":1,"method":"source"}}
0
SPLINE
5
174
330
10E
100
AcDbEntity
8
I-INSTRUMENTS
62
35
420
9263924
370
25
100
AcDbSpline
210
0
220
0
230
1
70
8
71
3
72
8
73
4
74
0
42
1e-7
43
1e-7
44
1e-10
40
0
40
0
40
0
40
0
40
1
40
1
40
1
40
1
10
82.9027777778
20
120.2972222222
30
0
10
85.4356173621
20
120.2972222222
30
0
10
87.4888888889
20
122.3504991319
30
0
10
87.4888888889
20
124.8833333333
30
0
1001
REVECTOR
1000
{"id":"e87","source":{"kind":"path","ids":["p1-72"],"page":1,"operator":194,"ref":"358d75e2"},"semantic":{"class":null,"confidence":1,"method":"source"}}
0
LINE
5
175
330
10E
100
AcDbEntity
8
I-INSTRUMENTS
62
35
420
9263924
370
25
100
AcDbLine
10
78.3166666667
20
124.8833333333
30
0
11
87.4888888889
21
124.8833333333
31
0
1001
REVECTOR
1000
{"id":"e88","source":{"kind":"path","ids":["p1-73"],"page":1,"operator":195,"ref":"2eb5468a"},"semantic":{"class":null,"confidence":1,"method":"source"}}
0
TEXT
5
176
330
10E
100
AcDbEntity
8
I-INSTRUMENTS
62
35
420
9263924
370
25
100
AcDbText
10
80.7861111111
20
125.9416666667
30
0
40
1.7730611111
1
LT
50
0
41
1
7
RV_BDCF0158
71
0
72
5
11
83.6679527778
21
125.9416666667
31
0
100
AcDbText
73
0
1001
REVECTOR
1000
{"id":"e89","source":{"kind":"text","ids":["p1-74"],"page":1,"operator":199,"ref":"3097593c"},"semantic":{"class":null,"confidence":1,"method":"source"},"font":"Helvetica"}
0
TEXT
5
177
330
10E
100
AcDbEntity
8
I-INSTRUMENTS
62
35
420
9263924
370
25
100
AcDbText
10
80.7861111111
20
121.7083333333
30
0
40
1.7730611111
1
101
50
0
41
1
7
RV_BDCF0158
71
0
72
5
11
84.9051444444
21
121.7083333333
31
0
100
AcDbText
73
0
1001
REVECTOR
1000
{"id":"e90","source":{"kind":"text","ids":["p1-75"],"page":1,"operator":204,"ref":"ecbfd293"},"semantic":{"class":null,"confidence":1,"method":"source"},"font":"Helvetica"}
0
LINE
5
178
330
10E
100
AcDbEntity
8
I-INSTRUMENTS
62
35
420
9263924
6
RV_DASH_11BE837B
370
25
100
AcDbLine
10
82.9027777778
20
120.2972222222
30
0
11
82.9027777778
21
102.3055555556
31
0
1001
REVECTOR
1000
{"id":"e91","source":{"kind":"path","ids":["p1-76"],"page":1,"operator":207,"ref":"dbe3d8e7"},"semantic":{"class":null,"confidence":1,"method":"source"}}
0
SPLINE
5
179
330
10E
100
AcDbEntity
8
I-INSTRUMENTS
62
35
420
9263924
370
25
100
AcDbSpline
210
0
220
0
230
1
70
8
71
3
72
8
73
4
74
0
42
1e-7
43
1e-7
44
1e-10
40
0
40
0
40
0
40
0
40
1
40
1
40
1
40
1
10
184.8555555556
20
128.7638888889
30
0
10
184.8555555556
20
131.2967230903
30
0
10
182.8022786458
20
133.35
30
0
10
180.2694444444
20
133.35
30
0
1001
REVECTOR
1000
{"id":"e92","source":{"kind":"path","ids":["p1-77"],"page":1,"operator":209,"ref":"06de578a"},"semantic":{"class":null,"confidence":1,"method":"source"}}
0
SPLINE
5
17A
330
10E
100
AcDbEntity
8
I-INSTRUMENTS
62
35
420
9263924
370
25
100
AcDbSpline
210
0
220
0
230
1
70
8
71
3
72
8
73
4
74
0
42
1e-7
43
1e-7
44
1e-10
40
0
40
0
40
0
40
0
40
1
40
1
40
1
40
1
10
180.2694444444
20
133.35
30
0
10
177.7366102431
20
133.35
30
0
10
175.6833333333
20
131.2967230903
30
0
10
175.6833333333
20
128.7638888889
30
0
1001
REVECTOR
1000
{"id":"e93","source":{"kind":"path","ids":["p1-77"],"page":1,"operator":209,"ref":"06de578a"},"semantic":{"class":null,"confidence":1,"method":"source"}}
0
SPLINE
5
17B
330
10E
100
AcDbEntity
8
I-INSTRUMENTS
62
35
420
9263924
370
25
100
AcDbSpline
210
0
220
0
230
1
70
8
71
3
72
8
73
4
74
0
42
1e-7
43
1e-7
44
1e-10
40
0
40
0
40
0
40
0
40
1
40
1
40
1
40
1
10
175.6833333333
20
128.7638888889
30
0
10
175.6833333333
20
126.2310546875
30
0
10
177.7366102431
20
124.1777777778
30
0
10
180.2694444444
20
124.1777777778
30
0
1001
REVECTOR
1000
{"id":"e94","source":{"kind":"path","ids":["p1-77"],"page":1,"operator":209,"ref":"06de578a"},"semantic":{"class":null,"confidence":1,"method":"source"}}
0
SPLINE
5
17C
330
10E
100
AcDbEntity
8
I-INSTRUMENTS
62
35
420
9263924
370
25
100
AcDbSpline
210
0
220
0
230
1
70
8
71
3
72
8
73
4
74
0
42
1e-7
43
1e-7
44
1e-10
40
0
40
0
40
0
40
0
40
1
40
1
40
1
40
1
10
180.2694444444
20
124.1777777778
30
0
10
182.8022786458
20
124.1777777778
30
0
10
184.8555555556
20
126.2310546875
30
0
10
184.8555555556
20
128.7638888889
30
0
1001
REVECTOR
1000
{"id":"e95","source":{"kind":"path","ids":["p1-77"],"page":1,"operator":209,"ref":"06de578a"},"semantic":{"class":null,"confidence":1,"method":"source"}}
0
LINE
5
17D
330
10E
100
AcDbEntity
8
I-INSTRUMENTS
62
35
420
9263924
370
25
100
AcDbLine
10
175.6833333333
20
128.7638888889
30
0
11
184.8555555556
21
128.7638888889
31
0
1001
REVECTOR
1000
{"id":"e96","source":{"kind":"path","ids":["p1-78"],"page":1,"operator":210,"ref":"84e52085"},"semantic":{"class":null,"confidence":1,"method":"source"}}
0
TEXT
5
17E
330
10E
100
AcDbEntity
8
I-INSTRUMENTS
62
35
420
9263924
370
25
100
AcDbText
10
178.1527777778
20
129.8222222222
30
0
40
1.7730611111
1
PT
50
0
41
1
7
RV_BDCF0158
71
0
72
5
11
181.3087277778
21
129.8222222222
31
0
100
AcDbText
73
0
1001
REVECTOR
1000
{"id":"e97","source":{"kind":"text","ids":["p1-79"],"page":1,"operator":214,"ref":"9c9294a0"},"semantic":{"class":null,"confidence":1,"method":"source"},"font":"Helvetica"}
0
TEXT
5
17F
330
10E
100
AcDbEntity
8
I-INSTRUMENTS
62
35
420
9263924
370
25
100
AcDbText
10
178.1527777778
20
125.5888888889
30
0
40
1.7730611111
1
101
50
0
41
1
7
RV_BDCF0158
71
0
72
5
11
182.2718111111
21
125.5888888889
31
0
100
AcDbText
73
0
1001
REVECTOR
1000
{"id":"e98","source":{"kind":"text","ids":["p1-80"],"page":1,"operator":219,"ref":"4a253d3f"},"semantic":{"class":null,"confidence":1,"method":"source"},"font":"Helvetica"}
0
LINE
5
180
330
10E
100
AcDbEntity
8
I-INSTRUMENTS
62
35
420
9263924
6
RV_DASH_11BE837B
370
25
100
AcDbLine
10
180.2694444444
20
124.1777777778
30
0
11
180.2694444444
21
108.3027777778
31
0
1001
REVECTOR
1000
{"id":"e99","source":{"kind":"path","ids":["p1-81"],"page":1,"operator":222,"ref":"a6b99728"},"semantic":{"class":null,"confidence":1,"method":"source"}}
0
SPLINE
5
181
330
10E
100
AcDbEntity
8
I-INSTRUMENTS
62
35
420
9263924
370
25
100
AcDbSpline
210
0
220
0
230
1
70
8
71
3
72
8
73
4
74
0
42
1e-7
43
1e-7
44
1e-10
40
0
40
0
40
0
40
0
40
1
40
1
40
1
40
1
10
259.2916666667
20
129.4694444444
30
0
10
259.2916666667
20
132.0022786458
30
0
10
257.2383897569
20
134.0555555556
30
0
10
254.7055555556
20
134.0555555556
30
0
1001
REVECTOR
1000
{"id":"e100","source":{"kind":"path","ids":["p1-82"],"page":1,"operator":224,"ref":"00024c4f"},"semantic":{"class":null,"confidence":1,"method":"source"}}
0
SPLINE
5
182
330
10E
100
AcDbEntity
8
I-INSTRUMENTS
62
35
420
9263924
370
25
100
AcDbSpline
210
0
220
0
230
1
70
8
71
3
72
8
73
4
74
0
42
1e-7
43
1e-7
44
1e-10
40
0
40
0
40
0
40
0
40
1
40
1
40
1
40
1
10
254.7055555556
20
134.0555555556
30
0
10
252.1727213542
20
134.0555555556
30
0
10
250.1194444444
20
132.0022786458
30
0
10
250.1194444444
20
129.4694444444
30
0
1001
REVECTOR
1000
{"id":"e101","source":{"kind":"path","ids":["p1-82"],"page":1,"operator":224,"ref":"00024c4f"},"semantic":{"class":null,"confidence":1,"method":"source"}}
0
SPLINE
5
183
330
10E
100
AcDbEntity
8
I-INSTRUMENTS
62
35
420
9263924
370
25
100
AcDbSpline
210
0
220
0
230
1
70
8
71
3
72
8
73
4
74
0
42
1e-7
43
1e-7
44
1e-10
40
0
40
0
40
0
40
0
40
1
40
1
40
1
40
1
10
250.1194444444
20
129.4694444444
30
0
10
250.1194444444
20
126.9366102431
30
0
10
252.1727213542
20
124.8833333333
30
0
10
254.7055555556
20
124.8833333333
30
0
1001
REVECTOR
1000
{"id":"e102","source":{"kind":"path","ids":["p1-82"],"page":1,"operator":224,"ref":"00024c4f"},"semantic":{"class":null,"confidence":1,"method":"source"}}
0
SPLINE
5
184
330
10E
100
AcDbEntity
8
I-INSTRUMENTS
62
35
420
9263924
370
25
100
AcDbSpline
210
0
220
0
230
1
70
8
71
3
72
8
73
4
74
0
42
1e-7
43
1e-7
44
1e-10
40
0
40
0
40
0
40
0
40
1
40
1
40
1
40
1
10
254.7055555556
20
124.8833333333
30
0
10
257.2383897569
20
124.8833333333
30
0
10
259.2916666667
20
126.9366102431
30
0
10
259.2916666667
20
129.4694444444
30
0
1001
REVECTOR
1000
{"id":"e103","source":{"kind":"path","ids":["p1-82"],"page":1,"operator":224,"ref":"00024c4f"},"semantic":{"class":null,"confidence":1,"method":"source"}}
0
LINE
5
185
330
10E
100
AcDbEntity
8
I-INSTRUMENTS
62
35
420
9263924
370
25
100
AcDbLine
10
250.1194444444
20
129.4694444444
30
0
11
259.2916666667
21
129.4694444444
31
0
1001
REVECTOR
1000
{"id":"e104","source":{"kind":"path","ids":["p1-83"],"page":1,"operator":225,"ref":"7e187397"},"semantic":{"class":null,"confidence":1,"method":"source"}}
0
TEXT
5
186
330
10E
100
AcDbEntity
8
I-INSTRUMENTS
62
35
420
9263924
370
25
100
AcDbText
10
252.5888888889
20
130.5277777778
30
0
40
1.7730611111
1
TT
50
0
41
1
7
RV_BDCF0158
71
0
72
5
11
255.60655
21
130.5277777778
31
0
100
AcDbText
73
0
1001
REVECTOR
1000
{"id":"e105","source":{"kind":"text","ids":["p1-84"],"page":1,"operator":229,"ref":"ff1d67bb"},"semantic":{"class":null,"confidence":1,"method":"source"},"font":"Helvetica"}
0
TEXT
5
187
330
10E
100
AcDbEntity
8
I-INSTRUMENTS
62
35
420
9263924
370
25
100
AcDbText
10
252.5888888889
20
126.2944444444
30
0
40
1.7730611111
1
101
50
0
41
1
7
RV_BDCF0158
71
0
72
5
11
256.7079222222
21
126.2944444444
31
0
100
AcDbText
73
0
1001
REVECTOR
1000
{"id":"e106","source":{"kind":"text","ids":["p1-85"],"page":1,"operator":234,"ref":"cfd0e8f3"},"semantic":{"class":null,"confidence":1,"method":"source"},"font":"Helvetica"}
0
LINE
5
188
330
10E
100
AcDbEntity
8
I-INSTRUMENTS
62
35
420
9263924
6
RV_DASH_11BE837B
370
25
100
AcDbLine
10
254.7055555556
20
124.8833333333
30
0
11
254.7055555556
21
108.3027777778
31
0
1001
REVECTOR
1000
{"id":"e107","source":{"kind":"path","ids":["p1-86"],"page":1,"operator":237,"ref":"7eb4fbbf"},"semantic":{"class":null,"confidence":1,"method":"source"}}
0
TEXT
5
189
330
10E
100
AcDbEntity
8
A-ANNOTATION
62
127
420
2766144
370
18
100
AcDbText
10
99.1305555556
20
108.6555555556
30
0
40
1.7730611111
1
V-101
50
0
41
1
7
RV_BDCF0158
71
0
72
5
11
105.7190333333
21
108.6555555556
31
0
100
AcDbText
73
0
1001
REVECTOR
1000
{"id":"e108","source":{"kind":"text","ids":["p1-87"],"page":1,"operator":247,"ref":"807b4830"},"semantic":{"class":null,"confidence":1,"method":"source"},"font":"Helvetica"}
0
TEXT
5
18A
330
10E
100
AcDbEntity
8
A-ANNOTATION
62
127
420
2766144
370
18
100
AcDbText
10
141.8166666667
20
108.6555555556
30
0
40
1.7730611111
1
V-102
50
0
41
1
7
RV_BDCF0158
71
0
72
5
11
148.4051444444
21
108.6555555556
31
0
100
AcDbText
73
0
1001
REVECTOR
1000
{"id":"e109","source":{"kind":"text","ids":["p1-88"],"page":1,"operator":252,"ref":"9c2f2c26"},"semantic":{"class":null,"confidence":1,"method":"source"},"font":"Helvetica"}
0
TEXT
5
18B
330
10E
100
AcDbEntity
8
A-ANNOTATION
62
127
420
2766144
370
18
100
AcDbText
10
99.1305555556
20
76.9055555556
30
0
40
1.7730611111
1
V-103
50
0
41
1
7
RV_BDCF0158
71
0
72
5
11
105.7190333333
21
76.9055555556
31
0
100
AcDbText
73
0
1001
REVECTOR
1000
{"id":"e110","source":{"kind":"text","ids":["p1-89"],"page":1,"operator":257,"ref":"44dc5691"},"semantic":{"class":null,"confidence":1,"method":"source"},"font":"Helvetica"}
0
TEXT
5
18C
330
10E
100
AcDbEntity
8
A-ANNOTATION
62
127
420
2766144
370
18
100
AcDbText
10
141.8166666667
20
76.9055555556
30
0
40
1.7730611111
1
V-104
50
0
41
1
7
RV_BDCF0158
71
0
72
5
11
148.4051444444
21
76.9055555556
31
0
100
AcDbText
73
0
1001
REVECTOR
1000
{"id":"e111","source":{"kind":"text","ids":["p1-90"],"page":1,"operator":262,"ref":"b3ef8924"},"semantic":{"class":null,"confidence":1,"method":"source"},"font":"Helvetica"}
0
TEXT
5
18D
330
10E
100
AcDbEntity
8
A-ANNOTATION
62
127
420
2766144
370
18
100
AcDbText
10
193.3222222222
20
113.9472222222
30
0
40
1.7730611111
1
V-105
50
0
41
1
7
RV_BDCF0158
71
0
72
5
11
199.9107
21
113.9472222222
31
0
100
AcDbText
73
0
1001
REVECTOR
1000
{"id":"e112","source":{"kind":"text","ids":["p1-91"],"page":1,"operator":267,"ref":"7ee5e302"},"semantic":{"class":null,"confidence":1,"method":"source"},"font":"Helvetica"}
0
TEXT
5
18E
330
10E
100
AcDbEntity
8
A-ANNOTATION
62
127
420
2766144
370
18
100
AcDbText
10
247.65
20
113.9472222222
30
0
40
1.7730611111
1
V-106
50
0
41
1
7
RV_BDCF0158
71
0
72
5
11
254.2384777778
21
113.9472222222
31
0
100
AcDbText
73
0
1001
REVECTOR
1000
{"id":"e113","source":{"kind":"text","ids":["p1-92"],"page":1,"operator":272,"ref":"a6089170"},"semantic":{"class":null,"confidence":1,"method":"source"},"font":"Helvetica"}
0
TEXT
5
18F
330
10E
100
AcDbEntity
8
A-ANNOTATION
62
127
420
2766144
370
18
100
AcDbText
10
49.3888888889
20
111.125
30
0
40
2.5329444444
1
TK-101
50
0
41
1
7
RV_3291BAF8
71
0
72
5
11
61.1505
21
111.125
31
0
100
AcDbText
73
0
1001
REVECTOR
1000
{"id":"e114","source":{"kind":"text","ids":["p1-93"],"page":1,"operator":277,"ref":"7aeb986b"},"semantic":{"class":null,"confidence":1,"method":"source"},"font":"Helvetica-Bold"}
0
TEXT
5
190
330
10E
100
AcDbEntity
8
A-ANNOTATION
62
127
420
2766144
370
18
100
AcDbText
10
117.475
20
115.3583333333
30
0
40
2.5329444444
1
P-101 A
50
0
41
1
7
RV_3291BAF8
71
0
72
5
11
130.4148888889
21
115.3583333333
31
0
100
AcDbText
73
0
1001
REVECTOR
1000
{"id":"e115","source":{"kind":"text","ids":["p1-94"],"page":1,"operator":282,"ref":"eeaef737"},"semantic":{"class":null,"confidence":1,"method":"source"},"font":"Helvetica-Bold"}
0
TEXT
5
191
330
10E
100
AcDbEntity
8
A-ANNOTATION
62
127
420
2766144
370
18
100
AcDbText
10
117.475
20
83.6083333333
30
0
40
2.5329444444
1
P-101 B
50
0
41
1
7
RV_3291BAF8
71
0
72
5
11
130.4148888889
21
83.6083333333
31
0
100
AcDbText
73
0
1001
REVECTOR
1000
{"id":"e116","source":{"kind":"text","ids":["p1-95"],"page":1,"operator":287,"ref":"300b58ec"},"semantic":{"class":null,"confidence":1,"method":"source"},"font":"Helvetica-Bold"}
0
TEXT
5
192
330
10E
100
AcDbEntity
8
A-ANNOTATION
62
127
420
2766144
370
18
100
AcDbText
10
219.075
20
138.9944444444
30
0
40
2.5329444444
1
HX-101
50
0
41
1
7
RV_3291BAF8
71
0
72
5
11
231.0341666667
21
138.9944444444
31
0
100
AcDbText
73
0
1001
REVECTOR
1000
{"id":"e117","source":{"kind":"text","ids":["p1-96"],"page":1,"operator":292,"ref":"d4c69e33"},"semantic":{"class":null,"confidence":1,"method":"source"},"font":"Helvetica-Bold"}
0
TEXT
5
193
330
10E
100
AcDbEntity
8
A-ANNOTATION
62
127
420
2766144
370
18
100
AcDbText
10
46.2138888889
20
97.0138888889
30
0
40
1.8997083333
1
BUFFER TANK
50
0
41
1
7
RV_BDCF0158
71
0
72
5
11
64.5892013889
21
97.0138888889
31
0
100
AcDbText
73
0
1001
REVECTOR
1000
{"id":"e118","source":{"kind":"text","ids":["p1-97"],"page":1,"operator":297,"ref":"a39daf2b"},"semantic":{"class":null,"confidence":1,"method":"source"},"font":"Helvetica"}
0
TEXT
5
194
330
10E
100
AcDbEntity
8
A-ANNOTATION
62
127
420
2766144
370
18
100
AcDbText
10
47.9777777778
20
92.075
30
0
40
1.7730611111
1
CAP.  2.5 m3
50
0
41
1
7
RV_BDCF0158
71
0
72
5
11
62.6635638889
21
92.075
31
0
100
AcDbText
73
0
1001
REVECTOR
1000
{"id":"e119","source":{"kind":"text","ids":["p1-98"],"page":1,"operator":302,"ref":"bda8dded"},"semantic":{"class":null,"confidence":1,"method":"source"},"font":"Helvetica"}
0
TEXT
5
195
330
10E
100
AcDbEntity
8
A-ANNOTATION
62
127
420
2766144
370
18
100
AcDbText
10
210.6083333333
20
143.9333333333
30
0
40
1.7730611111
1
PLATE HEAT EXCHANGER
50
0
41
1
7
RV_BDCF0158
71
0
72
5
11
242.0320138889
21
143.9333333333
31
0
100
AcDbText
73
0
1001
REVECTOR
1000
{"id":"e120","source":{"kind":"text","ids":["p1-99"],"page":1,"operator":307,"ref":"9ea908d7"},"semantic":{"class":null,"confidence":1,"method":"source"},"font":"Helvetica"}
0
TEXT
5
196
330
10E
100
AcDbEntity
8
A-ANNOTATION
62
127
420
2766144
370
18
100
AcDbText
10
20.8138888889
20
130.8805555556
30
0
40
1.7730611111
1
MAKE-UP
50
0
41
1
7
RV_BDCF0158
71
0
72
5
11
32.0646777778
21
130.8805555556
31
0
100
AcDbText
73
0
1001
REVECTOR
1000
{"id":"e121","source":{"kind":"text","ids":["p1-100"],"page":1,"operator":312,"ref":"4adf9fd8"},"semantic":{"class":null,"confidence":1,"method":"source"},"font":"Helvetica"}
0
TEXT
5
197
330
10E
100
AcDbEntity
8
A-ANNOTATION
62
127
420
2766144
370
18
100
AcDbText
10
98.425
20
161.925
30
0
40
2.27965
1
CW SUPPLY HEADER  /  DN 100  /  6.0 bar
50
0
41
1
7
RV_3291BAF8
71
0
72
5
11
161.413825
21
161.925
31
0
100
AcDbText
73
0
1001
REVECTOR
1000
{"id":"e122","source":{"kind":"text","ids":["p1-101"],"page":1,"operator":317,"ref":"7e1322b6"},"semantic":{"class":null,"confidence":1,"method":"source"},"font":"Helvetica-Bold"}
0
TEXT
5
198
330
10E
100
AcDbEntity
8
A-ANNOTATION
62
127
420
2766144
370
18
100
AcDbText
10
175.3305555556
20
99.4833333333
30
0
40
1.7730611111
1
100-CW-104-A1
50
0
41
1
7
RV_BDCF0158
71
0
72
5
11
193.1698222222
21
99.4833333333
31
0
100
AcDbText
73
0
1001
REVECTOR
1000
{"id":"e123","source":{"kind":"text","ids":["p1-102"],"page":1,"operator":322,"ref":"0f8cc886"},"semantic":{"class":null,"confidence":1,"method":"source"},"font":"Helvetica"}
0
TEXT
5
199
330
10E
100
AcDbEntity
8
A-ANNOTATION
62
127
420
2766144
370
18
100
AcDbText
10
197.5555555556
20
153.8111111111
30
0
40
1.7730611111
1
80-CW-105-A1
50
0
41
1
7
RV_BDCF0158
71
0
72
5
11
214.0218111111
21
153.8111111111
31
0
100
AcDbText
73
0
1001
REVECTOR
1000
{"id":"e124","source":{"kind":"text","ids":["p1-103"],"page":1,"operator":327,"ref":"07e8b3f0"},"semantic":{"class":null,"confidence":1,"method":"source"},"font":"Helvetica"}
0
TEXT
5
19A
330
10E
100
AcDbEntity
8
A-ANNOTATION
62
127
420
2766144
370
18
100
AcDbText
10
22.9305555556
20
47.625
30
0
40
1.7730611111
1
DESIGN PRESSURE   10 bar     /     OPERATING TEMP.   12-18 C
50
0
41
1
7
RV_BDCF0158
71
0
72
5
11
96.9027638889
21
47.625
31
0
100
AcDbText
73
0
1001
REVECTOR
1000
{"id":"e125","source":{"kind":"text","ids":["p1-104"],"page":1,"operator":332,"ref":"ae83bc5f"},"semantic":{"class":null,"confidence":1,"method":"source"},"font":"Helvetica"}
0
LINE
5
19B
330
10E
100
AcDbEntity
8
A-ANNOTATION
62
127
420
2766144
370
18
100
AcDbLine
10
36.6888888889
20
54.3277777778
30
0
11
36.6888888889
21
59.9722222222
31
0
1001
REVECTOR
1000
{"id":"e126","source":{"kind":"path","ids":["p1-105"],"page":1,"operator":334,"ref":"4d785cbe"},"semantic":{"class":null,"confidence":1,"method":"source"}}
0
LINE
5
19C
330
10E
100
AcDbEntity
8
A-ANNOTATION
62
127
420
2766144
370
18
100
AcDbLine
10
75.4944444444
20
54.3277777778
30
0
11
75.4944444444
21
59.9722222222
31
0
1001
REVECTOR
1000
{"id":"e127","source":{"kind":"path","ids":["p1-106"],"page":1,"operator":335,"ref":"4e151280"},"semantic":{"class":null,"confidence":1,"method":"source"}}
0
LINE
5
19D
330
10E
100
AcDbEntity
8
A-ANNOTATION
62
127
420
2766144
370
18
100
AcDbLine
10
36.6888888889
20
57.8555555556
30
0
11
75.4944444444
21
57.8555555556
31
0
1001
REVECTOR
1000
{"id":"e128","source":{"kind":"path","ids":["p1-107"],"page":1,"operator":336,"ref":"2532ea6a"},"semantic":{"class":null,"confidence":1,"method":"source"}}
0
HATCH
5
19E
330
10E
100
AcDbEntity
8
A-ANNOTATION
62
127
420
2766144
370
18
100
AcDbHatch
10
0
20
0
30
0
210
0
220
0
230
1
2
SOLID
70
1
71
0
91
1
92
2
72
0
73
1
93
3
10
38.8055555556
20
58.5611111111
10
36.6888888889
20
57.8555555556
10
38.8055555556
20
57.15
97
0
75
0
76
1
98
0
1001
REVECTOR
1000
{"id":"e129","source":{"kind":"path","ids":["p1-108"],"page":1,"operator":337,"ref":"64764448"},"semantic":{"class":null,"confidence":1,"method":"source"}}
0
HATCH
5
19F
330
10E
100
AcDbEntity
8
A-ANNOTATION
62
127
420
2766144
370
18
100
AcDbHatch
10
0
20
0
30
0
210
0
220
0
230
1
2
SOLID
70
1
71
0
91
1
92
2
72
0
73
1
93
3
10
75.4944444444
20
57.8555555556
10
73.3777777778
20
58.5611111111
10
73.3777777778
20
57.15
97
0
75
0
76
1
98
0
1001
REVECTOR
1000
{"id":"e130","source":{"kind":"path","ids":["p1-109"],"page":1,"operator":338,"ref":"5bdaaa96"},"semantic":{"class":null,"confidence":1,"method":"source"}}
0
TEXT
5
1A0
330
10E
100
AcDbEntity
8
A-ANNOTATION
62
127
420
2766144
370
18
100
AcDbText
10
53.7379343669
20
59.6194444444
30
0
40
2.0263555556
1
110
50
0
41
1
7
RV_BDCF0158
71
0
72
5
11
58.4454010335
21
59.6194444444
31
0
100
AcDbText
73
0
1001
REVECTOR
1000
{"id":"e131","source":{"kind":"text","ids":["p1-110"],"page":1,"operator":342,"ref":"2a31f40c"},"semantic":{"class":null,"confidence":1,"method":"source"},"font":"Helvetica"}
0
LINE
5
1A1
330
10E
100
AcDbEntity
8
A-ANNOTATION
62
127
420
2766144
370
18
100
AcDbLine
10
117.475
20
47.625
30
0
11
117.475
21
53.2694444444
31
0
1001
REVECTOR
1000
{"id":"e132","source":{"kind":"path","ids":["p1-111"],"page":1,"operator":344,"ref":"ff12e468"},"semantic":{"class":null,"confidence":1,"method":"source"}}
0
LINE
5
1A2
330
10E
100
AcDbEntity
8
A-ANNOTATION
62
127
420
2766144
370
18
100
AcDbLine
10
167.5694444444
20
47.625
30
0
11
167.5694444444
21
53.2694444444
31
0
1001
REVECTOR
1000
{"id":"e133","source":{"kind":"path","ids":["p1-112"],"page":1,"operator":345,"ref":"88f9f66a"},"semantic":{"class":null,"confidence":1,"method":"source"}}
0
LINE
5
1A3
330
10E
100
AcDbEntity
8
A-ANNOTATION
62
127
420
2766144
370
18
100
AcDbLine
10
117.475
20
51.1527777778
30
0
11
167.5694444444
21
51.1527777778
31
0
1001
REVECTOR
1000
{"id":"e134","source":{"kind":"path","ids":["p1-113"],"page":1,"operator":346,"ref":"264d6170"},"semantic":{"class":null,"confidence":1,"method":"source"}}
0
HATCH
5
1A4
330
10E
100
AcDbEntity
8
A-ANNOTATION
62
127
420
2766144
370
18
100
AcDbHatch
10
0
20
0
30
0
210
0
220
0
230
1
2
SOLID
70
1
71
0
91
1
92
2
72
0
73
1
93
3
10
119.5916666667
20
51.8583333333
10
117.475
20
51.1527777778
10
119.5916666667
20
50.4472222222
97
0
75
0
76
1
98
0
1001
REVECTOR
1000
{"id":"e135","source":{"kind":"path","ids":["p1-114"],"page":1,"operator":347,"ref":"59b88c86"},"semantic":{"class":null,"confidence":1,"method":"source"}}
0
HATCH
5
1A5
330
10E
100
AcDbEntity
8
A-ANNOTATION
62
127
420
2766144
370
18
100
AcDbHatch
10
0
20
0
30
0
210
0
220
0
230
1
2
SOLID
70
1
71
0
91
1
92
2
72
0
73
1
93
3
10
167.5694444444
20
51.1527777778
10
165.4527777778
20
51.8583333333
10
165.4527777778
20
50.4472222222
97
0
75
0
76
1
98
0
1001
REVECTOR
1000
{"id":"e136","source":{"kind":"path","ids":["p1-115"],"page":1,"operator":348,"ref":"a70cb3f0"},"semantic":{"class":null,"confidence":1,"method":"source"}}
0
TEXT
5
1A6
330
10E
100
AcDbEntity
8
A-ANNOTATION
62
127
420
2766144
370
18
100
AcDbText
10
140.1684899224
20
52.9166666667
30
0
40
2.0263555556
1
142
50
0
41
1
7
RV_BDCF0158
71
0
72
5
11
144.8759565891
21
52.9166666667
31
0
100
AcDbText
73
0
1001
REVECTOR
1000
{"id":"e137","source":{"kind":"text","ids":["p1-116"],"page":1,"operator":352,"ref":"c6ffd1e5"},"semantic":{"class":null,"confidence":1,"method":"source"},"font":"Helvetica"}
0
LINE
5
1A7
330
10E
100
AcDbEntity
8
H-HATCH
62
8
420
6913925
370
13
100
AcDbLine
10
41.6277777778
20
86.0777777778
30
0
11
44.0972222222
21
88.1944444444
31
0
1001
REVECTOR
1000
{"id":"e138","source":{"kind":"path","ids":["p1-117"],"page":1,"operator":359,"ref":"aef8d26a"},"semantic":{"class":null,"confidence":1,"method":"source"}}
0
LINE
5
1A8
330
10E
100
AcDbEntity
8
H-HATCH
62
8
420
6913925
370
13
100
AcDbLine
10
44.0972222222
20
86.0777777778
30
0
11
46.5666666667
21
88.1944444444
31
0
1001
REVECTOR
1000
{"id":"e139","source":{"kind":"path","ids":["p1-118"],"page":1,"operator":360,"ref":"f85cd1a5"},"semantic":{"class":null,"confidence":1,"method":"source"}}
0
LINE
5
1A9
330
10E
100
AcDbEntity
8
H-HATCH
62
8
420
6913925
370
13
100
AcDbLine
10
46.5666666667
20
86.0777777778
30
0
11
49.0361111111
21
88.1944444444
31
0
1001
REVECTOR
1000
{"id":"e140","source":{"kind":"path","ids":["p1-119"],"page":1,"operator":361,"ref":"cf993bbd"},"semantic":{"class":null,"confidence":1,"method":"source"}}
0
LINE
5
1AA
330
10E
100
AcDbEntity
8
H-HATCH
62
8
420
6913925
370
13
100
AcDbLine
10
49.0361111111
20
86.0777777778
30
0
11
51.5055555556
21
88.1944444444
31
0
1001
REVECTOR
1000
{"id":"e141","source":{"kind":"path","ids":["p1-120"],"page":1,"operator":362,"ref":"e792cb12"},"semantic":{"class":null,"confidence":1,"method":"source"}}
0
LINE
5
1AB
330
10E
100
AcDbEntity
8
H-HATCH
62
8
420
6913925
370
13
100
AcDbLine
10
51.5055555556
20
86.0777777778
30
0
11
53.975
21
88.1944444444
31
0
1001
REVECTOR
1000
{"id":"e142","source":{"kind":"path","ids":["p1-121"],"page":1,"operator":363,"ref":"60071f3a"},"semantic":{"class":null,"confidence":1,"method":"source"}}
0
LINE
5
1AC
330
10E
100
AcDbEntity
8
H-HATCH
62
8
420
6913925
370
13
100
AcDbLine
10
53.975
20
86.0777777778
30
0
11
56.4444444444
21
88.1944444444
31
0
1001
REVECTOR
1000
{"id":"e143","source":{"kind":"path","ids":["p1-122"],"page":1,"operator":364,"ref":"ae2fb716"},"semantic":{"class":null,"confidence":1,"method":"source"}}
0
LINE
5
1AD
330
10E
100
AcDbEntity
8
H-HATCH
62
8
420
6913925
370
13
100
AcDbLine
10
56.4444444444
20
86.0777777778
30
0
11
58.9138888889
21
88.1944444444
31
0
1001
REVECTOR
1000
{"id":"e144","source":{"kind":"path","ids":["p1-123"],"page":1,"operator":365,"ref":"b48b48be"},"semantic":{"class":null,"confidence":1,"method":"source"}}
0
LINE
5
1AE
330
10E
100
AcDbEntity
8
H-HATCH
62
8
420
6913925
370
13
100
AcDbLine
10
58.9138888889
20
86.0777777778
30
0
11
61.3833333333
21
88.1944444444
31
0
1001
REVECTOR
1000
{"id":"e145","source":{"kind":"path","ids":["p1-124"],"page":1,"operator":366,"ref":"f105a02a"},"semantic":{"class":null,"confidence":1,"method":"source"}}
0
LINE
5
1AF
330
10E
100
AcDbEntity
8
H-HATCH
62
8
420
6913925
370
13
100
AcDbLine
10
61.3833333333
20
86.0777777778
30
0
11
63.8527777778
21
88.1944444444
31
0
1001
REVECTOR
1000
{"id":"e146","source":{"kind":"path","ids":["p1-125"],"page":1,"operator":367,"ref":"5ce869b2"},"semantic":{"class":null,"confidence":1,"method":"source"}}
0
LINE
5
1B0
330
10E
100
AcDbEntity
8
H-HATCH
62
8
420
6913925
370
13
100
AcDbLine
10
63.8527777778
20
86.0777777778
30
0
11
66.3222222222
21
88.1944444444
31
0
1001
REVECTOR
1000
{"id":"e147","source":{"kind":"path","ids":["p1-126"],"page":1,"operator":368,"ref":"c5fe8cd6"},"semantic":{"class":null,"confidence":1,"method":"source"}}
0
LINE
5
1B1
330
10E
100
AcDbEntity
8
H-HATCH
62
8
420
6913925
370
13
100
AcDbLine
10
66.3222222222
20
86.0777777778
30
0
11
68.7916666667
21
88.1944444444
31
0
1001
REVECTOR
1000
{"id":"e148","source":{"kind":"path","ids":["p1-127"],"page":1,"operator":369,"ref":"a0517b6e"},"semantic":{"class":null,"confidence":1,"method":"source"}}
0
LINE
5
1B2
330
10E
100
AcDbEntity
8
H-HATCH
62
8
420
6913925
370
13
100
AcDbLine
10
68.7916666667
20
86.0777777778
30
0
11
71.2611111111
21
88.1944444444
31
0
1001
REVECTOR
1000
{"id":"e149","source":{"kind":"path","ids":["p1-128"],"page":1,"operator":370,"ref":"ce88602b"},"semantic":{"class":null,"confidence":1,"method":"source"}}
0
ENDSEC
0
SECTION
2
OBJECTS
0
DICTIONARY
5
109
330
0
100
AcDbDictionary
281
1
3
ACAD_GROUP
350
10A
3
ACAD_LAYOUT
350
10B
0
DICTIONARY
5
10A
330
109
100
AcDbDictionary
281
1
0
DICTIONARY
5
10B
330
109
100
AcDbDictionary
281
1
3
Model
350
10C
3
Layout1
350
10D
0
LAYOUT
5
10C
330
10B
100
AcDbPlotSettings
1

2

4

6

40
0
41
0
42
0
43
0
46
0
47
0
48
0
49
0
44
297.0388888889
45
209.9027777778
140
297.0388888889
141
209.9027777778
142
1
143
1
70
1024
72
1
73
0
74
5
7

75
16
76
0
77
2
78
300
147
1
148
0
149
0
100
AcDbLayout
1
Model
70
1
71
0
10
0
20
0
11
297.0388888889
21
209.9027777778
12
0
22
0
32
0
14
8.4666666667
24
8.4666666667
34
0
15
288.5722222222
25
201.4361111111
35
0
146
0
13
0
23
0
33
0
16
1
26
0
36
0
17
0
27
1
37
0
76
0
330
10E
0
LAYOUT
5
10D
330
10B
100
AcDbPlotSettings
1

2

4

6

40
0
41
0
42
0
43
0
46
0
47
0
48
0
49
0
44
297.0388888889
45
209.9027777778
140
297.0388888889
141
209.9027777778
142
1
143
1
70
0
72
1
73
0
74
5
7

75
16
76
0
77
2
78
300
147
1
148
0
149
0
100
AcDbLayout
1
Layout1
70
1
71
1
10
0
20
0
11
297.0388888889
21
209.9027777778
12
0
22
0
32
0
14
8.4666666667
24
8.4666666667
34
0
15
288.5722222222
25
201.4361111111
35
0
146
0
13
0
23
0
33
0
16
1
26
0
36
0
17
0
27
1
37
0
76
0
330
10F
0
ENDSEC
0
EOF
