0
SECTION
2
HEADER
9
$ACADVER
1
AC1027
9
$ACADMAINTVER
70
0
9
$DWGCODEPAGE
3
ANSI_1252
9
$HANDSEED
5
14D
9
$INSBASE
10
0
20
0
30
0
9
$EXTMIN
10
8.4666666667
20
8.4666666667
30
0
9
$EXTMAX
10
288.5722222222
20
201.4361111111
30
0
9
$LIMMIN
10
0
20
0
9
$LIMMAX
10
297.0388888889
20
209.9027777778
9
$INSUNITS
70
4
9
$MEASUREMENT
70
1
9
$LUNITS
70
2
9
$LUPREC
70
4
9
$AUNITS
70
0
9
$AUPREC
70
4
9
$TILEMODE
70
1
9
$LTSCALE
40
1
9
$PSLTSCALE
70
0
9
$FILLMODE
70
1
9
$CLAYER
8
0
0
ENDSEC
0
SECTION
2
TABLES
0
TABLE
5
100
2
VPORT
100
AcDbSymbolTable
70
1
0
VPORT
5
124
330
100
100
AcDbSymbolTableRecord
100
AcDbViewportTableRecord
2
*Active
70
0
10
0
20
0
11
1
21
1
12
148.5194444444
22
104.9513888889
13
0
23
0
14
10
24
10
15
10
25
10
16
0
26
0
36
1
17
0
27
0
37
0
40
209.9027777778
41
1.4151260504
42
50
43
0
44
0
50
0
51
0
71
0
72
100
73
1
74
3
75
0
76
0
77
0
78
0
0
ENDTAB
0
TABLE
5
101
2
LTYPE
100
AcDbSymbolTable
70
3
0
LTYPE
5
11A
330
101
100
AcDbSymbolTableRecord
100
AcDbLinetypeTableRecord
2
BYBLOCK
70
0
3

72
65
73
0
40
0
0
LTYPE
5
11B
330
101
100
AcDbSymbolTableRecord
100
AcDbLinetypeTableRecord
2
BYLAYER
70
0
3

72
65
73
0
40
0
0
LTYPE
5
11C
330
101
100
AcDbSymbolTableRecord
100
AcDbLinetypeTableRecord
2
CONTINUOUS
70
0
3

72
65
73
0
40
0
0
ENDTAB
0
TABLE
5
102
2
LAYER
100
AcDbSymbolTable
70
4
0
LAYER
5
11D
330
102
100
AcDbSymbolTableRecord
100
AcDbLayerTableRecord
2
0
70
0
62
254
420
13819110
6
CONTINUOUS
290
1
370
-3
0
LAYER
5
11E
330
102
100
AcDbSymbolTableRecord
100
AcDbLayerTableRecord
2
A-SHEET
70
0
62
127
420
2306625
6
CONTINUOUS
290
1
370
-3
0
LAYER
5
11F
330
102
100
AcDbSymbolTableRecord
100
AcDbLayerTableRecord
2
P-EQUIPMENT
70
0
62
144
420
1861500
6
CONTINUOUS
290
1
370
-3
0
LAYER
5
120
330
102
100
AcDbSymbolTableRecord
100
AcDbLayerTableRecord
2
A-ANNOTATION
70
0
62
127
420
3292230
6
CONTINUOUS
290
1
370
-3
0
ENDTAB
0
TABLE
5
103
2
STYLE
100
AcDbSymbolTable
70
3
0
STYLE
5
117
330
103
100
AcDbSymbolTableRecord
100
AcDbTextStyleTableRecord
2
STANDARD
70
0
40
0
41
1
50
0
71
0
42
2.5
3
txt
4

0
STYLE
5
118
330
103
100
AcDbSymbolTableRecord
100
AcDbTextStyleTableRecord
2
RV_3291BAF8
70
0
40
0
41
1
50
0
71
0
42
2.5
3
arialbd.ttf
4

0
STYLE
5
119
330
103
100
AcDbSymbolTableRecord
100
AcDbTextStyleTableRecord
2
RV_BDCF0158
70
0
40
0
41
1
50
0
71
0
42
2.5
3
arial.ttf
4

0
ENDTAB
0
TABLE
5
104
2
VIEW
100
AcDbSymbolTable
70
0
0
ENDTAB
0
TABLE
5
105
2
UCS
100
AcDbSymbolTable
70
0
0
ENDTAB
0
TABLE
5
106
2
APPID
100
AcDbSymbolTable
70
2
0
APPID
5
121
330
106
100
AcDbSymbolTableRecord
100
AcDbRegAppTableRecord
2
ACAD
70
0
0
APPID
5
122
330
106
100
AcDbSymbolTableRecord
100
AcDbRegAppTableRecord
2
REVECTOR
70
0
0
ENDTAB
0
TABLE
5
107
2
DIMSTYLE
100
AcDbSymbolTable
70
1
0
DIMSTYLE
105
123
330
107
100
AcDbSymbolTableRecord
100
AcDbDimStyleTableRecord
2
STANDARD
70
0
40
1
41
2.5
42
0.625
43
3.75
44
1.25
140
2.5
147
0.625
340
117
0
ENDTAB
0
TABLE
5
108
2
BLOCK_RECORD
100
AcDbSymbolTable
70
3
0
BLOCK_RECORD
5
10E
330
108
100
AcDbSymbolTableRecord
100
AcDbBlockTableRecord
2
*Model_Space
340
10C
70
4
280
1
281
0
0
BLOCK_RECORD
5
10F
330
108
100
AcDbSymbolTableRecord
100
AcDbBlockTableRecord
2
*Paper_Space
340
10D
70
4
280
1
281
0
0
BLOCK_RECORD
5
110
330
108
100
AcDbSymbolTableRecord
100
AcDbBlockTableRecord
2
PDF_FORM_54F19993_0
70
4
280
1
281
0
0
ENDTAB
0
ENDSEC
0
SECTION
2
BLOCKS
0
BLOCK
5
111
330
10E
100
AcDbEntity
8
0
100
AcDbBlockBegin
2
*Model_Space
70
0
10
0
20
0
30
0
3
*Model_Space
1

0
ENDBLK
5
112
330
10E
100
AcDbEntity
8
0
100
AcDbBlockEnd
0
BLOCK
5
113
330
10F
100
AcDbEntity
8
0
100
AcDbBlockBegin
2
*Paper_Space
70
0
10
0
20
0
30
0
3
*Paper_Space
1

0
ENDBLK
5
114
330
10F
100
AcDbEntity
8
0
100
AcDbBlockEnd
0
BLOCK
5
115
330
110
100
AcDbEntity
8
0
100
AcDbBlockBegin
2
PDF_FORM_54F19993_0
70
0
10
0
20
0
30
0
3
PDF_FORM_54F19993_0
1

0
LWPOLYLINE
5
14A
330
110
100
AcDbEntity
8
A-ANNOTATION
62
127
420
3292230
370
50
100
AcDbPolyline
90
4
70
1
10
-8
20
-5
10
8
20
5
10
8
20
-5
10
-8
20
5
1001
REVECTOR
1000
{"id":"b0_0","source":{"ids":["p2-40"],"page":2,"operator":151,"ref":"62a2ed9e"},"semantic":{"class":null,"confidence":1,"method":"source"}}
0
LINE
5
14B
330
110
100
AcDbEntity
8
A-ANNOTATION
62
127
420
3292230
370
50
100
AcDbLine
10
0
20
0
30
0
11
0
21
10
31
0
1001
REVECTOR
1000
{"id":"b0_1","source":{"ids":["p2-41"],"page":2,"operator":152,"ref":"442058f0"},"semantic":{"class":null,"confidence":1,"method":"source"}}
0
LINE
5
14C
330
110
100
AcDbEntity
8
A-ANNOTATION
62
127
420
3292230
370
50
100
AcDbLine
10
-4
20
10
30
0
11
4
21
10
31
0
1001
REVECTOR
1000
{"id":"b0_2","source":{"ids":["p2-42"],"page":2,"operator":153,"ref":"a1a729ae"},"semantic":{"class":null,"confidence":1,"method":"source"}}
0
ENDBLK
5
116
330
110
100
AcDbEntity
8
0
100
AcDbBlockEnd
0
ENDSEC
0
SECTION
2
ENTITIES
0
LWPOLYLINE
5
125
330
10E
100
AcDbEntity
8
A-SHEET
62
127
420
2306625
370
25
100
AcDbPolyline
90
4
70
1
10
8.4666666667
20
8.4666666667
10
288.5722222222
20
8.4666666667
10
288.5722222222
20
201.4361111111
10
8.4666666667
20
201.4361111111
1001
REVECTOR
1000
{"id":"e1","source":{"ids":["p2-1"],"page":2,"operator":4,"ref":"d751a515"},"semantic":{"class":null,"confidence":1,"method":"source"}}
0
TEXT
5
126
330
10E
100
AcDbEntity
8
A-SHEET
62
127
420
2306625
370
25
100
AcDbText
10
14.8166666667
20
191.2055555556
30
0
40
3.5461222222
1
VECTOR CONVERSION  /  FEATURE VALIDATION
50
0
41
1
7
RV_3291BAF8
71
0
72
5
11
131.7152277778
21
191.2055555556
31
0
100
AcDbText
73
0
1001
REVECTOR
1000
{"id":"e2","source":{"ids":["p2-2"],"page":2,"operator":9,"ref":"8e79aebe"},"semantic":{"class":null,"confidence":1,"method":"source"},"font":"Helvetica-Bold"}
0
TEXT
5
127
330
10E
100
AcDbEntity
8
A-SHEET
62
127
420
2306625
370
25
100
AcDbText
10
14.8166666667
20
184.5027777778
30
0
40
2.0263555556
1
Original authored test sheet. Includes curves, clips, fill rules, layers, forms, text and patterns.
50
0
41
1
7
RV_BDCF0158
71
0
72
5
11
130.1044444444
21
184.5027777778
31
0
100
AcDbText
73
0
1001
REVECTOR
1000
{"id":"e3","source":{"ids":["p2-3"],"page":2,"operator":15,"ref":"76367a73"},"semantic":{"class":null,"confidence":1,"method":"source"},"font":"Helvetica"}
0
SPLINE
5
128
330
10E
100
AcDbEntity
8
P-EQUIPMENT
62
144
420
1861500
370
40
100
AcDbSpline
210
0
220
0
230
1
70
8
71
3
72
8
73
4
74
0
42
1e-7
43
1e-7
44
1e-10
40
0
40
0
40
0
40
0
40
1
40
1
40
1
40
1
10
73.3777777778
20
146.05
30
0
10
73.3777777778
20
155.4020239088
30
0
10
65.7964683533
20
162.9833333333
30
0
10
56.4444444444
20
162.9833333333
30
0
1001
REVECTOR
1000
{"id":"e4","source":{"ids":["p2-4"],"page":2,"operator":22,"ref":"b3b7c0af"},"semantic":{"class":null,"confidence":1,"method":"source"}}
0
SPLINE
5
129
330
10E
100
AcDbEntity
8
P-EQUIPMENT
62
144
420
1861500
370
40
100
AcDbSpline
210
0
220
0
230
1
70
8
71
3
72
8
73
4
74
0
42
1e-7
43
1e-7
44
1e-10
40
0
40
0
40
0
40
0
40
1
40
1
40
1
40
1
10
56.4444444444
20
162.9833333333
30
0
10
47.0924205356
20
162.9833333333
30
0
10
39.5111111111
20
155.4020239088
30
0
10
39.5111111111
20
146.05
30
0
1001
REVECTOR
1000
{"id":"e5","source":{"ids":["p2-4"],"page":2,"operator":22,"ref":"b3b7c0af"},"semantic":{"class":null,"confidence":1,"method":"source"}}
0
SPLINE
5
12A
330
10E
100
AcDbEntity
8
P-EQUIPMENT
62
144
420
1861500
370
40
100
AcDbSpline
210
0
220
0
230
1
70
8
71
3
72
8
73
4
74
0
42
1e-7
43
1e-7
44
1e-10
40
0
40
0
40
0
40
0
40
1
40
1
40
1
40
1
10
39.5111111111
20
146.05
30
0
10
39.5111111111
20
136.6979760912
30
0
10
47.0924205356
20
129.1166666667
30
0
10
56.4444444444
20
129.1166666667
30
0
1001
REVECTOR
1000
{"id":"e6","source":{"ids":["p2-4"],"page":2,"operator":22,"ref":"b3b7c0af"},"semantic":{"class":null,"confidence":1,"method":"source"}}
0
SPLINE
5
12B
330
10E
100
AcDbEntity
8
P-EQUIPMENT
62
144
420
1861500
370
40
100
AcDbSpline
210
0
220
0
230
1
70
8
71
3
72
8
73
4
74
0
42
1e-7
43
1e-7
44
1e-10
40
0
40
0
40
0
40
0
40
1
40
1
40
1
40
1
10
56.4444444444
20
129.1166666667
30
0
10
65.7964683533
20
129.1166666667
30
0
10
73.3777777778
20
136.6979760912
30
0
10
73.3777777778
20
146.05
30
0
1001
REVECTOR
1000
{"id":"e7","source":{"ids":["p2-4"],"page":2,"operator":22,"ref":"b3b7c0af"},"semantic":{"class":null,"confidence":1,"method":"source"}}
0
SPLINE
5
12C
330
10E
100
AcDbEntity
8
P-EQUIPMENT
62
144
420
1861500
370
40
100
AcDbSpline
210
0
220
0
230
1
70
8
71
3
72
8
73
4
74
0
42
1e-7
43
1e-7
44
1e-10
40
0
40
0
40
0
40
0
40
1
40
1
40
1
40
1
10
150.9888888889
20
146.05
30
0
10
150.9888888889
20
155.4020239088
30
0
10
143.4075794644
20
162.9833333333
30
0
10
134.0555555556
20
162.9833333333
30
0
1001
REVECTOR
1000
{"id":"e8","source":{"ids":["p2-5"],"page":2,"operator":23,"ref":"de2e3c4d"},"semantic":{"class":null,"confidence":1,"method":"source"}}
0
SPLINE
5
12D
330
10E
100
AcDbEntity
8
P-EQUIPMENT
62
144
420
1861500
370
40
100
AcDbSpline
210
0
220
0
230
1
70
8
71
3
72
8
73
4
74
0
42
1e-7
43
1e-7
44
1e-10
40
0
40
0
40
0
40
0
40
1
40
1
40
1
40
1
10
134.0555555556
20
162.9833333333
30
0
10
124.7035316467
20
162.9833333333
30
0
10
117.1222222222
20
155.4020239088
30
0
10
117.1222222222
20
146.05
30
0
1001
REVECTOR
1000
{"id":"e9","source":{"ids":["p2-5"],"page":2,"operator":23,"ref":"de2e3c4d"},"semantic":{"class":null,"confidence":1,"method":"source"}}
0
SPLINE
5
12E
330
10E
100
AcDbEntity
8
P-EQUIPMENT
62
144
420
1861500
370
40
100
AcDbSpline
210
0
220
0
230
1
70
8
71
3
72
8
73
4
74
0
42
1e-7
43
1e-7
44
1e-10
40
0
40
0
40
0
40
0
40
1
40
1
40
1
40
1
10
117.1222222222
20
146.05
30
0
10
117.1222222222
20
136.6979760912
30
0
10
124.7035316467
20
129.1166666667
30
0
10
134.0555555556
20
129.1166666667
30
0
1001
REVECTOR
1000
{"id":"e10","source":{"ids":["p2-5"],"page":2,"operator":23,"ref":"de2e3c4d"},"semantic":{"class":null,"confidence":1,"method":"source"}}
0
SPLINE
5
12F
330
10E
100
AcDbEntity
8
P-EQUIPMENT
62
144
420
1861500
370
40
100
AcDbSpline
210
0
220
0
230
1
70
8
71
3
72
8
73
4
74
0
42
1e-7
43
1e-7
44
1e-10
40
0
40
0
40
0
40
0
40
1
40
1
40
1
40
1
10
134.0555555556
20
129.1166666667
30
0
10
143.4075794644
20
129.1166666667
30
0
10
150.9888888889
20
136.6979760912
30
0
10
150.9888888889
20
146.05
30
0
1001
REVECTOR
1000
{"id":"e11","source":{"ids":["p2-5"],"page":2,"operator":23,"ref":"de2e3c4d"},"semantic":{"class":null,"confidence":1,"method":"source"}}
0
SPLINE
5
130
330
10E
100
AcDbEntity
8
P-EQUIPMENT
62
144
420
1861500
370
40
100
AcDbSpline
210
0
220
0
230
1
70
8
71
3
72
8
73
4
74
0
42
1e-7
43
1e-7
44
1e-10
40
0
40
0
40
0
40
0
40
1
40
1
40
1
40
1
10
228.6
20
146.05
30
0
10
228.6
20
155.4020239088
30
0
10
221.0186798096
20
162.9833333333
30
0
10
211.6666666667
20
162.9833333333
30
0
1001
REVECTOR
1000
{"id":"e12","source":{"ids":["p2-6"],"page":2,"operator":24,"ref":"1ed1ff8b"},"semantic":{"class":null,"confidence":1,"method":"source"}}
0
SPLINE
5
131
330
10E
100
AcDbEntity
8
P-EQUIPMENT
62
144
420
1861500
370
40
100
AcDbSpline
210
0
220
0
230
1
70
8
71
3
72
8
73
4
74
0
42
1e-7
43
1e-7
44
1e-10
40
0
40
0
40
0
40
0
40
1
40
1
40
1
40
1
10
211.6666666667
20
162.9833333333
30
0
10
202.3146535238
20
162.9833333333
30
0
10
194.7333333333
20
155.4020239088
30
0
10
194.7333333333
20
146.05
30
0
1001
REVECTOR
1000
{"id":"e13","source":{"ids":["p2-6"],"page":2,"operator":24,"ref":"1ed1ff8b"},"semantic":{"class":null,"confidence":1,"method":"source"}}
0
SPLINE
5
132
330
10E
100
AcDbEntity
8
P-EQUIPMENT
62
144
420
1861500
370
40
100
AcDbSpline
210
0
220
0
230
1
70
8
71
3
72
8
73
4
74
0
42
1e-7
43
1e-7
44
1e-10
40
0
40
0
40
0
40
0
40
1
40
1
40
1
40
1
10
194.7333333333
20
146.05
30
0
10
194.7333333333
20
136.6979760912
30
0
10
202.3146535238
20
129.1166666667
30
0
10
211.6666666667
20
129.1166666667
30
0
1001
REVECTOR
1000
{"id":"e14","source":{"ids":["p2-6"],"page":2,"operator":24,"ref":"1ed1ff8b"},"semantic":{"class":null,"confidence":1,"method":"source"}}
0
SPLINE
5
133
330
10E
100
AcDbEntity
8
P-EQUIPMENT
62
144
420
1861500
370
40
100
AcDbSpline
210
0
220
0
230
1
70
8
71
3
72
8
73
4
74
0
42
1e-7
43
1e-7
44
1e-10
40
0
40
0
40
0
40
0
40
1
40
1
40
1
40
1
10
211.6666666667
20
129.1166666667
30
0
10
221.0186798096
20
129.1166666667
30
0
10
228.6
20
136.6979760912
30
0
10
228.6
20
146.05
30
0
1001
REVECTOR
1000
{"id":"e15","source":{"ids":["p2-6"],"page":2,"operator":24,"ref":"1ed1ff8b"},"semantic":{"class":null,"confidence":1,"method":"source"}}
0
TEXT
5
134
330
10E
100
AcDbEntity
8
P-EQUIPMENT
62
144
420
1861500
370
40
100
AcDbText
10
34.5722222222
20
121.7083333333
30
0
40
2.0263555556
1
CUBIC CIRCLE: EXACT SPLINES
50
0
41
1
7
RV_BDCF0158
71
0
72
5
11
78.1699111111
21
121.7083333333
31
0
100
AcDbText
73
0
1001
REVECTOR
1000
{"id":"e16","source":{"ids":["p2-7"],"page":2,"operator":28,"ref":"0b9140da"},"semantic":{"class":null,"confidence":1,"method":"source"},"font":"Helvetica"}
0
TEXT
5
135
330
10E
100
AcDbEntity
8
P-EQUIPMENT
62
144
420
1861500
370
40
100
AcDbText
10
112.8888888889
20
121.7083333333
30
0
40
2.0263555556
1
CLIPPED CUBIC PATH
50
0
41
1
7
RV_BDCF0158
71
0
72
5
11
142.8411333333
21
121.7083333333
31
0
100
AcDbText
73
0
1001
REVECTOR
1000
{"id":"e17","source":{"ids":["p2-8"],"page":2,"operator":33,"ref":"e13770c1"},"semantic":{"class":null,"confidence":1,"method":"source"},"font":"Helvetica"}
0
TEXT
5
136
330
10E
100
AcDbEntity
8
P-EQUIPMENT
62
144
420
1861500
370
40
100
AcDbText
10
193.3222222222
20
121.7083333333
30
0
40
2.0263555556
1
NONZERO / EVEN-ODD FILL
50
0
41
1
7
RV_BDCF0158
71
0
72
5
11
231.1146
21
121.7083333333
31
0
100
AcDbText
73
0
1001
REVECTOR
1000
{"id":"e18","source":{"ids":["p2-9"],"page":2,"operator":38,"ref":"60feab25"},"semantic":{"class":null,"confidence":1,"method":"source"},"font":"Helvetica"}
0
SPLINE
5
137
330
10E
100
AcDbEntity
8
P-EQUIPMENT
62
144
420
1861500
370
40
100
AcDbSpline
210
0
220
0
230
1
70
8
71
3
72
8
73
4
74
0
42
1e-7
43
1e-7
44
1e-10
40
0
40
0
40
0
40
0
40
1
40
1
40
1
40
1
10
117.8277777779
20
151.0216505086
30
0
10
128.0635565786
20
156.9310122531
30
0
10
138.544857002
20
140.6375751901
30
0
10
147.813888889
20
135.9695468562
30
0
1001
REVECTOR
1000
{"id":"e19","source":{"ids":["p2-10"],"page":2,"operator":43,"ref":"97bf9989"},"semantic":{"class":null,"confidence":1,"method":"source"}}
0
HATCH
5
138
330
10E
100
AcDbEntity
8
P-EQUIPMENT
62
145
420
2388871
370
40
100
AcDbHatch
10
0
20
0
30
0
210
0
220
0
230
1
2
SOLID
70
1
71
0
91
2
92
2
72
0
73
1
93
4
10
201.0833333333
20
136.8777777778
10
222.25
20
136.8777777778
10
222.25
20
155.2222222222
10
201.0833333333
20
155.2222222222
97
0
92
2
72
0
73
1
93
4
10
216.2527777778
20
141.4638888889
10
207.0805555556
20
141.4638888889
10
207.0805555556
20
150.6361111111
10
216.2527777778
20
150.6361111111
97
0
75
0
76
1
98
0
1001
REVECTOR
1000
{"id":"e20","source":{"ids":["p2-11"],"page":2,"operator":47,"ref":"23c8d6d4"},"semantic":{"class":null,"confidence":1,"method":"source"}}
0
HATCH
5
139
330
10E
100
AcDbEntity
8
P-EQUIPMENT
62
144
420
1861500
370
40
100
AcDbHatch
10
0
20
0
30
0
210
0
220
0
230
1
2
SOLID
70
1
71
0
91
1
92
0
93
4
72
4
94
3
73
0
74
0
95
8
96
4
40
0
40
0
40
0
40
0
40
1
40
1
40
1
40
1
10
267.4055555556
20
99.8361111111
10
267.4055555556
20
102.7586179097
10
265.0364064535
20
105.1277777778
10
262.1138888889
20
105.1277777778
97
0
72
4
94
3
73
0
74
0
95
8
96
4
40
0
40
0
40
0
40
0
40
1
40
1
40
1
40
1
10
262.1138888889
20
105.1277777778
10
259.1913713243
20
105.1277777778
10
256.8222222222
20
102.7586179097
10
256.8222222222
20
99.8361111111
97
0
72
4
94
3
73
0
74
0
95
8
96
4
40
0
40
0
40
0
40
0
40
1
40
1
40
1
40
1
10
256.8222222222
20
99.8361111111
10
256.8222222222
20
96.9136043125
10
259.1913713243
20
94.5444444444
10
262.1138888889
20
94.5444444444
97
0
72
4
94
3
73
0
74
0
95
8
96
4
40
0
40
0
40
0
40
0
40
1
40
1
40
1
40
1
10
262.1138888889
20
94.5444444444
10
265.0364064535
20
94.5444444444
10
267.4055555556
20
96.9136043125
10
267.4055555556
20
99.8361111111
97
0
97
0
75
0
76
1
98
0
1001
REVECTOR
1000
{"id":"e21","source":{"ids":["p2-12"],"page":2,"operator":49,"ref":"380c6f2d"},"semantic":{"class":null,"confidence":1,"method":"source"}}
0
TEXT
5
13A
330
10E
100
AcDbEntity
8
P-EQUIPMENT
62
144
420
1861500
370
40
100
AcDbText
10
252.5888888889
20
90.3111111111
30
0
40
1.7730611111
1
CUBIC FILL
50
0
41
1
7
RV_BDCF0158
71
0
72
5
11
265.8991944444
21
90.3111111111
31
0
100
AcDbText
73
0
1001
REVECTOR
1000
{"id":"e22","source":{"ids":["p2-13"],"page":2,"operator":53,"ref":"eaf49e8e"},"semantic":{"class":null,"confidence":1,"method":"source"},"font":"Helvetica"}
0
TEXT
5
13B
330
10E
100
AcDbEntity
8
A-ANNOTATION
62
127
420
3292230
370
40
100
AcDbText
10
22.5777777778
20
89.6055555556
30
0
40
4.5593
1
Editable PDF text
50
0
41
1
7
RV_3291BAF8
71
0
72
5
11
74.8001777778
21
89.6055555556
31
0
100
AcDbText
73
0
1001
REVECTOR
1000
{"id":"e23","source":{"ids":["p2-14"],"page":2,"operator":62,"ref":"f5e2b387"},"semantic":{"class":null,"confidence":1,"method":"source"},"font":"Helvetica-Bold"}
0
TEXT
5
13C
330
10E
100
AcDbEntity
8
A-ANNOTATION
62
127
420
3292230
370
40
100
AcDbText
10
22.5777777778
20
80.7861111111
30
0
40
2.27965
1
TJ spacing / font metrics / source IDs
50
0
41
1
7
RV_BDCF0158
71
0
72
5
11
74.8065277778
21
80.7861111111
31
0
100
AcDbText
73
0
1001
REVECTOR
1000
{"id":"e24","source":{"ids":["p2-15"],"page":2,"operator":67,"ref":"9ca702c2"},"semantic":{"class":null,"confidence":1,"method":"source"},"font":"Helvetica"}
0
TEXT
5
13D
330
10E
100
AcDbEntity
8
A-ANNOTATION
62
127
420
3292230
370
40
100
AcDbText
10
117.475
20
74.7888888889
30
0
40
3.0395333712
1
ROTATED TEXT
50
22.999999546
41
1
7
RV_BDCF0158
71
0
72
5
11
147.1374716014
21
87.3798607929
31
0
100
AcDbText
73
0
1001
REVECTOR
1000
{"id":"e25","source":{"ids":["p2-16"],"page":2,"operator":72,"ref":"7189a3f0"},"semantic":{"class":null,"confidence":1,"method":"source"},"font":"Helvetica"}
0
TEXT
5
13E
330
10E
100
AcDbEntity
8
A-ANNOTATION
62
127
420
3292230
370
40
100
AcDbText
10
186.9722222222
20
78.3166666667
30
0
40
2.8016771794
1
AFFINE TEXT
50
11.3099326382
41
1
51
28.0091774988
7
RV_BDCF0158
71
0
72
5
11
214.0232222222
21
83.7268667473
31
0
100
AcDbText
73
0
1001
REVECTOR
1000
{"id":"e26","source":{"ids":["p2-17"],"page":2,"operator":77,"ref":"6460dfb8"},"semantic":{"class":null,"confidence":1,"method":"source"},"font":"Helvetica"}
0
TEXT
5
13F
330
10E
100
AcDbEntity
8
A-ANNOTATION
62
127
420
3292230
370
40
100
AcDbText
10
22.9305555556
20
60.6777777778
30
0
40
2.0263555556
1
FORM XOBJECTS
50
0
41
1
7
RV_3291BAF8
71
0
72
5
11
47.2355333333
21
60.6777777778
31
0
100
AcDbText
73
0
1001
REVECTOR
1000
{"id":"e27","source":{"ids":["p2-18"],"page":2,"operator":82,"ref":"981407ab"},"semantic":{"class":null,"confidence":1,"method":"source"},"font":"Helvetica-Bold"}
0
INSERT
5
140
330
10E
100
AcDbEntity
8
A-ANNOTATION
62
127
420
3292230
370
50
100
AcDbBlockReference
2
PDF_FORM_54F19993_0
10
30.3388888889
20
49.7416666667
30
0
41
0.5291666667
42
0.5291666667
43
1
50
0
1001
REVECTOR
1000
{"id":"e61","source":{"ids":["p2-19","p2-20","p2-21"],"page":2,"form":"form-2-0","ref":"977f9111"},"semantic":{"class":"form-xobject","confidence":1,"method":"source"}}
0
INSERT
5
141
330
10E
100
AcDbEntity
8
A-ANNOTATION
62
127
420
3292230
370
50
100
AcDbBlockReference
2
PDF_FORM_54F19993_0
10
55.0333333333
20
49.7416666667
30
0
41
0.5291666667
42
0.5291666667
43
1
50
90
1001
REVECTOR
1000
{"id":"e60","source":{"ids":["p2-22","p2-23","p2-24"],"page":2,"form":"form-2-1","ref":"4235c306"},"semantic":{"class":"form-xobject","confidence":1,"method":"source"}}
0
INSERT
5
142
330
10E
100
AcDbEntity
8
A-ANNOTATION
62
127
420
3292230
370
50
100
AcDbBlockReference
2
PDF_FORM_54F19993_0
10
79.7277777778
20
49.7416666667
30
0
41
0.5291666667
42
0.5291666667
43
1
50
0
1001
REVECTOR
1000
{"id":"e59","source":{"ids":["p2-25","p2-26","p2-27"],"page":2,"form":"form-2-2","ref":"7c91a3a0"},"semantic":{"class":"form-xobject","confidence":1,"method":"source"}}
0
INSERT
5
143
330
10E
100
AcDbEntity
8
A-ANNOTATION
62
127
420
3292230
370
50
100
AcDbBlockReference
2
PDF_FORM_54F19993_0
10
104.4222222222
20
49.7416666667
30
0
41
0.5291666667
42
0.5291666667
43
1
50
90
1001
REVECTOR
1000
{"id":"e58","source":{"ids":["p2-28","p2-29","p2-30"],"page":2,"form":"form-2-3","ref":"28789471"},"semantic":{"class":"form-xobject","confidence":1,"method":"source"}}
0
INSERT
5
144
330
10E
100
AcDbEntity
8
A-ANNOTATION
62
127
420
3292230
370
50
100
AcDbBlockReference
2
PDF_FORM_54F19993_0
10
129.1166666667
20
49.7416666667
30
0
41
0.5291666667
42
0.5291666667
43
1
50
0
1001
REVECTOR
1000
{"id":"e57","source":{"ids":["p2-31","p2-32","p2-33"],"page":2,"form":"form-2-4","ref":"cd765d4b"},"semantic":{"class":"form-xobject","confidence":1,"method":"source"}}
0
INSERT
5
145
330
10E
100
AcDbEntity
8
A-ANNOTATION
62
127
420
3292230
370
50
100
AcDbBlockReference
2
PDF_FORM_54F19993_0
10
153.8111111111
20
49.7416666667
30
0
41
0.5291666667
42
0.5291666667
43
1
50
90
1001
REVECTOR
1000
{"id":"e56","source":{"ids":["p2-34","p2-35","p2-36"],"page":2,"form":"form-2-5","ref":"68d54131"},"semantic":{"class":"form-xobject","confidence":1,"method":"source"}}
0
INSERT
5
146
330
10E
100
AcDbEntity
8
A-ANNOTATION
62
127
420
3292230
370
50
100
AcDbBlockReference
2
PDF_FORM_54F19993_0
10
178.5055555556
20
49.7416666667
30
0
41
0.5291666667
42
0.5291666667
43
1
50
0
1001
REVECTOR
1000
{"id":"e55","source":{"ids":["p2-37","p2-38","p2-39"],"page":2,"form":"form-2-6","ref":"4e65861f"},"semantic":{"class":"form-xobject","confidence":1,"method":"source"}}
0
INSERT
5
147
330
10E
100
AcDbEntity
8
A-ANNOTATION
62
127
420
3292230
370
50
100
AcDbBlockReference
2
PDF_FORM_54F19993_0
10
203.2
20
49.7416666667
30
0
41
0.5291666667
42
0.5291666667
43
1
50
90
1001
REVECTOR
1000
{"id":"e54","source":{"ids":["p2-40","p2-41","p2-42"],"page":2,"form":"form-2-7","ref":"6a587a20"},"semantic":{"class":"form-xobject","confidence":1,"method":"source"}}
0
TEXT
5
148
330
10E
100
AcDbEntity
8
A-ANNOTATION
62
127
420
3292230
370
40
100
AcDbText
10
14.8166666667
20
22.9305555556
30
0
40
2.0263555556
1
NO OCR   /   NO RASTER TRACING   /   SOURCE PROVENANCE RETAINED
50
0
41
1
7
RV_3291BAF8
71
0
72
5
11
115.3301111111
21
22.9305555556
31
0
100
AcDbText
73
0
1001
REVECTOR
1000
{"id":"e52","source":{"ids":["p2-43"],"page":2,"operator":159,"ref":"32a2f7f9"},"semantic":{"class":null,"confidence":1,"method":"source"},"font":"Helvetica-Bold"}
0
TEXT
5
149
330
10E
100
AcDbEntity
8
A-ANNOTATION
62
127
420
3292230
370
40
100
AcDbText
10
248.7083333333
20
14.8166666667
30
0
40
2.0263555556
1
SHEET 02 OF 02
50
0
41
1
7
RV_BDCF0158
71
0
72
5
11
270.6680444444
21
14.8166666667
31
0
100
AcDbText
73
0
1001
REVECTOR
1000
{"id":"e53","source":{"ids":["p2-44"],"page":2,"operator":164,"ref":"493cadce"},"semantic":{"class":null,"confidence":1,"method":"source"},"font":"Helvetica"}
0
ENDSEC
0
SECTION
2
OBJECTS
0
DICTIONARY
5
109
330
0
100
AcDbDictionary
281
1
3
ACAD_GROUP
350
10A
3
ACAD_LAYOUT
350
10B
0
DICTIONARY
5
10A
330
109
100
AcDbDictionary
281
1
0
DICTIONARY
5
10B
330
109
100
AcDbDictionary
281
1
3
Model
350
10C
3
Layout1
350
10D
0
LAYOUT
5
10C
330
10B
100
AcDbPlotSettings
1

2

4

6

40
0
41
0
42
0
43
0
46
0
47
0
48
0
49
0
44
297.0388888889
45
209.9027777778
140
297.0388888889
141
209.9027777778
142
1
143
1
70
1024
72
1
73
0
74
5
7

75
16
76
0
77
2
78
300
147
1
148
0
149
0
100
AcDbLayout
1
Model
70
1
71
0
10
0
20
0
11
297.0388888889
21
209.9027777778
12
0
22
0
32
0
14
8.4666666667
24
8.4666666667
34
0
15
288.5722222222
25
201.4361111111
35
0
146
0
13
0
23
0
33
0
16
1
26
0
36
0
17
0
27
1
37
0
76
0
330
10E
0
LAYOUT
5
10D
330
10B
100
AcDbPlotSettings
1

2

4

6

40
0
41
0
42
0
43
0
46
0
47
0
48
0
49
0
44
297.0388888889
45
209.9027777778
140
297.0388888889
141
209.9027777778
142
1
143
1
70
0
72
1
73
0
74
5
7

75
16
76
0
77
2
78
300
147
1
148
0
149
0
100
AcDbLayout
1
Layout1
70
1
71
1
10
0
20
0
11
297.0388888889
21
209.9027777778
12
0
22
0
32
0
14
8.4666666667
24
8.4666666667
34
0
15
288.5722222222
25
201.4361111111
35
0
146
0
13
0
23
0
33
0
16
1
26
0
36
0
17
0
27
1
37
0
76
0
330
10F
0
ENDSEC
0
EOF
