0
SECTION
2
HEADER
9
$ACADVER
1
AC1021
9
$ACADMAINTVER
70
0
9
$DWGCODEPAGE
3
ANSI_1252
9
$HANDSEED
5
130
9
$INSBASE
10
0
20
0
30
0
9
$EXTMIN
10
10
20
10
30
0
9
$EXTMAX
10
100
20
96
30
0
9
$LIMMIN
10
0
20
0
9
$LIMMAX
10
297
20
210
9
$INSUNITS
70
4
9
$MEASUREMENT
70
1
9
$LUNITS
70
2
9
$LUPREC
70
4
9
$AUNITS
70
0
9
$AUPREC
70
4
9
$TILEMODE
70
1
9
$LTSCALE
40
1
9
$PSLTSCALE
70
0
9
$FILLMODE
70
1
9
$CLAYER
8
0
0
ENDSEC
0
SECTION
2
TABLES
0
TABLE
5
100
2
VPORT
100
AcDbSymbolTable
70
1
0
VPORT
5
123
330
100
100
AcDbSymbolTableRecord
100
AcDbViewportTableRecord
2
*Active
70
0
10
0
20
0
11
1
21
1
12
148.5
22
105
13
0
23
0
14
10
24
10
15
10
25
10
16
0
26
0
36
1
17
0
27
0
37
0
40
210
41
1.4142857143
42
50
43
0
44
0
50
0
51
0
71
0
72
100
73
1
74
3
75
0
76
0
77
0
78
0
0
ENDTAB
0
TABLE
5
101
2
LTYPE
100
AcDbSymbolTable
70
3
0
LTYPE
5
11C
330
101
100
AcDbSymbolTableRecord
100
AcDbLinetypeTableRecord
2
BYBLOCK
70
0
3

72
65
73
0
40
0
0
LTYPE
5
11D
330
101
100
AcDbSymbolTableRecord
100
AcDbLinetypeTableRecord
2
BYLAYER
70
0
3

72
65
73
0
40
0
0
LTYPE
5
11E
330
101
100
AcDbSymbolTableRecord
100
AcDbLinetypeTableRecord
2
CONTINUOUS
70
0
3

72
65
73
0
40
0
0
ENDTAB
0
TABLE
5
102
2
LAYER
100
AcDbSymbolTable
70
1
0
LAYER
5
11F
330
102
100
AcDbSymbolTableRecord
100
AcDbLayerTableRecord
2
0
70
0
62
254
420
13819110
6
CONTINUOUS
290
1
370
-3
0
ENDTAB
0
TABLE
5
103
2
STYLE
100
AcDbSymbolTable
70
2
0
STYLE
5
11A
330
103
100
AcDbSymbolTableRecord
100
AcDbTextStyleTableRecord
2
STANDARD
70
0
40
0
41
1
50
0
71
0
42
2.5
3
txt
4

0
STYLE
5
11B
330
103
100
AcDbSymbolTableRecord
100
AcDbTextStyleTableRecord
2
RV_D44C12BC
70
0
40
0
41
1
50
0
71
0
42
2.5
3
arial.ttf
4

0
ENDTAB
0
TABLE
5
104
2
VIEW
100
AcDbSymbolTable
70
0
0
ENDTAB
0
TABLE
5
105
2
UCS
100
AcDbSymbolTable
70
0
0
ENDTAB
0
TABLE
5
106
2
APPID
100
AcDbSymbolTable
70
2
0
APPID
5
120
330
106
100
AcDbSymbolTableRecord
100
AcDbRegAppTableRecord
2
ACAD
70
0
0
APPID
5
121
330
106
100
AcDbSymbolTableRecord
100
AcDbRegAppTableRecord
2
REVECTOR
70
0
0
ENDTAB
0
TABLE
5
107
2
DIMSTYLE
100
AcDbSymbolTable
70
1
0
DIMSTYLE
105
122
330
107
100
AcDbSymbolTableRecord
100
AcDbDimStyleTableRecord
2
STANDARD
70
0
40
1
41
2.5
42
0.625
43
3.75
44
1.25
140
2.5
147
0.625
340
11A
0
ENDTAB
0
TABLE
5
108
2
BLOCK_RECORD
100
AcDbSymbolTable
70
4
0
BLOCK_RECORD
5
10E
330
108
100
AcDbSymbolTableRecord
100
AcDbBlockTableRecord
2
*Model_Space
340
10C
70
4
280
1
281
0
0
BLOCK_RECORD
5
10F
330
108
100
AcDbSymbolTableRecord
100
AcDbBlockTableRecord
2
*Paper_Space
340
10D
70
4
280
1
281
0
0
BLOCK_RECORD
5
110
330
108
100
AcDbSymbolTableRecord
100
AcDbBlockTableRecord
2
TEST
70
4
280
1
281
0
0
BLOCK_RECORD
5
111
330
108
100
AcDbSymbolTableRecord
100
AcDbBlockTableRecord
2
*D1
70
4
280
1
281
0
0
ENDTAB
0
ENDSEC
0
SECTION
2
BLOCKS
0
BLOCK
5
112
330
10E
100
AcDbEntity
8
0
100
AcDbBlockBegin
2
*Model_Space
70
0
10
0
20
0
30
0
3
*Model_Space
1

0
ENDBLK
5
113
330
10E
100
AcDbEntity
8
0
100
AcDbBlockEnd
0
BLOCK
5
114
330
10F
100
AcDbEntity
8
0
100
AcDbBlockBegin
2
*Paper_Space
70
0
10
0
20
0
30
0
3
*Paper_Space
1

0
ENDBLK
5
115
330
10F
100
AcDbEntity
8
0
100
AcDbBlockEnd
0
BLOCK
5
116
330
110
100
AcDbEntity
8
0
100
AcDbBlockBegin
2
TEST
70
0
10
0
20
0
30
0
3
TEST
1

0
CIRCLE
5
12D
330
110
100
AcDbEntity
8
0
62
142
420
1601184
370
25
100
AcDbCircle
10
0
20
0
30
0
40
3
1001
REVECTOR
1000
{"id":"e5","source":{"ids":[],"ref":"5465b825"},"semantic":{}}
0
ENDBLK
5
117
330
110
100
AcDbEntity
8
0
100
AcDbBlockEnd
0
BLOCK
5
118
330
111
100
AcDbEntity
8
0
100
AcDbBlockBegin
2
*D1
70
1
10
0
20
0
30
0
3
*D1
1

0
LINE
5
12E
330
111
100
AcDbEntity
8
0
62
142
420
1601184
370
25
100
AcDbLine
10
50
20
90
30
0
11
100
21
90
31
0
1001
REVECTOR
1000
{"id":"e8","source":{"ids":[],"ref":"5465b825"},"semantic":{}}
0
TEXT
5
12F
330
111
100
AcDbEntity
8
0
62
142
420
1601184
370
25
100
AcDbText
10
70
20
93
30
0
40
3
1
50
50
0
41
1
7
RV_D44C12BC
71
0
72
5
11
75
21
93
31
0
100
AcDbText
73
0
1001
REVECTOR
1000
{"id":"e9","source":{"ids":[],"ref":"5465b825"},"semantic":{}}
0
ENDBLK
5
119
330
111
100
AcDbEntity
8
0
100
AcDbBlockEnd
0
ENDSEC
0
SECTION
2
ENTITIES
0
LINE
5
125
102
{ACAD_REACTORS
330
124
102
}
330
10E
100
AcDbEntity
8
0
62
142
420
1601184
370
25
100
AcDbLine
10
10
20
10
30
0
11
50
21
20
31
0
1001
REVECTOR
1000
{"id":"e1","source":{"ids":[],"ref":"5465b825"},"semantic":{}}
0
TEXT
5
126
102
{ACAD_REACTORS
330
124
102
}
330
10E
100
AcDbEntity
8
0
62
142
420
1601184
370
25
100
AcDbText
10
10
20
30
30
0
40
3
1
Valve \U+00D8200 \U+00B0 \U+00B1
50
0
41
1
7
RV_D44C12BC
71
0
72
5
11
35
21
30
31
0
100
AcDbText
73
0
1001
REVECTOR
1000
{"id":"e2","source":{"ids":[],"ref":"5465b825"},"semantic":{}}
0
SPLINE
5
127
330
10E
100
AcDbEntity
8
0
62
142
420
1601184
370
25
100
AcDbSpline
210
0
220
0
230
1
70
8
71
3
72
8
73
4
74
0
42
1e-7
43
1e-7
44
1e-10
40
0
40
0
40
0
40
0
40
1
40
1
40
1
40
1
10
10
20
40
30
0
10
20
20
70
30
0
10
30
20
10
30
0
10
40
20
40
30
0
1001
REVECTOR
1000
{"id":"e3","source":{"ids":[],"ref":"5465b825"},"semantic":{}}
0
HATCH
5
128
330
10E
100
AcDbEntity
8
0
62
142
420
1601184
370
25
100
AcDbHatch
10
0
20
0
30
0
210
0
220
0
230
1
2
SOLID
70
1
71
0
91
1
92
2
72
0
73
1
93
4
10
10
20
60
10
30
20
60
10
30
20
70
10
10
20
70
97
0
75
0
76
1
98
0
1001
REVECTOR
1000
{"id":"e4","source":{"ids":[],"ref":"5465b825"},"semantic":{}}
0
INSERT
5
129
330
10E
100
AcDbEntity
8
0
62
142
420
1601184
370
25
100
AcDbBlockReference
66
1
2
TEST
10
80
20
50
30
0
41
1
42
1
43
1
50
20
1001
REVECTOR
1000
{"id":"e7","source":{"ids":[],"ref":"5465b825"},"semantic":{}}
0
ATTRIB
5
12A
330
129
100
AcDbEntity
8
0
62
142
420
1601184
370
25
100
AcDbText
10
80
20
55
30
0
40
3
1
V-101
50
0
41
1
7
RV_D44C12BC
71
0
72
5
11
95
21
55
31
0
100
AcDbAttribute
2
TAG
70
0
73
0
74
0
1001
REVECTOR
1000
{"id":"e6","source":{"ids":[],"ref":"5465b825"},"semantic":{}}
0
SEQEND
5
12B
330
129
100
AcDbEntity
8
0
0
DIMENSION
5
12C
330
10E
100
AcDbEntity
8
0
62
142
420
1601184
370
25
100
AcDbDimension
2
*D1
10
100
20
90
30
0
11
70
21
93
31
0
70
33
1
50
3
STANDARD
42
50
100
AcDbAlignedDimension
13
50
23
80
33
0
14
100
24
80
34
0
1001
REVECTOR
1000
{"id":"e10","source":{"ids":[],"ref":"5465b825"},"semantic":{}}
0
ENDSEC
0
SECTION
2
OBJECTS
0
DICTIONARY
5
109
330
0
100
AcDbDictionary
281
1
3
ACAD_GROUP
350
10A
3
ACAD_LAYOUT
350
10B
0
DICTIONARY
5
10A
330
109
100
AcDbDictionary
281
1
3
Example
350
124
0
DICTIONARY
5
10B
330
109
100
AcDbDictionary
281
1
3
Model
350
10C
3
Layout1
350
10D
0
LAYOUT
5
10C
330
10B
100
AcDbPlotSettings
1

2

4

6

40
0
41
0
42
0
43
0
46
0
47
0
48
0
49
0
44
297
45
210
140
297
141
210
142
1
143
1
70
1024
72
1
73
0
74
5
7

75
16
76
0
77
2
78
300
147
1
148
0
149
0
100
AcDbLayout
1
Model
70
1
71
0
10
0
20
0
11
297
21
210
12
0
22
0
32
0
14
10
24
10
34
0
15
100
25
96
35
0
146
0
13
0
23
0
33
0
16
1
26
0
36
0
17
0
27
1
37
0
76
0
330
10E
0
LAYOUT
5
10D
330
10B
100
AcDbPlotSettings
1

2

4

6

40
0
41
0
42
0
43
0
46
0
47
0
48
0
49
0
44
297
45
210
140
297
141
210
142
1
143
1
70
0
72
1
73
0
74
5
7

75
16
76
0
77
2
78
300
147
1
148
0
149
0
100
AcDbLayout
1
Layout1
70
1
71
1
10
0
20
0
11
297
21
210
12
0
22
0
32
0
14
10
24
10
34
0
15
100
25
96
35
0
146
0
13
0
23
0
33
0
16
1
26
0
36
0
17
0
27
1
37
0
76
0
330
10F
0
GROUP
5
124
330
10A
100
AcDbGroup
300
Recovered semantic group
70
0
71
1
340
125
340
126
0
ENDSEC
0
EOF
